<svg xmlns="http://www.w3.org/2000/svg" viewBox="0 0 338.3 250.39"><defs><style>.a{fill:#fff;}</style></defs><title>full logo</title><path class="a" d="M471.9,643.82h38.55v4.88H466.16V560.87h5.74Z" transform="translate(-466.16 -398.31)"/><path class="a" d="M580.11,565.75H542.9v35.37h26.72V606H542.9v37.82H581v4.88H537.17V560.87h42.94Z" transform="translate(-466.16 -398.31)"/><path class="a" d="M656.72,565.75H631.35v83h-5.73v-83H600.36v-4.88h56.36Z" transform="translate(-466.16 -398.31)"/><path class="a" d="M684.3,600.64h34.76V560.87h5.74V648.7h-5.74V605.52H684.3V648.7h-5.74V560.87h5.74Z" transform="translate(-466.16 -398.31)"/><path class="a" d="M804.46,648.7H798L790.07,622H760.18l-8,26.71h-6.35l29.28-91.37ZM761.4,617.11h27.45l-13.79-44.17Z" transform="translate(-466.16 -398.31)"/><path class="a" d="M627.14,493.26h.65m-.65,4.88h-18V410.31h5.74v82.95h12.23m9.31,0h25v4.88h-25" transform="translate(-466.16 -398.31)"/><path class="a" d="M629.45,479.32v-81h5.73v81.11" transform="translate(-466.16 -398.31)"/></svg>