<svg xmlns="http://www.w3.org/2000/svg" viewBox="0 0 857.6 845.74"><defs><style>.a{fill:#565554;}.b{fill:#f25726;}.c{fill:none;stroke:#000;stroke-miterlimit:10;}.d{opacity:0.56;}.e{fill:#152b3d;}.f{fill:#828e92;}</style></defs><title>redis logo 2.5</title><path class="a" d="M903.35,236.13q-27.42-16.75-66.76-15.37-45.92,1.61-66.19,20.5t-19.1,49.68q.59,15.63,6.29,26a44.72,44.72,0,0,0,17.23,17.1q11.52,6.74,29.16,11.4t41.67,8.89A458.07,458.07,0,0,1,892,364.9q7.49,2.16,14.19,4.81m12.14,26.57Q905,388,885.14,382t-46.6-11.5q-27.24-5.52-48-11.72t-35.13-15.64q-14.34-9.42-21.5-22.76t-7.17-33.57q0-22.06,8.84-39.08A83.38,83.38,0,0,1,760.17,219q15.76-11.73,37.75-17.7t48.75-6q33,0,58.78,9.43a134.34,134.34,0,0,1,12.6,5.33m1.77,316.46c-4.24,1.51-8.69,2.83-13.34,4q-22.22,5.52-49.46,5.52-79.34,0-134.28-48.75l12.9-18.85q21.51,21.61,52.57,34.26T858,515.37q38,0,61.84-11.42" transform="translate(-529.45 -43.04)"/><path class="b" d="M903.44,528.81V210h23.9V403.37L1124.65,210h28.2l-141,139.35L1160,528.81H1132.3L996.1,363.31l-68.76,67.06v98.44Z" transform="translate(-529.45 -43.04)"/><path class="b" d="M904.91,528.71V209.9l-1.59,1.18h23.89l-1.34-1V403.47c0,1.46,2,1,2.68.34L1007,326.92l108.37-106.2c3.26-3.19,7.59-6.36,10.27-10.06.11-.14-1.88,0-.07.42,2.87.67,6.72,0,9.64,0h17.51l-1.1-1.52-47.45,46.91-76.08,75.21-17.44,17.24a.84.84,0,0,0-.11,1.08l50,60.6,79.77,96.62,18.35,22.24,1.45-1.73c-8.57,0-17.37-.61-25.92,0-2,.15-1.55-.56-.63.4a2.57,2.57,0,0,1-.52-.63c-.4-1.13-2-2.46-2.77-3.37l-28.47-34.59-83.36-101.3-21-25.57c-.66-.81-1.92-.41-2.54.2l-61.16,59.64c-2.11,2.06-6.23,4.74-7.6,7.41-1.06,2.09-.26,6.06-.26,8.32v90.68l1.59-1.19H903.57c-1.67,0-2.22,2.16-.25,2.16h23.89c.58,0,1.6-.5,1.6-1.18V443.47c0-4-.79-8.88,0-12.8.08-.4-.49.36.59-.69,1.41-1.34,2.79-2.71,4.18-4.07L969,391.41l28.36-27.66-2.54.2,57.35,69.7L1126.5,524c1.53,1.86,3.32,5.26,5.72,5.87,4.19,1.06,10,0,14.31,0h13.36c.7,0,2.15-.88,1.45-1.72l-44.06-53.38-76-92.06-24.16-29.26a50,50,0,0,1-3.89-4.72c.73,1.17-.71,1.1.76.15a22.9,22.9,0,0,0,3.1-3l71.45-70.63,41.06-40.59c7.75-7.66,16-15.06,23.36-23.09.35-.38.74-.73,1.11-1.09.85-.85-.34-1.52-1.1-1.52h-25c-1.21,0-2.83-.31-4,.2-2.42,1.1-4.79,4.57-6.62,6.36l-42.07,41.23L955.49,374.14l-29.37,28.79,2.69.33V209.9c0-.76-.7-1-1.35-1H903.57c-.58,0-1.6.49-1.6,1.18V528.92C902,530.45,904.91,530,904.91,528.71Z" transform="translate(-529.45 -43.04)"/><polyline class="c" points="730.26 406.38 730.64 501.19 430.25 669.54 128.53 503.41 128.09 390.87"/><polyline class="c" points="127.37 270.69 126.97 168.93 427.35 0.57 729.07 166.7 729.48 270.69"/><polygon class="c" points="711.41 491.93 711.41 175.71 428.23 17.6 145.04 175.71 145.04 491.93 428.23 650.03 711.41 491.93"/><polyline class="c" points="383.09 80.91 174.03 194.94 174.03 270.69"/><polyline class="c" points="681.96 270.69 681.96 194.94 472.89 80.91"/><polyline class="c" points="472.89 585.98 681.96 471.96 681.96 406.38"/><polyline class="c" points="174.03 390.87 174.03 471.96 383.09 585.98"/><g class="d"><path class="e" d="M573.78,888.78a70.13,70.13,0,0,1-24.16-4.2A55.76,55.76,0,0,1,529.45,872l5.25-7.14A61.31,61.31,0,0,0,553,876.59a55.31,55.31,0,0,0,20.8,3.79q14.28,0,23-6a19.13,19.13,0,0,0,8.71-16.7,15.55,15.55,0,0,0-2.2-8.51,17.66,17.66,0,0,0-6.62-5.88A54.57,54.57,0,0,0,585.75,839q-6.51-1.89-15.13-4-9.24-2.09-16.07-4.2a43.14,43.14,0,0,1-11.23-5,19.46,19.46,0,0,1-6.62-7.14,22.94,22.94,0,0,1-2.21-10.71,30.6,30.6,0,0,1,3.16-14.29,28.13,28.13,0,0,1,8.71-10.08,39.94,39.94,0,0,1,12.82-6,57.9,57.9,0,0,1,15.44-2,56.26,56.26,0,0,1,22.68,4.3q9.87,4.3,15.34,11l-5.89,5.67a33.36,33.36,0,0,0-14.17-9.45A54.33,54.33,0,0,0,574,784a49.85,49.85,0,0,0-11.45,1.26,27.58,27.58,0,0,0-9.35,4,19.67,19.67,0,0,0-6.3,7,21.26,21.26,0,0,0-2.31,10.19,16.47,16.47,0,0,0,1.57,7.77,13.37,13.37,0,0,0,5,5,37.34,37.34,0,0,0,8.93,3.68q5.46,1.58,13,3.46,10.3,2.52,18.28,4.83a53.44,53.44,0,0,1,13.34,5.67,25,25,0,0,1,8.19,8q2.84,4.62,2.84,11.76,0,14.7-11.45,23.42T573.78,888.78Z" transform="translate(-529.45 -43.04)"/><path class="e" d="M718.92,886.68l-42.64-58.4L650.44,852v34.66h-10.5V733.33h10.5V840.47l66.38-62.81H729L683.21,822l47.27,64.7Z" transform="translate(-529.45 -43.04)"/><path class="e" d="M798.11,881.43c-.56.28-1.5.8-2.83,1.57a29.1,29.1,0,0,1-5,2.21,62.94,62.94,0,0,1-6.83,1.89,37.73,37.73,0,0,1-8.19.84,26.76,26.76,0,0,1-8.3-1.26,19.72,19.72,0,0,1-6.83-3.78,19.27,19.27,0,0,1-4.72-6.09,18.58,18.58,0,0,1-1.79-8.41V786.06H738.25v-8.61h15.33V740.06h10.51v37.39h25.62v8.61H764.09v79.82c0,4.07,1.39,7.11,4.2,9.14a16,16,0,0,0,9.66,3.05,26.39,26.39,0,0,0,11.24-2.21q4.72-2.21,5.77-2.84Z" transform="translate(-529.45 -43.04)"/><path class="e" d="M862.39,888.78A50.88,50.88,0,0,1,841,884.26a52.83,52.83,0,0,1-17.12-12.39A58.39,58.39,0,0,1,812.5,853.7a59.09,59.09,0,0,1-4.09-22.06,57.81,57.81,0,0,1,15.33-39.59A52,52,0,0,1,862,775.56a50.19,50.19,0,0,1,21.32,4.51,53.78,53.78,0,0,1,16.91,12.19,57.87,57.87,0,0,1,15.34,39.38c0,.71,0,1.58-.11,2.63s-.1,1.71-.1,2h-96a48.64,48.64,0,0,0,4.41,17.54,49.74,49.74,0,0,0,9.56,14A42.69,42.69,0,0,0,846.64,877a39.21,39.21,0,0,0,16.17,3.37,41.11,41.11,0,0,0,11.24-1.58,44.5,44.5,0,0,0,10.29-4.31,36.61,36.61,0,0,0,8.4-6.61,31,31,0,0,0,5.78-8.51l9.24,2.52a38.32,38.32,0,0,1-7,10.82,46.29,46.29,0,0,1-10.51,8.51,53.8,53.8,0,0,1-13.12,5.56A54.5,54.5,0,0,1,862.39,888.78Zm42.85-60.92a49.5,49.5,0,0,0-4.3-17.64,47.14,47.14,0,0,0-9.46-13.76,42.56,42.56,0,0,0-13.33-9,41.88,41.88,0,0,0-32.35,0,42.61,42.61,0,0,0-13.34,9,43.69,43.69,0,0,0-9.24,13.86,52.94,52.94,0,0,0-4.1,17.54Z" transform="translate(-529.45 -43.04)"/><path class="e" d="M931.08,831.64a59.88,59.88,0,0,1,4-21.84A53,53,0,0,1,963.43,780a52.43,52.43,0,0,1,21.64-4.41q14.91,0,26.15,6.72A43.79,43.79,0,0,1,1028.34,801l-10.29,3.37a35.18,35.18,0,0,0-13.87-14.18A39.19,39.19,0,0,0,984.44,785a39.76,39.76,0,0,0-16.81,3.57,42,42,0,0,0-13.55,9.87,46.1,46.1,0,0,0-9,14.81,51,51,0,0,0-3.26,18.38,50.65,50.65,0,0,0,12.71,33.72,44.16,44.16,0,0,0,13.55,10.19,37.44,37.44,0,0,0,16.6,3.78,38.65,38.65,0,0,0,11.23-1.68,48.1,48.1,0,0,0,10.3-4.42,35.43,35.43,0,0,0,8.19-6.4,20.06,20.06,0,0,0,4.72-7.67l10.3,2.94a34.15,34.15,0,0,1-6.41,10.61,43.09,43.09,0,0,1-10.19,8.51,52.13,52.13,0,0,1-12.91,5.56,53.33,53.33,0,0,1-14.6,2,50.89,50.89,0,0,1-21.43-4.52,52.94,52.94,0,0,1-17.12-12.39,60.17,60.17,0,0,1-11.45-18.17A57.8,57.8,0,0,1,931.08,831.64Z" transform="translate(-529.45 -43.04)"/><path class="e" d="M1142.4,886.68h-10.5V825.76q0-20.37-6.94-30.46t-20.16-10.08a36.39,36.39,0,0,0-13.24,2.52,43.11,43.11,0,0,0-12.07,7.14,51.35,51.35,0,0,0-9.77,10.82,43.19,43.19,0,0,0-6.09,13.34v67.64h-10.51V733.33h10.51V803.5a52.61,52.61,0,0,1,18.59-20.38,46.61,46.61,0,0,1,25.52-7.56,33.49,33.49,0,0,1,15.54,3.36,29.18,29.18,0,0,1,10.82,9.66,43.58,43.58,0,0,1,6.3,15.23,92.25,92.25,0,0,1,2,20.06Z" transform="translate(-529.45 -43.04)"/></g><path class="f" d="M1176.94,887.08V872.63h7.48v14.45Z" transform="translate(-529.45 -43.04)"/><path class="f" d="M1281.32,887.08h-8.5v-49.3q0-17.17-4.85-25T1252.42,805a32,32,0,0,0-11.14,2,36.62,36.62,0,0,0-10.2,5.78,43.15,43.15,0,0,0-8.24,8.75,36.1,36.1,0,0,0-5.27,10.8v54.74h-8.5v-88.4h7.82v21.08a40.24,40.24,0,0,1,6.8-9.27,45.82,45.82,0,0,1,9-7.14,43.41,43.41,0,0,1,10.62-4.59,42.77,42.77,0,0,1,11.65-1.61q14.44,0,20.4,10.11t6,29Z" transform="translate(-529.45 -43.04)"/><path class="f" d="M1343.71,888.78a40.56,40.56,0,0,1-17.26-3.66,42.62,42.62,0,0,1-13.68-9.94,45.72,45.72,0,0,1-9-14.62,47.86,47.86,0,0,1-3.23-17.51,47.37,47.37,0,0,1,3.31-17.68,46.33,46.33,0,0,1,9.18-14.62,44.09,44.09,0,0,1,13.69-10,39.73,39.73,0,0,1,17-3.65,40.28,40.28,0,0,1,17.08,3.65,43.85,43.85,0,0,1,13.77,10,46.33,46.33,0,0,1,9.18,14.62,47.95,47.95,0,0,1-9.09,49.81,42.56,42.56,0,0,1-13.77,9.94A40.74,40.74,0,0,1,1343.71,888.78Zm-34.51-45.39a39.51,39.51,0,0,0,2.72,14.7,38.33,38.33,0,0,0,7.39,12,35,35,0,0,0,11,8.07,31.75,31.75,0,0,0,26.86,0,33.94,33.94,0,0,0,11-8.24,42,42,0,0,0,7.48-12.16,40.33,40.33,0,0,0,0-29.58,40.84,40.84,0,0,0-7.48-12.07,35.74,35.74,0,0,0-11-8.24,30.32,30.32,0,0,0-13.43-3.06,29.91,29.91,0,0,0-13.26,3.06,35.92,35.92,0,0,0-11,8.33,39,39,0,0,0-7.48,12.32A40.91,40.91,0,0,0,1309.2,843.39Z" transform="translate(-529.45 -43.04)"/></svg>