<svg xmlns="http://www.w3.org/2000/svg" viewBox="0 0 604.67 670.11"><defs><style>.a{fill:#c15737;}.b{fill:#f25726;}.c{fill:none;stroke:#000;stroke-miterlimit:10;}</style></defs><title>redis logo 2.4</title><path class="a" d="M373.9,193.09q-27.42-16.76-66.76-15.37-45.92,1.6-66.19,20.5t-19.1,49.68q.59,15.63,6.29,26A44.72,44.72,0,0,0,245.37,291q11.52,6.74,29.16,11.4t41.67,8.89a459.67,459.67,0,0,1,46.35,10.57q7.49,2.16,14.19,4.81m12.14,26.57Q375.55,345,355.69,339t-46.6-11.5q-27.24-5.52-48-11.72T226,300.1q-14.34-9.42-21.5-22.76t-7.17-33.57q0-22.07,8.84-39.08A83.45,83.45,0,0,1,230.72,176q15.76-11.73,37.75-17.7t48.75-6q33,0,58.78,9.43A133.93,133.93,0,0,1,388.6,167m1.77,316.46c-4.24,1.51-8.69,2.83-13.34,4Q354.82,493,327.57,493q-79.33,0-134.28-48.75l12.9-18.85Q227.7,447,258.76,459.66t69.79,12.67q38,0,61.84-11.42" transform="translate(-126.47 0)"/><path class="b" d="M374,485.77V167h23.9V360.33L595.2,167h28.2l-141,139.35L630.55,485.77h-27.7l-136.2-165.5-68.76,67.06v98.44Z" transform="translate(-126.47 0)"/><path class="b" d="M375.46,485.67V166.86L373.87,168h23.89l-1.34-1V360.43c0,1.46,2,1,2.68.34l78.45-76.89,108.37-106.2c3.26-3.19,7.59-6.36,10.27-10.06.11-.14-1.88,0-.07.42,2.87.67,6.72,0,9.64,0h17.51l-1.1-1.52-47.45,46.91-76.08,75.21L481.2,305.88a.84.84,0,0,0-.11,1.08l50,60.6,79.77,96.62,18.35,22.24,1.45-1.73c-8.57,0-17.37-.61-25.92,0-2,.15-1.55-.56-.63.4a2.43,2.43,0,0,1-.52-.63c-.4-1.13-2-2.46-2.77-3.37L572.35,446.5,489,345.2l-21-25.57c-.66-.81-1.92-.41-2.54.2l-61.16,59.64c-2.11,2.06-6.23,4.74-7.6,7.41-1.06,2.09-.26,6.06-.26,8.32v90.68l1.59-1.19h-23.9c-1.67,0-2.22,2.16-.25,2.16h23.89c.58,0,1.6-.5,1.6-1.18V400.43c0-4-.79-8.88,0-12.8.08-.4-.49.36.59-.69,1.41-1.34,2.79-2.71,4.18-4.07l35.42-34.5,28.36-27.66-2.54.2,57.35,69.7L597.05,481c1.53,1.86,3.32,5.26,5.72,5.87,4.19,1.06,10,0,14.31,0h13.36c.7,0,2.15-.88,1.45-1.72l-44.06-53.38-76-92.06-24.16-29.26a50.25,50.25,0,0,1-3.89-4.72c.73,1.17-.71,1.1.76.15a22.54,22.54,0,0,0,3.1-3l71.45-70.63,41.06-40.59c7.75-7.66,16-15.06,23.36-23.09.35-.38.74-.73,1.11-1.09.85-.85-.34-1.52-1.1-1.52h-25c-1.21,0-2.83-.31-4,.2-2.42,1.1-4.79,4.57-6.62,6.36l-42.07,41.23L426,331.1l-29.37,28.79,2.69.33V166.86c0-.76-.7-1-1.35-1H374.12c-.58,0-1.6.49-1.6,1.18V485.88C372.55,487.41,375.46,487,375.46,485.67Z" transform="translate(-126.47 0)"/><polyline class="c" points="603.79 406.38 604.17 501.19 303.78 669.54 2.06 503.41 1.62 390.87"/><polyline class="c" points="0.9 270.69 0.5 168.93 300.88 0.57 602.6 166.7 603.01 270.69"/><polygon class="c" points="584.94 491.93 584.94 175.71 301.76 17.6 18.57 175.71 18.57 491.93 301.76 650.03 584.94 491.93"/><polyline class="c" points="256.62 80.91 47.56 194.94 47.56 270.69"/><polyline class="c" points="555.49 270.69 555.49 194.94 346.42 80.91"/><polyline class="c" points="346.42 585.98 555.49 471.96 555.49 406.38"/><polyline class="c" points="47.56 390.87 47.56 471.96 256.62 585.98"/></svg>