<svg xmlns="http://www.w3.org/2000/svg" viewBox="0 0 157.35 165.4"><defs><style>.a{fill:#fff;}.b{fill:#232b2e;}.c{fill:#1d1d1b;}</style></defs><title>B&amp;amp;W</title><rect class="a" width="99.32" height="99.32"/><rect class="b" x="58.03" y="32.94" width="99.32" height="99.32"/><path class="c" d="M22.33,155.73a3.5,3.5,0,0,1-.12.91,2.45,2.45,0,0,1-.37.84,2.68,2.68,0,0,1-.68.66,2.81,2.81,0,0,1-1,.43v.11a4.06,4.06,0,0,1,1,.3,2.4,2.4,0,0,1,.82.58,2.44,2.44,0,0,1,.55.89,3.38,3.38,0,0,1,.2,1.25,3.19,3.19,0,0,1-.4,1.64,3.34,3.34,0,0,1-1.08,1.13,5,5,0,0,1-1.53.65,7.54,7.54,0,0,1-1.78.21h-.76l-1,0c-.36,0-.72,0-1.09-.08a7,7,0,0,1-1-.15V153l.76-.1c.28,0,.59-.07.92-.09s.66,0,1-.05.68,0,1,0a10.21,10.21,0,0,1,1.68.13,4.84,4.84,0,0,1,1.45.46,2.8,2.8,0,0,1,1,.93A2.71,2.71,0,0,1,22.33,155.73ZM17.19,158l.57,0,.53,0a3.26,3.26,0,0,0,1.15-.62,1.4,1.4,0,0,0,.48-1.1,1.38,1.38,0,0,0-.17-.74,1.25,1.25,0,0,0-.47-.47,2,2,0,0,0-.65-.25,4.93,4.93,0,0,0-.78-.06H17a5.69,5.69,0,0,0-.59.05V158Zm.76,5.28a3.25,3.25,0,0,0,.83-.1,2.36,2.36,0,0,0,.72-.32,1.75,1.75,0,0,0,.5-.55,1.81,1.81,0,0,0,0-1.69,1.5,1.5,0,0,0-.58-.51,2.31,2.31,0,0,0-.81-.23,6.8,6.8,0,0,0-.9-.06H16.42v3.36a1,1,0,0,0,.27,0l.41,0H18Z"/><path class="c" d="M32.2,165.15H24.43V152.87h2.41V163H32.2Z"/><path class="c" d="M39.71,162.43H35.94L35,165.15h-2.4L37,152.79H38.8l4.42,12.36H40.69Zm-3.16-1.93h2.64l-.92-2.73-.36-1.93h-.09l-.37,1.94Z"/><path class="c" d="M52,164.65a3.52,3.52,0,0,1-1.43.57,8.67,8.67,0,0,1-1.78.18,6.59,6.59,0,0,1-2.09-.34A4.5,4.5,0,0,1,45,164a5.52,5.52,0,0,1-1.2-2,8.57,8.57,0,0,1-.45-3,8,8,0,0,1,.5-3,5.59,5.59,0,0,1,1.3-2A4.82,4.82,0,0,1,46.92,153a6.44,6.44,0,0,1,2-.32,9.1,9.1,0,0,1,1.78.14,6.34,6.34,0,0,1,1.2.33l-.48,2a3,3,0,0,0-1-.28,8.56,8.56,0,0,0-1.34-.09,2.92,2.92,0,0,0-2.34,1,4.86,4.86,0,0,0-.89,3.22,6.67,6.67,0,0,0,.21,1.73,3.63,3.63,0,0,0,.64,1.34,2.89,2.89,0,0,0,1.07.86,3.32,3.32,0,0,0,1.48.31,4.73,4.73,0,0,0,1.34-.16,3.86,3.86,0,0,0,.94-.4Z"/><path class="c" d="M56.57,159.91h-.63v5.24h-2.4V152.87h2.4v5.44l.56-.24,3.39-5.2h2.73L59,158l-.94.67,1,.68,4.09,5.77h-3Z"/><path class="c" d="M67.71,159a7.29,7.29,0,0,1,1.35-4.72,4.68,4.68,0,0,1,3.86-1.66,5.49,5.49,0,0,1,2.3.45,4.42,4.42,0,0,1,1.63,1.3,5.74,5.74,0,0,1,1,2,9.62,9.62,0,0,1,.32,2.61,7.25,7.25,0,0,1-1.36,4.73,4.69,4.69,0,0,1-3.85,1.66,5.4,5.4,0,0,1-2.32-.46,4.29,4.29,0,0,1-1.62-1.3,5.67,5.67,0,0,1-1-2A9.75,9.75,0,0,1,67.71,159Zm2.53,0a9.07,9.07,0,0,0,.15,1.71,4.4,4.4,0,0,0,.49,1.34,2.35,2.35,0,0,0,.83.88,2.25,2.25,0,0,0,1.21.32,2.3,2.3,0,0,0,2-1,5.78,5.78,0,0,0,.7-3.25,8.68,8.68,0,0,0-.15-1.66A4.29,4.29,0,0,0,75,156a2.5,2.5,0,0,0-.82-.91,2.34,2.34,0,0,0-1.25-.32,2.27,2.27,0,0,0-2,1A5.8,5.8,0,0,0,70.24,159Z"/><path class="c" d="M79.85,153l.87-.14q.47-.06.93-.09c.31,0,.61,0,.9-.05s.56,0,.81,0a8.64,8.64,0,0,1,1.69.16,4.41,4.41,0,0,1,1.49.54,2.89,2.89,0,0,1,1,1.06,3.23,3.23,0,0,1,.4,1.69,4,4,0,0,1-.7,2.46,3.61,3.61,0,0,1-1.88,1.31l.86.55,2.81,4.68H86.31l-2.79-4.8-1.27-.23v5h-2.4Zm3.68,1.84c-.24,0-.49,0-.72,0a2.41,2.41,0,0,0-.56.07v3.56h1a2.6,2.6,0,0,0,1.6-.46,1.8,1.8,0,0,0,.59-1.51,1.6,1.6,0,0,0-.49-1.24A2.12,2.12,0,0,0,83.53,154.84Z"/><path class="c" d="M97.6,159.73l.23,2.18h.07l.25-2.21,2.14-6.83h1.57l2.11,6.86.25,2.18h.07l.26-2.21,1.53-6.83h2.4l-3.39,12.37h-1.61l-2.19-6.82-.3-1.88h-.09l-.3,1.89-2.17,6.81h-1.7l-3.37-12.37H96Z"/><path class="c" d="M116.42,160h-4.49v5.14h-2.4V152.87h2.4v5h4.49v-5h2.41v12.28h-2.41Z"/><path class="c" d="M121.2,152.87h2.4v12.28h-2.4Z"/><path class="c" d="M134.67,155h-3.58v10.14h-2.4V155h-3.6v-2.14h9.58Z"/><path class="c" d="M135.91,152.87h7.29V155h-4.88v2.86h4.44V160h-4.44v3h5v2.14h-7.37Z"/></svg>