<svg xmlns="http://www.w3.org/2000/svg" xmlns:xlink="http://www.w3.org/1999/xlink" viewBox="0 0 590.61 422.2"><defs><style>.a{fill:none;}.b{clip-path:url(#a);}.c{opacity:0.45;}.d{fill:#fff;stroke:#fff;}.d,.e{stroke-miterlimit:10;stroke-width:7px;}.e{fill:#229446;stroke:#009245;}</style><clipPath id="a" transform="translate(70.34 -3.9)"><polygon class="a" points="422.3 319.9 214.5 424.81 6.7 319.9 6.7 110.1 214.5 5.19 422.3 110.1 422.3 319.9"/></clipPath></defs><title>BSC</title><g class="b"><image class="c" width="3554" height="2458" transform="translate(0 11.81) scale(0.17)" xlink:href="../../../../../Desktop/Skjermbilde 2018-09-03 kl. 18.41.35.png"/><rect class="a" x="77.05" width="415.59" height="422.2"/><path d="M125.14,269.52h-72v-1.91h8.46a8.89,8.89,0,0,0,8.73-9.15V167.58c0-4-2.18-5.6-6.41-5.6H56.5v-1.77h60.59c21,0,39,8.73,39,25.11,0,13-12.28,22-27.3,24.84l.14,1c18,2.46,35.34,13,35.34,29.61S150,269.52,125.14,269.52ZM113.27,162h-11.6v47.63H113.4c9.15,0,10.38-7.37,10.38-24.84S119.55,162,113.27,162Zm-.41,49.81H101.67V258.6c0,6.41.27,9,10,9,13.65,0,15.83-4.64,15.83-27.71C127.46,221.48,122.82,211.79,112.86,211.79Z" transform="translate(70.34 -3.9)"/><path d="M277.16,227.49c0,19.92-13.65,44.89-43.12,44.89-35.89,0-61.27-24-61.27-55.81s30.29-58.68,57.72-58.68c15.28,0,20.47,8.73,31.52,8.73a10.74,10.74,0,0,0,10.51-7.5h.55v52.26h-1.64v-3c0-7.23-13.1-48.72-39.17-48.72-15.69,0-22.92,23.61-22.92,58.68s10.23,52,27.43,52c21.29,0,38.21-20.06,38.21-42.85Z" transform="translate(70.34 -3.9)"/><path d="M333.79,272.25c-17.6,0-24.83-8.06-37.25-8.06-5.73,0-7.64,4-7.64,5.46l-1.37.14V222.3H289c2.32,11.33,18.15,48.17,43.26,48.17,10.51,0,19.24-6.55,19.24-17.33,0-34.39-63.86-15.83-63.86-60,0-18.56,18.29-35.21,41.76-35.21,13.64,0,19,6,27,6,7.77,0,10.23-3.69,10.23-6.28l1.23.13v41.08l-1.5-.14c-1.09-14.05-13.92-39-34.25-39-10.1,0-16.65,6.28-16.65,16.52,0,33.43,62.36,9.14,62.36,59.63C377.87,256,359.58,272.25,333.79,272.25Z" transform="translate(70.34 -3.9)"/><line class="d" x1="101.99" y1="181.9" x2="479.37" y2="181.9"/><line class="d" x1="96.67" y1="245.74" x2="474.06" y2="245.74"/><line class="e" x1="90.31" y1="213.82" x2="467.69" y2="213.82"/><line class="d" x1="254.47" y1="213.82" x2="479.37" y2="213.82"/></g></svg>