
<?xml version="1.0" encoding="UTF-8" standalone="no" ?>
<svg viewBox="0 0 201.71 125.21" version="1.1" xmlns="http://www.w3.org/2000/svg" xmlns:xlink="http://www.w3.org/1999/xlink" preserveAspectRatio="xMidYMid">
<defs><style>.a{fill:#3d414c;}.b{fill:#b8d0ce;}</style></defs>

<path class="a" d="M64.76,295.58l11.63,3.51a21.41,21.41,0,0,1-3.69,8.18,16,16,0,0,1-6.25,5,23.46,23.46,0,0,1-9.51,1.67,27.54,27.54,0,0,1-11.44-2,18.11,18.11,0,0,1-7.66-7.15q-3.23-5.13-3.22-13.12,0-10.65,5.67-16.38t16-5.72q8.12,0,12.75,3.28T76,282.83l-11.71,2.61A10,10,0,0,0,63,282.57a7.65,7.65,0,0,0-2.73-2.34A8.38,8.38,0,0,0,49.73,283q-1.81,2.68-1.81,8.45c0,4.76.72,8,2.17,9.79a7.4,7.4,0,0,0,6.09,2.65,7.39,7.39,0,0,0,5.76-2.14A13.19,13.19,0,0,0,64.76,295.58Z" transform="translate(-34.62 -269.48)"/>
<path class="a" d="M80.53,299l12.62-.79a9.65,9.65,0,0,0,1.67,4.68,7,7,0,0,0,5.86,2.61,6.46,6.46,0,0,0,4.38-1.33A4,4,0,0,0,106.6,301a3.93,3.93,0,0,0-1.47-3c-1-.88-3.24-1.71-6.79-2.49q-8.73-2-12.45-5.22A10.47,10.47,0,0,1,82.14,282a11.25,11.25,0,0,1,1.92-6.25,12.67,12.67,0,0,1,5.77-4.63q3.86-1.68,10.56-1.68,8.24,0,12.55,3.06t5.14,9.74l-12.51.73a5.84,5.84,0,0,0-6.5-5.54,5.36,5.36,0,0,0-3.49,1,3,3,0,0,0-1.17,2.39,2.38,2.38,0,0,0,1,1.85c.62.56,2.11,1.09,4.45,1.58q8.7,1.88,12.47,3.79a13.19,13.19,0,0,1,5.48,4.76,12.12,12.12,0,0,1,1.71,6.36,13.62,13.62,0,0,1-2.28,7.62,14.39,14.39,0,0,1-6.39,5.29,25.84,25.84,0,0,1-10.34,1.8q-11,0-15.18-4.22A16.64,16.64,0,0,1,80.53,299Z" transform="translate(-34.62 -269.48)"/>
<path class="a" d="M123.86,299l12.62-.79a9.65,9.65,0,0,0,1.67,4.68,7,7,0,0,0,5.86,2.61,6.46,6.46,0,0,0,4.38-1.33,4,4,0,0,0,1.54-3.09,3.93,3.93,0,0,0-1.47-3c-1-.88-3.24-1.71-6.79-2.49q-8.73-2-12.45-5.22a10.47,10.47,0,0,1-3.75-8.29,11.25,11.25,0,0,1,1.92-6.25,12.67,12.67,0,0,1,5.77-4.63q3.85-1.68,10.56-1.68,8.24,0,12.55,3.06t5.14,9.74L148.9,283a5.84,5.84,0,0,0-6.5-5.54,5.36,5.36,0,0,0-3.49,1,3,3,0,0,0-1.17,2.39,2.38,2.38,0,0,0,1,1.85c.62.56,2.11,1.09,4.45,1.58q8.7,1.88,12.47,3.79a13.19,13.19,0,0,1,5.48,4.76,12.12,12.12,0,0,1,1.71,6.36,13.55,13.55,0,0,1-2.29,7.62,14.31,14.31,0,0,1-6.38,5.29,25.84,25.84,0,0,1-10.34,1.8q-11,0-15.18-4.22A16.64,16.64,0,0,1,123.86,299Z" transform="translate(-34.62 -269.48)"/>
<path class="b" d="M34.62,319.21h12.6l4.54,24,6.64-24H71l6.66,24,4.55-24H94.71l-9.47,43h-13l-7.53-27-7.5,27h-13Z" transform="translate(-34.62 -269.48)"/>
<path class="b" d="M95.23,346.69A15.56,15.56,0,0,1,100,335q4.8-4.6,13-4.61,9.35,0,14.12,5.42a17,17,0,0,1-.93,22.51q-4.75,4.59-13.17,4.59-7.5,0-12.12-3.81A15.28,15.28,0,0,1,95.23,346.69Zm12,0q0,4.15,1.68,6.15a5.53,5.53,0,0,0,8.47,0q1.65-2,1.65-6.3c0-2.69-.55-4.7-1.67-6a5.19,5.19,0,0,0-4.13-2,5.41,5.41,0,0,0-4.31,2C107.75,341.89,107.19,343.92,107.19,346.66Z" transform="translate(-34.62 -269.48)"/>
<path class="b" d="M136.83,331H148v5.1a12.08,12.08,0,0,1,3.32-4.55,7,7,0,0,1,4.23-1.25,12.66,12.66,0,0,1,5.78,1.64l-3.7,8.5a9.27,9.27,0,0,0-3.34-.88,4.11,4.11,0,0,0-3.63,1.93q-1.84,2.73-1.84,10.2v10.43h-12Z" transform="translate(-34.62 -269.48)"/>
<path class="b" d="M165.34,319.21h12.19v22.17l8.9-10.34h14.68L190,341.94l11.81,20.22H188.32L182,349.68l-4.49,4.39v8.09H165.34Z" transform="translate(-34.62 -269.48)"/>
<path class="b" d="M203.25,353.51l11.84-1.11a5.79,5.79,0,0,0,2,3,6.13,6.13,0,0,0,3.51.91,5.9,5.9,0,0,0,3.72-1,2.27,2.27,0,0,0,1-1.9,2.18,2.18,0,0,0-1.35-2,24.64,24.64,0,0,0-5.13-1.23,53.77,53.77,0,0,1-8.62-2,9.11,9.11,0,0,1-4.08-3.12,8.1,8.1,0,0,1-1.65-5,8.2,8.2,0,0,1,1.78-5.3,10.71,10.71,0,0,1,4.93-3.32,26.19,26.19,0,0,1,8.41-1.1,28.87,28.87,0,0,1,8.21.85,10.77,10.77,0,0,1,4.43,2.64,13.78,13.78,0,0,1,2.94,4.83L224,339.77a3.87,3.87,0,0,0-1.46-2.19,6,6,0,0,0-3.4-.94,4.83,4.83,0,0,0-2.95.72,2.13,2.13,0,0,0-.92,1.74,1.85,1.85,0,0,0,1.17,1.72,19.26,19.26,0,0,0,5.1,1.06,34.5,34.5,0,0,1,8.85,1.87,9.81,9.81,0,0,1,4.44,3.42,8.49,8.49,0,0,1,1.54,4.89,9.65,9.65,0,0,1-1.63,5.24,10.91,10.91,0,0,1-5.13,4.05,24.49,24.49,0,0,1-9.53,1.51c-5.69,0-9.73-.81-12.15-2.43A10.93,10.93,0,0,1,203.25,353.51Z" transform="translate(-34.62 -269.48)"/><path class="b" d="M47.26,394.69a8.25,8.25,0,0,1,0-16.49" transform="translate(-34.62 -269.48)"/>
<path class="a" d="M47.33,378.16a8.25,8.25,0,0,1,0,16.49" transform="translate(-34.62 -269.48)"/></svg>