<svg xmlns="http://www.w3.org/2000/svg" xmlns:xlink="http://www.w3.org/1999/xlink" viewBox="0 0 737 1061.3"><defs><style>.a{font-size:100.05px;font-family:KorolevMilitaryStencil, Korolev Military Stencil;}.b{letter-spacing:-0.02em;}.c{letter-spacing:-0.02em;}.d,.e,.g,.h,.i,.j,.k,.s{fill:none;stroke-miterlimit:10;}.d,.g{stroke:#000;}.d,.e,.i{stroke-width:2px;}.e,.h,.k{stroke:#f25726;}.f,.q{fill:#868789;}.f{opacity:0.66;}.g,.h{stroke-width:4px;}.i,.j{stroke:#35363a;}.j,.k{stroke-width:3px;}.l{opacity:0.35;}.m{opacity:0.81;}.n{fill:#f25726;}.o{fill:#fff;}.p{fill:#464343;}.r{fill:#b0b2b3;}.s{stroke:#f9ab93;stroke-width:0.5px;}.t{fill:url(#a);}.u{fill:#ff7f18;}.v{fill:url(#b);}.w{fill:#31c5f0;}.x{fill:#2e001e;}.y{fill:#ff2bc2;}.z{fill:#00010d;}.aa{fill:#f2f2f2;}.ab{opacity:0.05;}.ac{opacity:0.15;}</style><radialGradient id="a" cx="500.73" cy="105.45" r="0.06" gradientTransform="translate(-271572.77 -54507.92) scale(545.67 528.31)" gradientUnits="userSpaceOnUse"><stop offset="0" stop-color="#423325" stop-opacity="0.98"/><stop offset="1" stop-color="#1c0a00"/></radialGradient><radialGradient id="b" cx="500.58" cy="105.45" r="0.06" gradientTransform="translate(-271572.77 -54507.92) scale(545.67 528.31)" gradientUnits="userSpaceOnUse"><stop offset="0" stop-color="#34364e" stop-opacity="0.98"/><stop offset="1" stop-color="#0c0824"/></radialGradient></defs><title>desing</title><text class="a" transform="translate(79.2 913.22)"><tspan class="b">W</tspan><tspan x="78.64" y="0">eb-design &amp; </tspan><tspan x="95.55" y="120.06">and mo</tspan><tspan class="c" x="398.4" y="120.06">r</tspan><tspan x="433.62" y="120.06">e</tspan></text><polyline class="d" points="303.31 0.87 1 174.62 1 291.77"/><polyline class="e" points="736 291.77 736 174.62 433.69 0.87"/><polyline class="d" points="433.69 770.52 736 596.76 736 496.7"/><polyline class="e" points="1 472.39 1 596.76 303.31 770.52"/><path class="f" d="M1607.45,890.41a1.24,1.24,0,1,1-1.24-1.18A1.2,1.2,0,0,1,1607.45,890.41Z" transform="translate(-1307.72 -865.56)"/><polyline class="g" points="330.99 139.23 151.09 241.61 151.09 310.63"/><polyline class="h" points="588.47 310.63 588.47 241.61 408.57 139.23"/><polyline class="g" points="408.57 592.72 588.47 490.34 588.47 431.38"/><polyline class="h" points="152.16 412.51 151.09 486.51 333.24 581.27"/><path class="f" d="M1565.48,886.5a1,1,0,0,1-1,1,1,1,0,1,1,0-2A1,1,0,0,1,1565.48,886.5Z" transform="translate(-1307.72 -865.56)"/><path class="i" d="M1723.41,1159.66" transform="translate(-1307.72 -865.56)"/><line class="j" x1="183.09" y1="260.61" x2="353.99" y2="338"/><line class="k" x1="376.08" y1="353.06" x2="376.08" y2="591.72"/><g class="l"><g class="m"><path class="n" d="M1816.54,1114.38H1533.83a7.14,7.14,0,0,0-7.12,7.13v188.41h297V1121.51A7.14,7.14,0,0,0,1816.54,1114.38Z" transform="translate(-1307.72 -865.56)"/><rect class="o" x="232.2" y="261.1" width="270.83" height="174.02"/><polygon class="p" points="547.77 461.94 186.67 461.94 168.85 455.4 565.59 455.4 547.77 461.94"/><path class="q" d="M1676.17,1121.74a1.26,1.26,0,1,1-1.26-1.27A1.26,1.26,0,0,1,1676.17,1121.74Z" transform="translate(-1307.72 -865.56)"/><rect class="r" x="334.95" y="444.32" width="64.29" height="6.53"/><path class="p" d="M1701.86,1309.89v2.37a3,3,0,0,1-3,3h-48.11a3,3,0,0,1-3-3v-2.37H1476.57V1321h396.74v-11.08Z" transform="translate(-1307.72 -865.56)"/></g><path class="s" d="M1782,1115.79" transform="translate(-1307.72 -865.56)"/><path class="t" d="M1648.56,1191.79h43.94v42.75h-43.94Z" transform="translate(-1307.72 -865.56)"/><path class="u" d="M1651.38,1191.37h41v39.87h-41Zm-1.87,41.73h44.72v-43.59h-44.72Zm29.29-28c0-.15,0-.23.22-.23H1682c.15,0,.22.06.22.23v14.7c0,.15,0,.22-.22.22h-2.89c-.19,0-.24-.09-.24-.24v-14.68Zm-.21-4.24a1.9,1.9,0,0,1,3.8,0,1.78,1.78,0,0,1-1.93,1.9A1.75,1.75,0,0,1,1678.59,1200.81Zm-8.38,10.36c-.52-2.07-1.75-6.57-2.22-8.75h0c-.4,2.17-1.38,5.86-2.16,8.75Zm-5.17,3-1.47,5.59c0,.15-.09.18-.28.18h-2.74c-.19,0-.22,0-.19-.27l5.3-18.52a5.89,5.89,0,0,0,.18-1.55c0-.13.06-.19.16-.19h3.91c.13,0,.19,0,.22.19l5.93,20.1c0,.15,0,.24-.15.24h-3.09c-.15,0-.24,0-.28-.17l-1.53-5.6Z" transform="translate(-1307.72 -865.56)"/><path class="v" d="M1568,1192.38h43.12v41.77H1568Z" transform="translate(-1307.72 -865.56)"/><path class="w" d="M1570.75,1191.78h40.17v38.92h-40.17Zm-1.89,40.8h44V1189.9h-44Zm29.7-25.6c-1.49,0-2,.76-2,1.39s.34,1.15,2.35,2.19c3,1.43,3.89,2.81,3.89,4.83,0,3-2.31,4.65-5.43,4.65a8.25,8.25,0,0,1-3.87-.8c-.14-.06-.15-.16-.15-.3v-2.79c0-.2.09-.25.22-.16a7.08,7.08,0,0,0,3.8,1.12c1.49,0,2.12-.63,2.12-1.47s-.44-1.28-2.35-2.28c-2.68-1.28-3.79-2.58-3.79-4.76,0-2.43,1.9-4.46,5.21-4.46a8.67,8.67,0,0,1,3.38.53.39.39,0,0,1,.19.38v2.59c0,.15-.09.24-.28.19a6.37,6.37,0,0,0-3.29-.85Zm-15.26,2.34a6.82,6.82,0,0,0,1.11,0c2.14,0,4.16-.74,4.16-3.66,0-2.32-1.45-3.49-3.88-3.49-.74,0-1.43,0-2,0l.63,7.07Zm-3.76-9.79c0-.14.24-.22.39-.22,1.13-.06,2.82-.09,4.57-.09,4.91,0,6.83,2.78,6.83,6.33,0,4.64-3.27,6.64-7.27,6.64-.68,0-.91,0-1.39,0v7c0,.15-.05.22-.21.22h-2.71c-.15,0-.21-.05-.21-.22v-19.65Z" transform="translate(-1307.72 -865.56)"/><path class="x" d="M1733.81,1192.13h45.92v43.17h-45.92Z" transform="translate(-1307.72 -865.56)"/><path class="y" d="M1734.7,1189.9v44H1781v-44Zm1.93,1.88H1779V1232h-42.41Z" transform="translate(-1307.72 -865.56)"/><path class="y" d="M1768.38,1209.91a2.56,2.56,0,0,0-1.08-.18c-2.35,0-3.91,1.8-3.91,4.8,0,3.43,1.6,4.81,3.69,4.81a3.7,3.7,0,0,0,1.28-.2v-9.23Zm-8.35,4.77c0-4.34,2.8-7.73,7.38-7.73a7.71,7.71,0,0,1,1,0v-4.85a.18.18,0,0,1,.19-.18h3c.15,0,.18,0,.18.14v17a12.32,12.32,0,0,0,.1,1.82c0,.13,0,.15-.11.21a11.21,11.21,0,0,1-4.77,1.08c-4,0-6.94-2.5-6.94-7.57Zm-6.35-3,5.22,10.12c.09.15,0,.3-.11.3h-3.25a.37.37,0,0,1-.39-.24c-1.19-2.46-2.4-5-3.65-7.66h0c-1.12,2.5-2.35,5.22-3.54,7.68a.34.34,0,0,1-.33.2h-3.1c-.18,0-.2-.15-.11-.26l5.11-9.82-4.94-9.76a.17.17,0,0,1,.13-.28h3.2c.19,0,.28,0,.34.2,1.17,2.48,2.37,4.92,3.48,7.42h0c1.08-2.46,2.27-4.94,3.41-7.38.09-.15.15-.24.34-.24h3c.15,0,.2.11.11.28l-4.92,9.44Z" transform="translate(-1307.72 -865.56)"/><polygon class="z" points="440.46 389.81 440.46 389.81 457.64 394.45 451.96 397.2 451.64 403.66 440.46 389.81"/><polygon class="aa" points="457.64 394.45 451.96 397.2 451.64 403.66 457.64 394.45"/><g class="ab"><polygon class="z" points="454.61 399.04 454.61 399.04 471.79 403.68 466.11 406.43 465.79 412.89 454.61 399.04"/><polygon class="aa" points="471.79 403.68 466.11 406.43 465.79 412.89 471.79 403.68"/></g><g class="ac"><polygon class="z" points="447.08 394.45 447.08 394.45 464.26 399.08 458.58 401.83 458.26 408.29 447.08 394.45"/><polygon class="aa" points="464.26 399.08 458.58 401.83 458.26 408.29 464.26 399.08"/></g></g></svg>