<svg xmlns="http://www.w3.org/2000/svg" viewBox="0 0 81.17 92.26"><defs><style>.a{fill:#82bfbf;}.b{fill:#1d1d1b;}.c{fill:#78acd9;}.d{fill:#b5d5ed;}.e{fill:#84b5b6;}.f{fill:#5b7e7e;}.g{fill:#415e80;}</style></defs><title>Untitled-3</title><path class="a" d="M265.83,466.32h-.75v-6.23q0-4.43-3-4.42a4,4,0,0,0-1.48.28,5.18,5.18,0,0,0-1.35.77,5.49,5.49,0,0,0-1.08,1.17,5.05,5.05,0,0,0-.68,1.45v7h-.75V450.65h.75V458a5.53,5.53,0,0,1,.87-1.22,6.21,6.21,0,0,1,1.13-.93,5,5,0,0,1,1.3-.6,4.53,4.53,0,0,1,1.42-.22,3.1,3.1,0,0,1,2.76,1.31,6.71,6.71,0,0,1,.88,3.72Z" transform="translate(-256.72 -374.27)"/><path class="b" d="M274,466.53a5.06,5.06,0,0,1-2.17-.46,5.58,5.58,0,0,1-2.93-3.08,6,6,0,0,1,0-4.44,6,6,0,0,1,1.18-1.85,5.67,5.67,0,0,1,1.76-1.26A5.19,5.19,0,0,1,274,455a5.3,5.3,0,0,1,2.16.46,5.56,5.56,0,0,1,1.76,1.26,5.85,5.85,0,0,1,1.18,1.85,5.92,5.92,0,0,1-1.18,6.28,5.66,5.66,0,0,1-1.76,1.24A5.14,5.14,0,0,1,274,466.53Zm-4.77-5.73a5.1,5.1,0,0,0,.38,1.95,5.18,5.18,0,0,0,1,1.61,4.83,4.83,0,0,0,1.51,1.09,4.49,4.49,0,0,0,1.85.4,4.33,4.33,0,0,0,1.84-.41,4.9,4.9,0,0,0,1.52-1.1,5.42,5.42,0,0,0,1-1.62,5.27,5.27,0,0,0,0-3.93,5.42,5.42,0,0,0-1-1.62,4.94,4.94,0,0,0-1.51-1.09,4.29,4.29,0,0,0-3.66,0,4.85,4.85,0,0,0-1.51,1.1,5.33,5.33,0,0,0-1,1.64A5.07,5.07,0,0,0,269.2,460.8Z" transform="translate(-256.72 -374.27)"/><path class="b" d="M282.35,450.65h.73v13.76a1.27,1.27,0,0,0,.39,1,1.46,1.46,0,0,0,1,.37,4.84,4.84,0,0,0,.59-.05,3,3,0,0,0,.62-.17l.18.61a7,7,0,0,1-.83.19,4.71,4.71,0,0,1-.85.08,1.83,1.83,0,0,1-1.35-.5,1.8,1.8,0,0,1-.52-1.36Z" transform="translate(-256.72 -374.27)"/><path class="b" d="M287.44,452.45v-1.8h.75v1.8Zm0,13.87V455.15h.75v11.17Z" transform="translate(-256.72 -374.27)"/><path class="b" d="M296.47,466.53a5,5,0,0,1-2.21-.49,5.67,5.67,0,0,1-1.75-1.3,5.92,5.92,0,0,1-1.56-4,6.1,6.1,0,0,1,.4-2.21,5.82,5.82,0,0,1,1.1-1.85,5.23,5.23,0,0,1,1.68-1.26,4.91,4.91,0,0,1,3.57-.26,4.86,4.86,0,0,1,1.26.59,6.22,6.22,0,0,1,1.05.87,7.12,7.12,0,0,1,.82,1v-7h.75v14.51c0,.31.14.47.4.47v.69l-.2,0a.85.85,0,0,1-.64-.29.93.93,0,0,1-.26-.63V464a5.48,5.48,0,0,1-.85,1,5.79,5.79,0,0,1-1.07.79,5.69,5.69,0,0,1-1.22.5A4.64,4.64,0,0,1,296.47,466.53Zm.08-.68a4.13,4.13,0,0,0,1.37-.26,5.65,5.65,0,0,0,1.36-.7,4.52,4.52,0,0,0,1.06-1,2.54,2.54,0,0,0,.49-1.23v-3.85a3.91,3.91,0,0,0-.73-1.21,5.4,5.4,0,0,0-1.09-1,5.13,5.13,0,0,0-1.3-.66,3.87,3.87,0,0,0-1.35-.25,4.18,4.18,0,0,0-1.92.44,4.53,4.53,0,0,0-1.47,1.16,5.18,5.18,0,0,0-.94,1.63,5.52,5.52,0,0,0-.33,1.88,5,5,0,0,0,.38,1.92,5.12,5.12,0,0,0,2.58,2.73A4.32,4.32,0,0,0,296.55,465.85Z" transform="translate(-256.72 -374.27)"/><path class="b" d="M308,466.53a4,4,0,0,1-1.48-.27,3.6,3.6,0,0,1-1.19-.73,3.17,3.17,0,0,1-.8-1.08,3.23,3.23,0,0,1-.28-1.35,2.44,2.44,0,0,1,.35-1.3,3.38,3.38,0,0,1,1-1,4.92,4.92,0,0,1,1.5-.67,7.74,7.74,0,0,1,1.93-.23,13,13,0,0,1,1.94.15,8.47,8.47,0,0,1,1.77.45v-1.2a3.68,3.68,0,0,0-1-2.68,3.57,3.57,0,0,0-2.64-1,5,5,0,0,0-1.78.35,9.31,9.31,0,0,0-1.9,1l-.36-.54A7.66,7.66,0,0,1,309.1,455a4,4,0,0,1,4.33,4.34v5.84c0,.31.13.47.39.47v.69l-.17,0a.89.89,0,0,1-.65-.27.86.86,0,0,1-.28-.65v-1a4.92,4.92,0,0,1-2,1.55A6.68,6.68,0,0,1,308,466.53Zm.11-.62a6.31,6.31,0,0,0,2.53-.5,3.88,3.88,0,0,0,1.72-1.37,1.39,1.39,0,0,0,.36-.86v-2.1a10.28,10.28,0,0,0-3.66-.64,5.46,5.46,0,0,0-2.95.71,2.2,2.2,0,0,0-1.11,1.93,2.57,2.57,0,0,0,.24,1.11,2.87,2.87,0,0,0,1.63,1.5A3.37,3.37,0,0,0,308.07,465.91Z" transform="translate(-256.72 -374.27)"/><path class="c" d="M315.81,465.72l8.45-9.94h-8.32v-.63h9.2v.61l-8.43,9.93h8.36v.63h-9.26Z" transform="translate(-256.72 -374.27)"/><path class="b" d="M332.4,466.53a5.21,5.21,0,0,1-2.19-.46,5.59,5.59,0,0,1-1.77-1.27,5.64,5.64,0,0,1-1.19-1.86,6.18,6.18,0,0,1,0-4.48,5.65,5.65,0,0,1,2.92-3,5.16,5.16,0,0,1,2.16-.45,5.32,5.32,0,0,1,2.18.45,5.55,5.55,0,0,1,1.77,1.24,6,6,0,0,1,1.19,1.83,5.85,5.85,0,0,1,.44,2.24,1.39,1.39,0,0,1,0,.17,1.14,1.14,0,0,0,0,.15H327.59a5.13,5.13,0,0,0,.48,1.92,5.31,5.31,0,0,0,1.07,1.53,5.06,5.06,0,0,0,1.49,1,4.36,4.36,0,0,0,1.79.38,4.69,4.69,0,0,0,1.24-.16,4.78,4.78,0,0,0,1.14-.46,4.13,4.13,0,0,0,.93-.72,4.29,4.29,0,0,0,.64-.91l.68.17a3.52,3.52,0,0,1-.72,1.08,4.6,4.6,0,0,1-1.09.86,5.92,5.92,0,0,1-1.34.56A5.83,5.83,0,0,1,332.4,466.53Zm4.74-6.09a5.75,5.75,0,0,0-.46-1.94,5.28,5.28,0,0,0-1.05-1.52,4.82,4.82,0,0,0-1.49-1,4.71,4.71,0,0,0-1.81-.35,4.53,4.53,0,0,0-1.81.36,4.86,4.86,0,0,0-1.48,1,5,5,0,0,0-1,1.52,5.51,5.51,0,0,0-.45,1.92Z" transform="translate(-256.72 -374.27)"/><circle class="d" cx="31.37" cy="43.6" r="5.4"/><circle class="e" cx="47.92" cy="4.84" r="4.84"/><circle class="f" cx="26.37" cy="21.52" r="4.07"/><circle class="g" cx="56.87" cy="36.76" r="6.08"/></svg>