<svg xmlns="http://www.w3.org/2000/svg" viewBox="0 0 298.62 293.53"><defs><style>.a{fill:#fff;}.b,.c,.e,.f{fill:none;stroke-miterlimit:10;}.b,.c{stroke:#231f20;}.b,.f{stroke-width:2px;}.c{stroke-width:4.54px;}.d{fill:#3d7ea8;}.e,.f{stroke:#022638;}.e{stroke-width:3px;}</style></defs><title>logo</title><path class="a" d="M349.91,287.64,225.79,349.88a25.14,25.14,0,0,1-22.58,0L79.09,287.64a25.19,25.19,0,0,1-13.9-22.52V146.46a25.2,25.2,0,0,1,13.9-22.52L203.21,61.7a25.2,25.2,0,0,1,22.58,0l124.12,62.24a25.2,25.2,0,0,1,13.9,22.52V265.12A25.19,25.19,0,0,1,349.91,287.64Z" transform="translate(-65.19 -59.03)"/><path class="b" d="M186.17,182.66c-15,.53-29.84.67-45.29.63" transform="translate(-65.19 -59.03)"/><polyline class="b" points="114.86 123.74 85.84 149.74 50.42 150.21"/><path class="b" d="M129.45,183.44c.05,2.75,2.64,4.94,5.8,4.89s5.68-2.3,5.63-5-2.64-4.93-5.8-4.89S129.4,180.7,129.45,183.44Z" transform="translate(-65.19 -59.03)"/><path class="b" d="M104.18,209.39c0,2.74,2.64,4.93,5.8,4.89s5.68-2.3,5.63-5.05-2.65-4.93-5.81-4.89S104.13,206.64,104.18,209.39Z" transform="translate(-65.19 -59.03)"/><path class="b" d="M188.81,202.72q-3.9-3.22-7.83-6.42a8.46,8.46,0,0,0-5.51-2.43c-20.28.69-39.64.59-60.12.17" transform="translate(-65.19 -59.03)"/><polyline class="b" points="89.33 135.21 59.68 160.67 24.26 160.48"/><path class="b" d="M103.91,194c0,2.74,2.53,5,5.69,5s5.73-2.2,5.75-4.94-2.53-5-5.68-5S103.93,191.24,103.91,194Z" transform="translate(-65.19 -59.03)"/><path class="b" d="M78,219.45c0,2.75,2.52,5,5.68,5s5.73-2.19,5.75-4.94-2.53-5-5.68-5S78,216.71,78,219.45Z" transform="translate(-65.19 -59.03)"/><path class="b" d="M184.91,220.08l-32,.49" transform="translate(-65.19 -59.03)"/><path class="b" d="M142.13,220.73c.06,2.74,2.66,4.93,5.82,4.88s5.67-2.31,5.62-5.05-2.66-4.93-5.82-4.88S142.08,218,142.13,220.73Z" transform="translate(-65.19 -59.03)"/><path class="b" d="M243.15,230.45c1.68,1.37,3.37,2.72,5.06,4.08a8.48,8.48,0,0,0,5.53,2.4c20.28-.82,39.63-.84,60.11-.54" transform="translate(-65.19 -59.03)"/><path class="c" d="M240.32,228.16l2.83,2.29" transform="translate(-65.19 -59.03)"/><path class="b" d="M325.29,236.38c0-2.74-2.56-5-5.72-5s-5.72,2.23-5.72,5,2.57,5,5.73,5S325.29,239.13,325.29,236.38Z" transform="translate(-65.19 -59.03)"/><path class="b" d="M351,210.75c0-2.74-2.56-5-5.72-5s-5.71,2.23-5.71,5,2.57,5,5.72,5S351,213.5,351,210.75Z" transform="translate(-65.19 -59.03)"/><polyline class="b" points="209.49 177.4 238.94 151.77 274.36 151.74"/><path class="b" d="M243.15,245.89c13.23-.08,26.35.11,40,.45" transform="translate(-65.19 -59.03)"/><polyline class="b" points="178.75 186.94 208.55 161.62 243.97 161.95"/><path class="b" d="M294.55,246.45c0-2.75-2.5-5-5.66-5s-5.74,2.17-5.78,4.91,2.5,5,5.66,5S294.52,249.19,294.55,246.45Z" transform="translate(-65.19 -59.03)"/><path class="b" d="M320.59,221.09c0-2.75-2.5-5-5.65-5s-5.75,2.16-5.78,4.91,2.5,5,5.65,5S320.56,223.83,320.59,221.09Z" transform="translate(-65.19 -59.03)"/><rect class="a" x="135" y="94.75" width="38.71" height="153.17"/><path class="d" d="M128.15,93.26h30.92a5.25,5.25,0,0,1,5.25,5.25V244.82a5.25,5.25,0,0,1-5.25,5.25H125.84a2.94,2.94,0,0,1-2.94-2.94V98.51A5.25,5.25,0,0,1,128.15,93.26Z"/><path class="e" d="M131.39,93.26h44.8a0,0,0,0,1,0,0V239.8a10.27,10.27,0,0,1-10.27,10.27H121.12a0,0,0,0,1,0,0V103.53A10.27,10.27,0,0,1,131.39,93.26Z"/><ellipse class="f" cx="148.66" cy="58.55" rx="29.38" ry="25.62"/><ellipse class="d" cx="148.66" cy="58.55" rx="25.75" ry="22.37"/></svg>