<svg xmlns="http://www.w3.org/2000/svg" xmlns:xlink="http://www.w3.org/1999/xlink" viewBox="0 0 450 450">
  <defs>
    <style>
      .cls-1 {
        clip-path: url(#clip-Custom_Size_1);
      }

      .cls-2 {
        fill: none;
        stroke: #000;
        stroke-miterlimit: 10;
      }

      .cls-3 {
        fill: #fff;
      }
    </style>
    <clipPath id="clip-Custom_Size_1">
      <rect width="450" height="450"/>
    </clipPath>
  </defs>
  <g id="Custom_Size_1" data-name="Custom Size – 1" class="cls-1">
    <rect class="cls-3" width="450" height="450"/>
    <g id="Group_1" data-name="Group 1" transform="translate(-0.501 -0.572)">
      <path id="Path_1" data-name="Path 1" class="cls-2" d="M453.03,1063.49l.282,63.806-223.8,113.247L4.719,1128.791l-.334-75.775" transform="translate(-2.811 -789.971)"/>
      <path id="Path_2" data-name="Path 2" class="cls-2" d="M.8,182.241.5,113.824,224.311.572l224.8,111.757.309,69.912" transform="translate(0)"/>
      <path id="Path_3" data-name="Path 3" class="cls-2" d="M471.665,365.461V152.7L260.63,46.323,49.6,152.7V365.461L260.63,471.84Z" transform="translate(-35.533 -34.341)"/>
      <path id="Path_4" data-name="Path 4" class="cls-2" d="M283.356,217.286,127.6,293.985v50.923" transform="translate(-91.988 -162.667)"/>
      <path id="Path_5" data-name="Path 5" class="cls-2" d="M1089.463,344.908V293.985l-155.76-76.7" transform="translate(-675.43 -162.667)"/>
      <path id="Path_6" data-name="Path 6" class="cls-2" d="M933.7,1215.859l155.76-76.7v-44.144" transform="translate(-675.43 -821.497)"/>
      <path id="Path_7" data-name="Path 7" class="cls-2" d="M127.6,1053.016v54.619l155.761,76.7" transform="translate(-91.988 -789.971)"/>
    </g>
  </g>
</svg>
