<svg xmlns="http://www.w3.org/2000/svg" xmlns:xlink="http://www.w3.org/1999/xlink" viewBox="0 0 189.26 131.85"><defs><style>.a{opacity:0.63;}.b{fill:#fbc83b;}.c,.d,.e,.f,.g,.h,.i,.j,.k,.l,.m,.n{opacity:0.11;}.c{fill:url(#a);}.d{fill:url(#b);}.e{fill:url(#c);}.f{fill:url(#d);}.g{fill:url(#e);}.h{fill:url(#f);}.i{fill:url(#g);}.j{fill:url(#h);}.k{fill:url(#i);}.l{fill:url(#j);}.m{fill:url(#k);}.n{fill:url(#l);}.o{fill:#fff;}.p{fill:#2385c6;}.q{fill:none;}.r{fill:#4993cb;fill-rule:evenodd;}.s{fill:#fafbff;}</style><linearGradient id="a" x1="588.09" y1="498.95" x2="684.08" y2="498.95" gradientUnits="userSpaceOnUse"><stop offset="0" stop-color="#ff7300"/><stop offset="0.18" stop-color="#f97c01"/><stop offset="0.47" stop-color="#ea9602"/><stop offset="0.55" stop-color="#e59e03"/><stop offset="0.87" stop-color="#e5c500"/><stop offset="0.99" stop-color="#bf6f00"/></linearGradient><linearGradient id="b" x1="592.81" y1="505.32" x2="688.51" y2="505.32" xlink:href="#a"/><linearGradient id="c" x1="587.67" y1="496.68" x2="682.47" y2="496.68" xlink:href="#a"/><linearGradient id="d" x1="590.69" y1="508.81" x2="686.98" y2="508.81" xlink:href="#a"/><linearGradient id="e" x1="589.8" y1="501.72" x2="685.83" y2="501.72" xlink:href="#a"/><linearGradient id="f" x1="592.64" y1="514.14" x2="687.65" y2="514.14" xlink:href="#a"/><linearGradient id="g" x1="590.61" y1="511.54" x2="685.83" y2="511.54" xlink:href="#a"/><linearGradient id="h" x1="591.89" y1="499.39" x2="686.39" y2="499.39" xlink:href="#a"/><linearGradient id="i" x1="593.16" y1="512.74" x2="689.03" y2="512.74" xlink:href="#a"/><linearGradient id="j" x1="589.5" y1="505.39" x2="685.87" y2="505.39" xlink:href="#a"/><linearGradient id="k" x1="593.69" y1="509.4" x2="689.65" y2="509.4" xlink:href="#a"/><linearGradient id="l" x1="590.57" y1="497.15" x2="684.82" y2="497.15" xlink:href="#a"/></defs><title>Custom Size – 1@2x 2</title><g class="a"><circle class="b" cx="50.61" cy="76.01" r="47.52"/><path class="c" d="M663.44,470.58a20.49,20.49,0,0,1,7.46,5.49,21.67,21.67,0,0,1,5.91,6.83c6.81,11.75,6.91,23.63,1.11,38.25l2.58-5.38-4.87,9.51,3-5.26L673,529.13l3.58-5.09-6.74,8.73,5.19-6L666.25,536l5.83-5.71-9.53,8.43,6.46-5.26L660,540l5.67-3.76-11.21,6.66,7.69-4.19-10.32,4.81,6.61-2.79-12.66,4.59,8.79-2.81-13.28,3.33,9.3-2-13.8,2.14,9.66-1.07-14.19.7,10-.12-14.48-.66,10.14,1-14.57-2.26,10.26,2.09L619,541.77l10.1,3.29-14.28-5.53,9.91,4.52-13.85-7.16,9.48,5.8-13.23-8.91,8.72,7-12-10.46,7.93,8.17L601,526.62l6.8,9.16-9.19-13.12,4.54,8-7-13.17,3.92,9.55-5.3-13.93,1,3.43c-2.55-10.3-3.55-20.72.17-30.54a55.63,55.63,0,0,1,4.11-8.56,43.72,43.72,0,0,1,19.56-17.18,45.83,45.83,0,0,1,34.25-1.15,52,52,0,0,1,12.62,7.27c1,.75-1.33-2.7-.94-2.16q-1.29-1.78-2.64-3.53a9.29,9.29,0,0,0-1.52-1.73,29.13,29.13,0,0,0-7.08-3.59,41.13,41.13,0,0,0-7.62-2.48,60.55,60.55,0,0,0-10.57-1.18,47.9,47.9,0,0,0-18.53,3.72,44,44,0,0,0-14.08,8.92,47.11,47.11,0,0,0-5.83,6.23l-3.07,5a45.29,45.29,0,0,0-5.88,16.27l-.61,5.69.27,5.46a45,45,0,0,0,4,15.13,48.16,48.16,0,0,0,5.54,9.08,52.68,52.68,0,0,0,18.51,14.66,86.4,86.4,0,0,0,13.54,4,20.29,20.29,0,0,0,3.3.34c2.31,0,4.61,0,6.92-.06a25.49,25.49,0,0,0,6.65-.53c4.65-1.32,9.48-2.63,13.69-5a54.33,54.33,0,0,0,8.83-6.63,38.36,38.36,0,0,0,6-6.8,48.18,48.18,0,0,0,8.64-26.7,43.25,43.25,0,0,0-7.17-24.13,44.85,44.85,0,0,0-7.8-9.15,52.32,52.32,0,0,0-8-5.69,1.16,1.16,0,0,0,0,1c.25,1.22.54,2.43.86,3.63C662.11,466.94,662.47,470,663.44,470.58Z" transform="translate(-587.67 -429.41)"/><path class="d" d="M664.75,474.05a38.68,38.68,0,0,1,11.14,9.13l-.23-.32,2.86,4.08-.22-.33a44.52,44.52,0,0,1,5,12.47,40.19,40.19,0,0,1,.49,13.44,43.26,43.26,0,0,1-3.9,13.21l-2.31,4.2-2.79,3.94-59.62-65.81-5.25,3.43,9.32-5.76-2.85,1.53,7.06-3.4-3,1.2,7.4-2.62-3.15.86,42.91,7.22c.41.25.5.17.25-.25a18.27,18.27,0,0,0-2.11-2.46q-2.13-2.28-4.32-4.5A19.12,19.12,0,0,0,659,461.1c-1.74-.65-3.51-1.44-5.29-1.94a48.59,48.59,0,0,0-9.93-1.72A48,48,0,1,0,664.4,547a48.54,48.54,0,0,0,23.71-35.22,49.29,49.29,0,0,0-3.33-24.87,47.46,47.46,0,0,0-6.56-11.22,57.34,57.34,0,0,0-6.72-7.46,36.17,36.17,0,0,0-3.76-3.23,33,33,0,0,0-6.09-4.17,2.22,2.22,0,0,0,0,1.46c.34,1.76.73,3.51,1.15,5.26s.83,3.49,1.3,5.22A2.2,2.2,0,0,0,664.75,474.05Z" transform="translate(-587.67 -429.41)"/><path class="e" d="M663.74,469.94c4.3,2.33,7.62,4.37,10.65,8.32C684.89,492,684,514,670.88,527c-6.49,6.43-14.82,11.55-24,12.94l-7.61.72q-18.69.06-34.16-12.59l6.4,4.44-10.84-9.18,7.21,6.73-9.49-10.64,6.29,7.91-8.21-12,4.83,8.81-6.29-13,3.36,9.68-4.72-15,1.11,5.95-1.2-19.59a38.66,38.66,0,0,1,1.57-6.81,56.93,56.93,0,0,1,5.06-11.24l-.18.3,3.11-4.28-.21.28C613.86,458,627.88,452,643.58,454a42,42,0,0,1,11.55,3.05,58.31,58.31,0,0,1,12.37,7.73c.74.58-.42-1.74-.23-1.41-.55-1-1.22-2.54-2.18-3.21a46.33,46.33,0,0,0-8.88-5.54,44.12,44.12,0,0,0-10-3.58,49.23,49.23,0,0,0-21.37-.39,42.25,42.25,0,0,0-10.82,3.55,48.15,48.15,0,0,0-12,8,22.23,22.23,0,0,0-5.94,6.91,69,69,0,0,0-6,10.63,71.9,71.9,0,0,0-2.45,12,70.94,70.94,0,0,0,1,11.73,43,43,0,0,0,6.48,14.29,37.75,37.75,0,0,0,6.57,7.42L599.68,523c2.82,4,5.64,7.66,9.55,10.68a47.44,47.44,0,0,0,10.08,6.08,45.61,45.61,0,0,0,24.51,3.49c13.84-1.94,26.83-10.49,33.26-23A48.4,48.4,0,0,0,682.44,500a40.5,40.5,0,0,0-3.61-18.18,34.65,34.65,0,0,0-5.11-8.19l-3.23-3.5A35.54,35.54,0,0,0,663,465c-.68-.4-.25,1.31-.24,1.37.15.8.33,1.6.53,2.4A3.07,3.07,0,0,0,663.74,469.94Z" transform="translate(-587.67 -429.41)"/><path class="f" d="M663.2,475.71a34.48,34.48,0,0,1,8,5.75l-.31-.3,3.47,3.76-.29-.32a37.81,37.81,0,0,1,7.52,16.22,43.16,43.16,0,0,1,.46,13.37c-1.28,11.69-8.08,22.68-17.48,29.58a45.45,45.45,0,0,1-46.28,4.12,41.78,41.78,0,0,1-8.24-5.2l-3.72-3.23,6.56-69.14-6.21,4.08,10.22-6.46-6.68,3.52L621.07,466,614,468.86l11.41-4.34L618,466.71l11.85-3.24-7.67,1.45,12.21-2-7.91.69,12.45-.84-8-.12,12.58.46-8.09-.95L648,463.85l-8-1.8,12.48,3.07-7.91-2.66,12.26,4.37-7.61-3.51,11.85,5.74-7.31-4.39,11.29,7.05c.25.16,1,.78,1.32.64.18-.07-1.76-1.76-1.83-1.82-1.53-1.24-3.09-2.44-4.66-3.63-1.14-.87-2.64-2.39-4-2.85a56.07,56.07,0,0,0-11.74-2.87,50.91,50.91,0,0,0-11.77,0,47.57,47.57,0,0,0-21.27,8.22,48.14,48.14,0,0,0,31.37,87.18,49.32,49.32,0,0,0,10.6-2,48.07,48.07,0,0,0,21.82-14.11,50,50,0,0,0,11.42-24.08,49.08,49.08,0,0,0-2.59-25.25,48.12,48.12,0,0,0-6-11.05,62.24,62.24,0,0,0-8-9.36,71.85,71.85,0,0,0-11.9-8.91,2.52,2.52,0,0,0,.29,1.56q1,2.77,2,5.5t2.19,5.45A2.46,2.46,0,0,0,663.2,475.71Z" transform="translate(-587.67 -429.41)"/><path class="g" d="M663.77,471.62a34.13,34.13,0,0,1,7.94,5.65l-.24-.25,3.41,3.69-.24-.25c2.66,3.77,5.09,7.48,6.44,12,5.18,17.16.1,34.26-17.39,48l6.14-4.06-10.15,6.42,6.61-3.51-10.75,5.43,7-2.87-11.32,4.34,7.34-2.23-11.75,3.27,7.59-1.5-12.12,2.07,7.85-.77-12.38.91,7.95,0-12.53-.37,8.06.84-12.57-1.62,8,1.69-12.46-3,7.92,2.54-12.27-4.26,7.65,3.4-11.88-5.63,7.37,4.27-11.34-6.93,7,5.12-10.73-8.23,6.33,5.9-9.68-9.37,5.7,6.67-8.56-10.38,4.89,7.3-9.78-16.42,2.48,6.24-3.9-10.64,1,3.33-1.93-7.79.56,3.4,5.65-34.7,2.8-4a42.92,42.92,0,0,1,25.46-16,45.29,45.29,0,0,1,18.37-.25,44.84,44.84,0,0,1,9,2.73A53.66,53.66,0,0,1,666.64,468c1.17.84-1.89-3.12-1.4-2.51-1.14-1.41-2.31-2.8-3.49-4.18a14.07,14.07,0,0,0-2-2.06,28.43,28.43,0,0,0-7.31-3.07,28.81,28.81,0,0,0-5.16-1.35,51.51,51.51,0,0,0-7.85-1,47.57,47.57,0,0,0-37.62,16.09c-11.87,13.39-15.6,33.47-8.38,50a49.3,49.3,0,0,0,34.37,28.59,48.07,48.07,0,0,0,42.94-11.67,46.9,46.9,0,0,0,4.89-63.6,44.55,44.55,0,0,0-3.3-3.84,62.17,62.17,0,0,0-11.51-9,1.69,1.69,0,0,0,0,1.25c.32,1.5.68,3,1.07,4.47s.78,3,1.22,4.42A1.69,1.69,0,0,0,663.77,471.62Z" transform="translate(-587.67 -429.41)"/><path class="h" d="M663.32,480.5l4.33,2.66-.34-.21,3.72,3.12q6.87,6.07,7.13,15.95a20.39,20.39,0,0,1,3.8,14.72,31.47,31.47,0,0,1-1,6.68,52.6,52.6,0,0,1-3.11,8.72c-2.14,4.66-5.27,8.33-8.6,12.16l.23-.26-3.83,3.57.26-.22c-6.47,4.61-12.1,7.42-19.42,8.81a44.5,44.5,0,0,1-34.2-7.23l-3.84-3-9.11-11.05a32.59,32.59,0,0,1-3-6.44q-4.89-11.31,3.8-23.6-2.94-16.15,7.91-24.5l3.24-2.64,25.58-8a52.45,52.45,0,0,1,21.89,5.06,65,65,0,0,0,6.84,2.37c.16,0,1.78.41,1-.14a54.46,54.46,0,0,0-10.08-6.08,48.21,48.21,0,0,0-10.95-3.31,46.61,46.61,0,0,0-22.44,1.95c-11.45,3.72-20.81,12.7-25.89,23.45a47.86,47.86,0,0,0,2.89,46.34,49,49,0,0,0,62,17.07,46.28,46.28,0,0,0,14.24-10.57,53.28,53.28,0,0,0,5.12-7.78,49,49,0,0,0,4-8,55.15,55.15,0,0,0,2.09-11.76,48.91,48.91,0,0,0-.65-8.46,26.79,26.79,0,0,0-1.88-7.91,53.23,53.23,0,0,0-3.07-7.06,54.5,54.5,0,0,0-8.52-11.93,82.67,82.67,0,0,0-8.9-8.25,78.93,78.93,0,0,0-8.56-5.81,2.24,2.24,0,0,0,.51,1.38q1.35,2.34,2.8,4.64t2.93,4.55A2.17,2.17,0,0,0,663.32,480.5Z" transform="translate(-587.67 -429.41)"/><path class="i" d="M662.52,477.67l4.32,2.66-.32-.26a37.08,37.08,0,0,1,6.9,6.58Q685.74,502.4,679,525a47.76,47.76,0,0,1-6.84,12.31,43.87,43.87,0,0,1-25.41,15.87A45.38,45.38,0,0,1,617,549.54a48.16,48.16,0,0,1-12-8.66,38.81,38.81,0,0,1-6-7.56q-14.72-27.83,3.28-52.05L599,485.53l6.62-7.89-3.78,4,7.38-7.2L605,478.15l7.94-6.43-5.82,4.22,9.85-6.49-6.32,3.81,10.47-5.64-6.79,3.29,9.65-4L618.19,469l11.64-3.71-7.66,2.11,10.51-2.24-6.41,1.11,12.55-1.55-8.36.71,11.1-.25-6.87-.12,13.1.89L639,465l13.21,2.28-8.93-1.85L656.49,469l-8.85-2.84,13,5.1-8.76-3.84a105.41,105.41,0,0,0,13.58,6.87c.43.12.49,0,.17-.3l-.78-.6c-1.39-.87-2.79-1.72-4.21-2.53a52.3,52.3,0,0,0-7.46-3.88,41.59,41.59,0,0,0-9.46-2.22,30.89,30.89,0,0,0-5-.64c-2.77.13-5.54.3-8.31.49a30.91,30.91,0,0,0-4.64,1.08,40.8,40.8,0,0,0-6.4,2,52,52,0,0,0-6.84,3.53,47.25,47.25,0,0,0-19.17,23.55,47.78,47.78,0,0,0,37.76,63.58,50.8,50.8,0,0,0,19.15-.72,51.63,51.63,0,0,0,9.91-3.68,46.47,46.47,0,0,0,9.48-6.32,51.42,51.42,0,0,0,7.52-8.31,57.78,57.78,0,0,0,5.33-10.27c4.77-11.35,4.11-24.58-.62-35.83a54.13,54.13,0,0,0-10.4-15.75,50.09,50.09,0,0,0-7.08-6.6,69.51,69.51,0,0,0-8.52-5.86,2.36,2.36,0,0,0,.43,1.46c.81,1.7,1.65,3.37,2.53,5s1.75,3.33,2.67,5A2.3,2.3,0,0,0,662.52,477.67Z" transform="translate(-587.67 -429.41)"/><path class="j" d="M665.11,470.34A37.59,37.59,0,0,1,676,479.65a36.09,36.09,0,0,1,4.73,7.8,36.75,36.75,0,0,1,2.64,8.58q3,21.88-12.17,37.53l3.72-3.73-7.3,6.91,4.07-3.46-7.82,6.14,4.42-3.14-8.46,5.38,6.07-3.48-10.21,5.28,6.48-3-9.41,3.78,5.5-1.93L647,545.74l7.26-1.89-10.2,2,6.07-1L638,546.26l7.89-.58-10.73.12,6.48.17-12.6-1,8.3.94-11-2,6.69,1.47L620.4,541.9l8.39,2.69-12.54-5,8.34,3.62L612.36,537l8.11,4.66-11.81-7.79,7.66,5.61-10.92-9.11,7.18,6.58-10-10.28,6.45,7.49-8.79-11.46,5.68,8.38-7.61-12.5,4.63,9.1-6.09-13.41,3.55,9.81-4.61-14.21,1.85,8.1-2.43-12.6.81,8.42-1-14-.08,6.37.54-10.94-.4,3.27c2.46-14.64,8.33-26.64,20.22-34.41a44.89,44.89,0,0,1,17.24-6.67,45.53,45.53,0,0,1,18.52.78,43.09,43.09,0,0,1,8.94,3.32,40.15,40.15,0,0,1,8.28,5.35c1,.75-1.14-2.73-.81-2.21-.78-1.24-1.59-2.47-2.41-3.69a9.63,9.63,0,0,0-1.41-1.82,27.05,27.05,0,0,0-7.24-3.69,44.57,44.57,0,0,0-7.83-2.49,49.37,49.37,0,0,0-11.15-1A47.88,47.88,0,0,0,621.62,455a46,46,0,0,0-14.3,8.54,47.38,47.38,0,0,0-12.53,18.65c-4.36,11.34-3.61,23.67,1,34.82a35,35,0,0,0,3.27,6.13,38.91,38.91,0,0,0,8.14,9.83,34.46,34.46,0,0,0,4.1,3.91c3.15,2.5,7.07,4.32,10.64,6.12,4.73,2.39,10.07,3.29,15.32,3.75a37.88,37.88,0,0,0,12.45-1.07,49.3,49.3,0,0,0,6.91-2q2.28-.94,4.49-2a46.12,46.12,0,0,0,8.71-5.66c8.87-7.27,14.31-17.82,16.07-29a43.45,43.45,0,0,0-5.07-27.64,51.32,51.32,0,0,0-9.06-11.48,63.18,63.18,0,0,0-8.15-6.55,1.13,1.13,0,0,0-.14,1q.19,1.79.51,3.57C664.13,466.68,664.22,469.75,665.11,470.34Z" transform="translate(-587.67 -429.41)"/><path class="k" d="M664.06,479.15a33.56,33.56,0,0,1,8,5.75l-.31-.29a33.91,33.91,0,0,1,5.74,7.22,36.62,36.62,0,0,1,3.67,8.15,41.14,41.14,0,0,1,1.45,17.64A44,44,0,0,1,627,554.24a45.49,45.49,0,0,1-17.16-9.06,43.51,43.51,0,0,1-13.16-19.1,45.75,45.75,0,0,1-1.82-22.63l-.7,4.35,1.68-8.78-1.05,4.36,4-11.82-1.9,4.31,4.2-8.4-2.3,4.28,4.9-8.1-2.78,4.23q17.32-23.49,46.62-20.37l-7.45-.11,11.78,1.22-7.68-.91,14,2.81-9.69-2.25,11.82,3.85-7.66-2.79a117.66,117.66,0,0,0,14.06,6.27,1.3,1.3,0,0,0,.88.18c.11-.21-1-.84-1.11-.9-2.36-1.47-5-2.48-7.42-3.86l-4.15-2.6a31.58,31.58,0,0,0-6.73-1.87,45.77,45.77,0,0,0-37.43,8.85c-14.93,12-21.44,33.69-15.12,51.86a49.75,49.75,0,0,0,5.39,11,47.6,47.6,0,0,0,19.44,16.84,52,52,0,0,0,12.68,4.14,46.48,46.48,0,0,0,16,.18A51.19,51.19,0,0,0,664.89,554a40.75,40.75,0,0,0,7-4.76,48.65,48.65,0,0,0,6.27-6l3.36-4.93a52.85,52.85,0,0,0,4.17-8,15.47,15.47,0,0,0,1.85-5.48A49.23,49.23,0,0,0,689,516.2l-.1-5.59c-.46-9.85-4.43-19.25-10.34-27a64.86,64.86,0,0,0-8.46-9.29l-3.88-3.2a45.24,45.24,0,0,0-8.21-5.66,2.53,2.53,0,0,0,.36,1.55q1.1,2.76,2.31,5.46t2.45,5.4A2.57,2.57,0,0,0,664.06,479.15Z" transform="translate(-587.67 -429.41)"/><path class="l" d="M663,473.52a34.21,34.21,0,0,1,8,5.71l-.28-.28,3.45,3.73-.27-.29a47,47,0,0,1,5.63,9.83,20,20,0,0,1,1.39,4.26q5.28,18.87-15.1-26.41c.41.22.49.14.24-.26a17,17,0,0,0-2.14-2.27c-1.44-1.4-2.9-2.77-4.37-4.13a18.3,18.3,0,0,0-2.39-2,41.93,41.93,0,0,0-9.62-3.18,45.9,45.9,0,0,0-10-1,48.13,48.13,0,0,0-19.21,4.07,48.2,48.2,0,1,0,58.6,16.21,58,58,0,0,0-18.29-16.7,2.17,2.17,0,0,0,.18,1.43c.51,1.69,1.06,3.38,1.64,5s1.16,3.35,1.8,5A2.16,2.16,0,0,0,663,473.52Z" transform="translate(-587.67 -429.41)"/><path class="m" d="M664.78,476.66a25.82,25.82,0,0,1,6.17,4.21,26.6,26.6,0,0,1,5,5l-.26-.34,2.86,4.1-.24-.36a48.19,48.19,0,0,1,4.87,12.42,41.32,41.32,0,0,1,.49,13.36c-1.09,10.21-6.47,19.76-13.89,26.69A43.4,43.4,0,0,1,644.56,553a44.38,44.38,0,0,1-13.89-.69,33.84,33.84,0,0,1-6.81-1.92q-31.58-14.58-28.4-48.22l-.87,6.24,1.72-10.73-1.44,6.22,2.8-10.67-2,6.2,3.8-10.49L596.83,495l4.91-10.25-4.13,7.45,6.82-11.36L599.48,488l8.1-10.89-5.71,6.76,9.23-10-6.47,6.34,10.18-9.12-7.2,5.74,11.2-8.08-7.94,5.13,12.06-7.05-8.55,4.33,12.88-5.79-9.19,3.52,13.58-4.56L622,466.86l14.14-3.1-10.08,1.54,14.61-1.69-10.3.4,14.85-.06-10.5-.75,15,1.52-8.28-1.52L654.2,466l-8.2-2.51,12.55,4.22-7.86-3.5,12.08,5.71-7.5-4.49,12.42,7.74c.46.21.53.12.22-.27a20.94,20.94,0,0,0-2.55-2.25q-2.55-2.06-5.13-4.05a19.66,19.66,0,0,0-2.78-2,55.5,55.5,0,0,0-12-2.46,48.41,48.41,0,0,0-11.72.48l-4.38.93a25.52,25.52,0,0,0-7.67,3.11c-2.47,1.26-5.21,2.45-7.57,3.94-3.11,2-6,5.17-8.61,7.81a24.23,24.23,0,0,0-1.85,2.06,57.52,57.52,0,0,0-5,8,47.1,47.1,0,0,0,5.26,50.17,49.93,49.93,0,0,0,17.79,13.92c7.67,3.7,16.68,4.73,25.06,4a47.55,47.55,0,0,0,32.07-17.3,50.91,50.91,0,0,0,4.48-7,48.58,48.58,0,0,0,3.61-7.35,47.3,47.3,0,0,0,2.36-21.94,52,52,0,0,0-8.41-21.77,64.11,64.11,0,0,0-8.18-9.77,72.24,72.24,0,0,0-11.91-9.13,2.57,2.57,0,0,0,.13,1.59q.72,2.88,1.53,5.71t1.68,5.67A2.6,2.6,0,0,0,664.78,476.66Z" transform="translate(-587.67 -429.41)"/><path class="n" d="M665.2,469.7a30,30,0,0,1,10.73,8.83,25,25,0,0,1,3.6,5.82c6.1,12.31,4.35,24-1,36.33l1.66-3.38-6.27,10.29,2.39-3.2c-5.47,6.55-12.2,12.69-20.41,15.43l-7.78,2.06q-27.37,3.2-46-17.62L609.5,531l-9.62-10.71,6.63,7.85L598,516.21l5.47,8.77-6.89-13,4.29,9.66-5.32-14,2.73,10.19L595,503.15l1,8.46-1.23-14.06-.13,6.38a48.07,48.07,0,0,1,4.77-24.2,41.66,41.66,0,0,1,5.15-8.15,48.13,48.13,0,0,1,6.74-7,49.09,49.09,0,0,1,8.23-5.37l-.3.17a50.34,50.34,0,0,1,13.37-4.3,48.28,48.28,0,0,1,11.77-.23,41.71,41.71,0,0,1,11.73,2.92,57.12,57.12,0,0,1,12.54,7.53c.85.65-.59-2.17-.38-1.76-.51-1-1.05-1.94-1.62-2.89a5,5,0,0,0-1-1.41,40.21,40.21,0,0,0-9.36-5.4,43.7,43.7,0,0,0-10.48-3.22,46.45,46.45,0,0,0-16.46-.35,48.92,48.92,0,0,0-21.09,8.83c-10.94,8.3-18,22.33-17.63,36.12a44.49,44.49,0,0,0,3.14,15.06c2.6,6.64,4.29,7.9,9.23,15l-5.46-8.77a42.18,42.18,0,0,0,9.6,14.88l3.7,3.27A45.75,45.75,0,0,0,650,543.42a43.68,43.68,0,0,0,25.86-17.21,46.93,46.93,0,0,0,9-24.92,41.92,41.92,0,0,0-3.19-18.48,40.19,40.19,0,0,0-7.75-11.93,48.28,48.28,0,0,0-9.59-7.62c-.25-.16.13,3.4.11,3.28C664.44,467.2,664.46,469.26,665.2,469.7Z" transform="translate(-587.67 -429.41)"/></g><path class="o" d="M637,511.92h-9.49v21.29c0,2.15-.9,3.37-2.48,3.37h-2.34c-1.58,0-2.47-1.22-2.47-3.37v-58.9c0-2.16.89-3.38,2.47-3.38h17.81c9.29,0,14.65,9.57,14.65,20.73,0,9.75-4.12,17.91-11.28,19.79.49,7.12,3.72,17.82,8.94,17.82a5.53,5.53,0,0,0,3.51-1.13c1.51-.94,2.54-.75,3.3,1.22l.35.84c.61,1.88.55,3.57-.76,4.69a10.1,10.1,0,0,1-7,2.72C641,537.61,637.51,519.79,637,511.92Zm2.06-7.88c5.3,0,8.53-5.16,8.53-12.38,0-7.41-3.3-12.57-8.53-12.57H627.54v25Z" transform="translate(-587.67 -429.41)"/><g class="a"><path class="p" d="M736.13,430.71c-3.33,22.21-9.55,41.44-20.65,60.93-3.37,5.92-8.34,14.07-10.32,20.59s-1.95,14.07,1.91,19.69a25.55,25.55,0,0,0,6.58,6.24,56.3,56.3,0,0,0,27.47,10,14.06,14.06,0,0,0,10-3,20.35,20.35,0,0,0,2.47-2.35,61,61,0,0,0,12.9-23.52,34.7,34.7,0,0,0,1.56-11.83c-.43-6.55-3.49-12.62-6.78-18.3-6.06-10.45-13.13-20.31-18.56-31.1-2.72-5.43-6.31-11.75-8.41-17.94" transform="translate(-587.67 -429.41)"/><path class="q" d="M726,443c2.22,6.43,5.16,11.8,7.75,16.84l2,3.87q1.07,2,2.18,4c1.48,2.65,3,5.22,4.56,7.73,3.09,5,6.21,9.83,9.1,14.59s5.56,9.37,6.82,13.47a22.12,22.12,0,0,1,.73,3,17.64,17.64,0,0,1,.22,2.81,26.26,26.26,0,0,1-.94,6.38,52.55,52.55,0,0,1-9.87,19.59c-.39.48-.78,1-1.18,1.41l-.3.35-.2.22-.42.43-.46.42c-.15.13-.37.3-.43.34a4.28,4.28,0,0,1-.61.4,5.2,5.2,0,0,1-1.5.51,4.71,4.71,0,0,1-.85.09h-.45a4.87,4.87,0,0,1-.6,0,46.86,46.86,0,0,1-7.15-1.22A48,48,0,0,1,721,532.51c-1-.64-2-1.32-3-2a21.49,21.49,0,0,1-2.37-2,8.58,8.58,0,0,1-1.48-1.78,7.59,7.59,0,0,1-.92-1.92c-1-2.89-.79-7.22.66-11.16a58,58,0,0,1,3-6.77c1.22-2.35,2.57-4.75,4-7.2l2.16-3.77,2.19-4q2.13-4,4.09-8.09a171.72,171.72,0,0,0,6.9-16.8,191.61,191.61,0,0,0,8.5-35.06l-17.38-2.61a174.12,174.12,0,0,1-7.7,31.87,154.29,154.29,0,0,1-6.19,15.07c-1.17,2.46-2.41,4.89-3.69,7.3l-2,3.59-2.13,3.7c-1.46,2.53-2.93,5.13-4.36,7.88a73.23,73.23,0,0,0-4,9,38.51,38.51,0,0,0-2.24,10.84,31.2,31.2,0,0,0,1.48,11.82,26.49,26.49,0,0,0,6.79,10.68,38.74,38.74,0,0,0,4.24,3.55c1.38,1,2.74,1.91,4.16,2.79a65,65,0,0,0,28.12,9.4c.35,0,1,.08,1.54.11s1.14,0,1.71,0a23,23,0,0,0,10-2.67,20.84,20.84,0,0,0,3-1.94c.51-.38.85-.67,1.25-1s.76-.67,1.13-1,.73-.73,1.09-1.11l.52-.58.41-.46c.54-.62,1.07-1.25,1.58-1.9a68,68,0,0,0,5.63-8.09A69.57,69.57,0,0,0,775.44,520a43.87,43.87,0,0,0,1.49-10.65,34.89,34.89,0,0,0-.45-5.77,40.81,40.81,0,0,0-1.31-5.39,56.91,56.91,0,0,0-4-9.36c-1.51-2.85-3-5.4-4.56-7.94-3.08-5.07-6.22-9.91-9.15-14.67-1.46-2.39-2.87-4.76-4.2-7.12-.67-1.19-1.31-2.37-1.92-3.55l-2-3.82c-2.67-5.16-5.2-9.95-6.72-14.42Z" transform="translate(-587.67 -429.41)"/><path class="r" d="M735.34,430.6s0,.13,0,.21a4.28,4.28,0,0,1-.08,1.28C735.31,431.52,735.24,431.26,735.34,430.6Z" transform="translate(-587.67 -429.41)"/><path class="r" d="M733.29,435.24a7.1,7.1,0,0,1-.15.95A3.1,3.1,0,0,1,733.29,435.24Z" transform="translate(-587.67 -429.41)"/><path class="r" d="M733.16,436.94c.07,0,0,.53-.1.85C733,437.75,733.12,437.17,733.16,436.94Z" transform="translate(-587.67 -429.41)"/><path class="r" d="M732.91,437.66c.08-.25-.09.62-.08.74h-.07c-.17.69-.09.8-.24,1.47A8.45,8.45,0,0,1,732.91,437.66Z" transform="translate(-587.67 -429.41)"/><path class="r" d="M733,437.89c.08,0,0,.4-.06.74A5.47,5.47,0,0,1,733,437.89Z" transform="translate(-587.67 -429.41)"/><path class="r" d="M732.9,438.41a4.49,4.49,0,0,1-.24,1.37C732.64,439.54,732.81,439.1,732.9,438.41Z" transform="translate(-587.67 -429.41)"/><path class="r" d="M736.86,438.88s-.07.51,0,.44c0,.09,0,.1,0,.1l0,.21A2.89,2.89,0,0,1,736.86,438.88Z" transform="translate(-587.67 -429.41)"/><path class="r" d="M736.46,440.25a1.68,1.68,0,0,1-.06.65A1.68,1.68,0,0,1,736.46,440.25Z" transform="translate(-587.67 -429.41)"/><path class="r" d="M739.19,440.92a10.92,10.92,0,0,1-.21,1.19A9.77,9.77,0,0,1,739.19,440.92Z" transform="translate(-587.67 -429.41)"/><path class="r" d="M732.24,441a3.87,3.87,0,0,1-.27,1.26C732,442,732.17,441.5,732.24,441Z" transform="translate(-587.67 -429.41)"/><path class="r" d="M735.89,443.35a5.84,5.84,0,0,0,.15-.74c.07-.05-.11.78,0,.44a4.28,4.28,0,0,1-.16.85C735.88,443.75,736,443.39,735.89,443.35Z" transform="translate(-587.67 -429.41)"/><path class="r" d="M738.47,444.27a6.87,6.87,0,0,1-.36,1.51C738.21,445.39,738.32,444.94,738.47,444.27Z" transform="translate(-587.67 -429.41)"/><path class="r" d="M735.19,447a2.14,2.14,0,0,1-.14.75C735,447.68,735.16,447.21,735.19,447Z" transform="translate(-587.67 -429.41)"/><path class="r" d="M730.87,446.62c.11.05-.13.59-.17.61C730.66,447,730.82,447,730.87,446.62Z" transform="translate(-587.67 -429.41)"/><path class="r" d="M729.33,452.71c.12-.31-.12.6-.16.62C729.11,453.16,729.26,453.1,729.33,452.71Z" transform="translate(-587.67 -429.41)"/><path class="r" d="M729.57,452.76s-.07.31,0,.32-.33,1.23-.33,1Z" transform="translate(-587.67 -429.41)"/><path class="r" d="M727.68,458.11a5.69,5.69,0,0,1-.56,1.61C727.3,459.23,727.49,458.77,727.68,458.11Z" transform="translate(-587.67 -429.41)"/><path class="r" d="M730.68,461.83c0-.41.5-1.46,0,0Z" transform="translate(-587.67 -429.41)"/><path class="r" d="M725.75,463.31a4.79,4.79,0,0,1-.47,1.52A12.07,12.07,0,0,1,725.75,463.31Z" transform="translate(-587.67 -429.41)"/><path class="r" d="M728.53,466.42a.74.74,0,0,1-.08.43c-.14.22-.07-.06-.16-.05C728.48,466.29,728.38,466.81,728.53,466.42Z" transform="translate(-587.67 -429.41)"/><path class="r" d="M726,473c0,.06-.19.5-.26.71C725.66,473.6,725.86,473.31,726,473Z" transform="translate(-587.67 -429.41)"/><path class="r" d="M722.35,471.91s-.2.76-.28.68A3.57,3.57,0,0,0,722.35,471.91Z" transform="translate(-587.67 -429.41)"/><path class="r" d="M726.93,473.9c.11,0-.3.81-.34.69C726.74,474.22,726.81,474.22,726.93,473.9Z" transform="translate(-587.67 -429.41)"/><path class="r" d="M721.93,473a15.94,15.94,0,0,1-.73,1.88A11.46,11.46,0,0,1,721.93,473Z" transform="translate(-587.67 -429.41)"/><path class="r" d="M720.7,474.69c0,.21-.26.39-.42.86A2.55,2.55,0,0,1,720.7,474.69Z" transform="translate(-587.67 -429.41)"/><path class="r" d="M720.17,475.73s-.14.37-.11.41-.09.06-.13.06A2.18,2.18,0,0,0,720.17,475.73Z" transform="translate(-587.67 -429.41)"/><path class="r" d="M720.74,476.05a9.41,9.41,0,0,0-.76,1.53C720.08,477.21,720.48,476.17,720.74,476.05Z" transform="translate(-587.67 -429.41)"/><path class="r" d="M715.52,474.66c.11-.06-.11.32-.15.38C715,475.91,715.46,474.7,715.52,474.66Z" transform="translate(-587.67 -429.41)"/><path class="r" d="M723.61,478.26c.16-.28,0,.15-.12.42S723.68,478.25,723.61,478.26Z" transform="translate(-587.67 -429.41)"/><path class="r" d="M720.24,479.16c.08.07-.2.69-.39,1C719.86,479.93,720.18,479.49,720.24,479.16Z" transform="translate(-587.67 -429.41)"/><path class="r" d="M719.54,479.23c0,.06-.09.28,0,.12,0,.11-.21.42-.24.36a1.89,1.89,0,0,1,.15-.4S719.5,479.3,719.54,479.23Z" transform="translate(-587.67 -429.41)"/><path class="r" d="M719.58,481.2c.18-.29-.24.57-.28.57s0,0,0-.1,0-.09,0-.11S719.46,481.51,719.58,481.2Z" transform="translate(-587.67 -429.41)"/><path class="r" d="M721.15,483.46a8.24,8.24,0,0,1-.46,1A5.87,5.87,0,0,1,721.15,483.46Z" transform="translate(-587.67 -429.41)"/><path class="r" d="M719.6,484.22l-.19.39C719.28,484.65,719.56,484.11,719.6,484.22Z" transform="translate(-587.67 -429.41)"/><path class="r" d="M718.65,486.16c0,.23-.37.64-.54,1A6.52,6.52,0,0,1,718.65,486.16Z" transform="translate(-587.67 -429.41)"/><path class="r" d="M714.05,486.32c-.15.27-.21.26-.35.53C713.64,486.8,714,486.24,714.05,486.32Z" transform="translate(-587.67 -429.41)"/><path class="r" d="M715.15,490.7a3.28,3.28,0,0,1-.43.86C714.79,491.36,715,491,715.15,490.7Z" transform="translate(-587.67 -429.41)"/><path class="r" d="M714.36,492.1c0,.12-.48.82-.65,1.24A8.62,8.62,0,0,1,714.36,492.1Z" transform="translate(-587.67 -429.41)"/><path class="r" d="M710.25,492.61c0,.16-.38.7-.39.54C710,492.83,710,493,710.25,492.61Z" transform="translate(-587.67 -429.41)"/><path class="r" d="M712.85,494.36a3.73,3.73,0,0,1-.47,1c-.1,0,.33-.66.07-.33C712.47,494.85,712.72,494.6,712.85,494.36Z" transform="translate(-587.67 -429.41)"/><path class="r" d="M712,496.09c-.15.17,0-.06,0-.14s.29-.5.33-.44a2.32,2.32,0,0,0-.18.28A.94.94,0,0,1,712,496.09Z" transform="translate(-587.67 -429.41)"/><path class="r" d="M712.05,496c-.09.29-.4.55-.53.94A2.08,2.08,0,0,1,712.05,496Z" transform="translate(-587.67 -429.41)"/><path class="r" d="M714.57,499.59c.12,0-.22.47-.26.47S714.47,499.84,714.57,499.59Z" transform="translate(-587.67 -429.41)"/><path class="r" d="M711.73,500.73c.12,0-.28.63-.28.46A3.33,3.33,0,0,0,711.73,500.73Z" transform="translate(-587.67 -429.41)"/><path class="r" d="M711.73,503.06a2.15,2.15,0,0,1-.32.67A4.58,4.58,0,0,1,711.73,503.06Z" transform="translate(-587.67 -429.41)"/><path class="r" d="M714.67,506.38a1.29,1.29,0,0,1-.14.38s-.1.09-.13.05l.13-.27C714.51,506.68,714.54,506.64,714.67,506.38Z" transform="translate(-587.67 -429.41)"/><path class="r" d="M706.76,507.93c-.5,1.37-1.12,2.69-1.6,4.24C705.36,510.65,706.25,509.32,706.76,507.93Z" transform="translate(-587.67 -429.41)"/><path class="r" d="M710.63,509.31c.09,0-.11.54-.2.46Z" transform="translate(-587.67 -429.41)"/><path class="r" d="M711.33,510.29a2.24,2.24,0,0,1-.25.63C711.07,510.76,711.25,510.54,711.33,510.29Z" transform="translate(-587.67 -429.41)"/><path class="r" d="M709.94,511.06a3.7,3.7,0,0,1-.19.65C709.64,511.76,709.87,511.27,709.94,511.06Z" transform="translate(-587.67 -429.41)"/><path class="r" d="M709.78,512.32c.19-.4-.11.63-.15.45S709.82,512.42,709.78,512.32Z" transform="translate(-587.67 -429.41)"/><path class="r" d="M709.58,512.94c.07,0-.17.79-.23.71C709.46,513.39,709.44,513.33,709.58,512.94Z" transform="translate(-587.67 -429.41)"/><path class="r" d="M705.06,512.26c.11,0-.18.72-.08.75-.09.24-.17.48-.24.5C704.77,513.14,705,512.54,705.06,512.26Z" transform="translate(-587.67 -429.41)"/><path class="r" d="M705.71,514c.15-.36-.07.48-.12.72,0,0,0,0,0-.11h-.05C705.58,514.39,705.74,514.08,705.71,514Z" transform="translate(-587.67 -429.41)"/><path class="r" d="M705.2,515.83a1.78,1.78,0,0,1,0,.73A4.6,4.6,0,0,1,705.2,515.83Z" transform="translate(-587.67 -429.41)"/><path class="r" d="M707.42,516.68a2.56,2.56,0,0,1,0,.57C707.3,517.27,707.36,516.83,707.42,516.68Z" transform="translate(-587.67 -429.41)"/><path class="r" d="M708.7,517s0,.18,0,.19a1.09,1.09,0,0,0-.14.44A1.57,1.57,0,0,1,708.7,517Z" transform="translate(-587.67 -429.41)"/><path class="r" d="M710.6,517.62c.11-.06,0,.39,0,.58C710.5,518.18,710.57,517.85,710.6,517.62Z" transform="translate(-587.67 -429.41)"/><path class="r" d="M698.85,521.48a2.86,2.86,0,0,1,.16.76c0,.08-.08-.5-.08-.12A2.29,2.29,0,0,1,698.85,521.48Z" transform="translate(-587.67 -429.41)"/><path class="r" d="M708,521.06a2.23,2.23,0,0,1,0,.9A8.71,8.71,0,0,0,708,521.06Z" transform="translate(-587.67 -429.41)"/><path class="r" d="M698.52,523.92c0,.07.06.13.09.12a7.68,7.68,0,0,0,.23,1.73A6.16,6.16,0,0,1,698.52,523.92Z" transform="translate(-587.67 -429.41)"/><path class="r" d="M699.49,524.52a14.38,14.38,0,0,1,.31,1.54A8.46,8.46,0,0,1,699.49,524.52Z" transform="translate(-587.67 -429.41)"/><path class="r" d="M698.84,526.05c.12-.11.17.89.22.65.06,0,.1.44.07.41.51,1.84.07.61-.06-.13,0-.13-.05-.09-.07-.12C698.89,526.46,699,526.46,698.84,526.05Z" transform="translate(-587.67 -429.41)"/><path class="r" d="M709.33,523.73a.89.89,0,0,1,.14.46A1.13,1.13,0,0,1,709.33,523.73Z" transform="translate(-587.67 -429.41)"/><path class="r" d="M708.4,524.38a1.74,1.74,0,0,0,.22.83c0-.05-.08-.07-.12-.05a5,5,0,0,0-.17-.67C708.34,524.42,708.36,524.39,708.4,524.38Z" transform="translate(-587.67 -429.41)"/><path class="r" d="M708.72,524.48c.15.61.5,1.09.57,1.64-.06,0-.12-.32-.17-.46-.06,0,0,.35.13.56A5.47,5.47,0,0,1,708.72,524.48Z" transform="translate(-587.67 -429.41)"/><path class="r" d="M699.55,528.85a4.76,4.76,0,0,1,.36.91A4,4,0,0,1,699.55,528.85Z" transform="translate(-587.67 -429.41)"/><path class="r" d="M699.94,530.05c0-.09.17.25.31.62C700.17,530.62,700.09,530.51,699.94,530.05Z" transform="translate(-587.67 -429.41)"/><path class="r" d="M700.35,530.94c.08-.06.67,1.79.71,1.38.06.2.08.39-.06.2C700.63,531.76,700.68,531.74,700.35,530.94Z" transform="translate(-587.67 -429.41)"/><path class="r" d="M709.72,527.34l.07,0a2,2,0,0,0,.3.73c0,.06-.19-.4-.22-.24A1.39,1.39,0,0,0,709.72,527.34Z" transform="translate(-587.67 -429.41)"/><path class="r" d="M706.19,529.31c.14.34.38.71.32.79C706.33,529.77,706.1,529.36,706.19,529.31Z" transform="translate(-587.67 -429.41)"/><path class="r" d="M710,528.1c.11.08.12.13.15,0,0,.17.16.34.22.32.13.21-.09.1.08.32A3.65,3.65,0,0,1,710,528.1Z" transform="translate(-587.67 -429.41)"/><path class="r" d="M710.53,528.05c.07,0,.31.41.2.41A3.59,3.59,0,0,0,710.53,528.05Z" transform="translate(-587.67 -429.41)"/><path class="r" d="M710.44,528.85a1.28,1.28,0,0,1,.37.5A2.2,2.2,0,0,1,710.44,528.85Z" transform="translate(-587.67 -429.41)"/><path class="r" d="M710.44,529c.12,0,.2.19.27.39C710.67,529.45,710.53,529.14,710.44,529Z" transform="translate(-587.67 -429.41)"/><path class="r" d="M711.39,529.38a3.22,3.22,0,0,1,.5.6A3.83,3.83,0,0,1,711.39,529.38Z" transform="translate(-587.67 -429.41)"/><path class="r" d="M703.82,536.41s.26.24.48.49c0,.13-.15,0-.19,0C704,536.71,704,536.67,703.82,536.41Z" transform="translate(-587.67 -429.41)"/><path class="r" d="M711.17,530.3c0-.14.69.65.71.72S711.26,530.38,711.17,530.3Z" transform="translate(-587.67 -429.41)"/><path class="r" d="M713.15,529.63l.15.16c0,.08,0,.14-.18,0C713.21,529.76,713.09,529.65,713.15,529.63Z" transform="translate(-587.67 -429.41)"/><path class="r" d="M705.64,537.82a.87.87,0,0,1,.43.3C706,538.13,705.94,538.15,705.64,537.82Z" transform="translate(-587.67 -429.41)"/><path class="r" d="M706.85,539c0-.06.37.25.62.45C707.43,539.5,707.1,539.19,706.85,539Z" transform="translate(-587.67 -429.41)"/><path class="r" d="M713.27,532.07c.14.06,0,0,.06-.07s.28.28.21.31Z" transform="translate(-587.67 -429.41)"/><path class="r" d="M714.21,533.09c0,.06-.08,0-.17-.08s0,0,0,.1C713.79,533,713.9,532.81,714.21,533.09Z" transform="translate(-587.67 -429.41)"/><path class="r" d="M714.85,532.06c.43.26.47.45.94.7C715.73,532.88,714.91,532.19,714.85,532.06Z" transform="translate(-587.67 -429.41)"/><path class="r" d="M714.63,533.48c.1,0,.33.15.52.25-.06,0-.22-.06,0,.11,0,.06-.33-.17-.11,0C714.76,533.73,715,533.63,714.63,533.48Z" transform="translate(-587.67 -429.41)"/><path class="r" d="M714.79,533.24c.22,0,.8.6,1.08.8C715.37,533.78,715.25,533.52,714.79,533.24Z" transform="translate(-587.67 -429.41)"/><path class="r" d="M709.85,541.62c.29.14.61.51,1,.78A5.72,5.72,0,0,1,709.85,541.62Z" transform="translate(-587.67 -429.41)"/><path class="r" d="M718,534.36c-.09-.07,0-.09,0-.12.24.19.57.29.45.19.42.19.75.49,1.24.74-.08,0-.11,0-.13,0A8.09,8.09,0,0,0,718,534.36Z" transform="translate(-587.67 -429.41)"/><path class="r" d="M718.11,535.66c.23.09.93.5.57.41C718.61,535.92,718.3,535.85,718.11,535.66Z" transform="translate(-587.67 -429.41)"/><path class="r" d="M719.5,534.94c-.09-.14.57.27.41.26Z" transform="translate(-587.67 -429.41)"/><path class="r" d="M719.06,536.2a9.25,9.25,0,0,1,.88.45C719.78,536.69,719.42,536.42,719.06,536.2Z" transform="translate(-587.67 -429.41)"/><path class="r" d="M719.11,536.31a8.44,8.44,0,0,1,1.48,1A15,15,0,0,1,719.11,536.31Z" transform="translate(-587.67 -429.41)"/><path class="r" d="M719.73,535.34c.14-.08.45.36.52.25.12.07,0,.09,0,.13Z" transform="translate(-587.67 -429.41)"/><path class="r" d="M719.67,536.3s.31.17.44.23c-.1,0-.08,0-.06.11C719.86,536.51,719.86,536.43,719.67,536.3Z" transform="translate(-587.67 -429.41)"/><path class="r" d="M720.26,536.45a.61.61,0,0,1,.44.2A1.46,1.46,0,0,1,720.26,536.45Z" transform="translate(-587.67 -429.41)"/><path class="r" d="M721,537.08a3.49,3.49,0,0,1,1.06.52c-.17,0-.32-.17-.21,0A4.42,4.42,0,0,0,721,537.08Z" transform="translate(-587.67 -429.41)"/><path class="r" d="M721,542.88c-.11-.06-.06-.08-.07-.11a2.11,2.11,0,0,1,.47.28C721.31,543.12,721,542.8,721,542.88Z" transform="translate(-587.67 -429.41)"/><path class="r" d="M723.47,538.39c-.1-.18,1.69.65,1.33.66-.1,0-.06-.07-.06-.1C724.36,538.83,723.87,538.51,723.47,538.39Z" transform="translate(-587.67 -429.41)"/><path class="r" d="M722.75,544a1.49,1.49,0,0,1,.51.18l0,.06A2,2,0,0,1,722.75,544Z" transform="translate(-587.67 -429.41)"/><path class="r" d="M724,544.13a10.08,10.08,0,0,1,1.12.41A6.2,6.2,0,0,1,724,544.13Z" transform="translate(-587.67 -429.41)"/><path class="r" d="M723.46,549.36c.32.13.35.2.64.32C724,549.68,723.43,549.41,723.46,549.36Z" transform="translate(-587.67 -429.41)"/><path class="r" d="M725.78,545.21a1.42,1.42,0,0,1,.75.16A3,3,0,0,1,725.78,545.21Z" transform="translate(-587.67 -429.41)"/><path class="r" d="M728.44,540.26a4.29,4.29,0,0,1,.66.2A1.5,1.5,0,0,1,728.44,540.26Z" transform="translate(-587.67 -429.41)"/><path class="r" d="M727.26,545.57s.39.11.43.07.09,0,.1.06,0,0,.09,0A1.56,1.56,0,0,1,727.26,545.57Z" transform="translate(-587.67 -429.41)"/><path class="r" d="M728,551v-.07c.27.14,2.31.64.79.27A4.36,4.36,0,0,1,728,551Z" transform="translate(-587.67 -429.41)"/><path class="r" d="M728.28,552a3.94,3.94,0,0,1,.92.23A5.49,5.49,0,0,1,728.28,552Z" transform="translate(-587.67 -429.41)"/><path class="r" d="M731.64,546.79a5.56,5.56,0,0,1,1.27.29C732.73,547.07,732,546.83,731.64,546.79Z" transform="translate(-587.67 -429.41)"/><path class="r" d="M731.05,552.75c.33.06.57,0,.7.14A1.34,1.34,0,0,1,731.05,552.75Z" transform="translate(-587.67 -429.41)"/><path class="r" d="M732,553.07l0-.07c.16.07.51.14.45.2S732.19,553.11,732,553.07Z" transform="translate(-587.67 -429.41)"/><path class="r" d="M735.25,542.09a1.2,1.2,0,0,1,.59,0A2,2,0,0,1,735.25,542.09Z" transform="translate(-587.67 -429.41)"/><path class="r" d="M734.2,552.48c-.44-.14.44,0,.36,0,.2,0,.26.09.22.14C734.48,552.57,734.3,552.43,734.2,552.48Z" transform="translate(-587.67 -429.41)"/><path class="r" d="M734.45,553.44c0-.1.41.08.71.07v.07C734.79,553.54,734.81,553.48,734.45,553.44Z" transform="translate(-587.67 -429.41)"/><path class="r" d="M735.06,553.27c-.34-.1.85.16.6,0C736.23,553.42,735.59,553.4,735.06,553.27Z" transform="translate(-587.67 -429.41)"/><path class="r" d="M736.33,553.87s.14,0,.24,0,.06,0,0,0a1.83,1.83,0,0,1,.47,0C737.11,554,736.69,553.93,736.33,553.87Z" transform="translate(-587.67 -429.41)"/><path class="r" d="M738,553.69v-.09a5.23,5.23,0,0,0,.82.12C738.83,553.8,738.3,553.71,738,553.69Z" transform="translate(-587.67 -429.41)"/><path class="r" d="M741.09,554.53c.5,0,1,0,1.52-.06A4.73,4.73,0,0,1,741.09,554.53Z" transform="translate(-587.67 -429.41)"/><path class="r" d="M741.15,542.9a1.42,1.42,0,0,1,.49,0,3.5,3.5,0,0,0,.54.05c0,.07-.39,0-.28.06C741.71,542.93,741.64,543,741.15,542.9Z" transform="translate(-587.67 -429.41)"/><path class="r" d="M755.53,549.76l-.07-.07c0,.08.7-.46.34-.25.09-.19.29-.19.53-.45A5.48,5.48,0,0,1,755.53,549.76Z" transform="translate(-587.67 -429.41)"/><path class="r" d="M760.34,544.62a3.67,3.67,0,0,1,.48-.68A2.83,2.83,0,0,1,760.34,544.62Z" transform="translate(-587.67 -429.41)"/><path class="r" d="M750.51,537c0-.05.26-.34.26-.41l-.22.2c.05-.17.34-.39.32-.24C750.65,536.76,750.65,536.86,750.51,537Z" transform="translate(-587.67 -429.41)"/><path class="r" d="M761.19,542.63c0-.07,0-.14,0,0,.11-.24.18-.14.42-.57C761.61,542.08,761.38,542.38,761.19,542.63Z" transform="translate(-587.67 -429.41)"/><path class="r" d="M761.63,542.49a6.16,6.16,0,0,1,.69-1A6.36,6.36,0,0,1,761.63,542.49Z" transform="translate(-587.67 -429.41)"/><path class="r" d="M761.64,541.94c.18-.31.44-.62.75-1.06-.08.2-.53.76-.64,1C761.73,541.84,761.7,541.86,761.64,541.94Z" transform="translate(-587.67 -429.41)"/><path class="r" d="M765.67,537.55c.09-.27.41-.6.53-.93C766.32,536.69,765.87,537.22,765.67,537.55Z" transform="translate(-587.67 -429.41)"/><path class="r" d="M765.45,537.45c-.14.09.19-.34,0-.25.14-.24.13-.08.25-.28C765.75,537.05,765.64,537.12,765.45,537.45Z" transform="translate(-587.67 -429.41)"/><path class="r" d="M766,537.31c.11-.12.31-.48.41-.6C766.32,537,766.07,537.35,766,537.31Z" transform="translate(-587.67 -429.41)"/><path class="r" d="M766.53,535.59a10,10,0,0,1,.83-1.57,1.7,1.7,0,0,1-.21.55c.18-.45-.57.86-.32.64C766.68,535.49,766.7,535.25,766.53,535.59Z" transform="translate(-587.67 -429.41)"/><path class="r" d="M768.37,531.74l-.06,0c.17-.4.17-.13.32-.5C768.67,531.26,768.42,531.68,768.37,531.74Z" transform="translate(-587.67 -429.41)"/><path class="r" d="M769.5,529.88c-.08-.13.25-.62.35-1A6.14,6.14,0,0,1,769.5,529.88Z" transform="translate(-587.67 -429.41)"/><path class="r" d="M770.14,529.73l-.07,0c.09-.07.3-.78.35-.64Z" transform="translate(-587.67 -429.41)"/><path class="r" d="M759.8,520.37a3.07,3.07,0,0,1,.2-.84s.07-.06.11-.17C760.07,519.59,759.86,520,759.8,520.37Z" transform="translate(-587.67 -429.41)"/><path class="r" d="M773.22,522.86c0-.17.2-.71.23-.94A2.62,2.62,0,0,1,773.22,522.86Z" transform="translate(-587.67 -429.41)"/><path class="r" d="M761.92,511.05a1.15,1.15,0,0,1,0-.43C762,510.51,761.94,510.82,761.92,511.05Z" transform="translate(-587.67 -429.41)"/><path class="r" d="M760.88,503.35s-.11-.22-.07-.07a7,7,0,0,1-.45-1.34C760.57,502.43,760.66,502.74,760.88,503.35Z" transform="translate(-587.67 -429.41)"/><path class="r" d="M761.12,503.07c-.12-.14-.24-.46-.35-.62C760.92,502.48,761,502.68,761.12,503.07Z" transform="translate(-587.67 -429.41)"/><path class="r" d="M760.51,501.78s0,.16.07.26c-.1-.07-.22-.46-.32-.54s0-.08.07.06c0-.1,0,0,.1-.14a7.72,7.72,0,0,0,.34.74c0,.13,0,.2,0,.21C760.56,502.16,760.63,501.93,760.51,501.78Z" transform="translate(-587.67 -429.41)"/><path class="r" d="M760.16,501.44c-.12-.07-.18-.38-.27-.57s-.09.14-.13-.34C759.94,500.86,760,501.07,760.16,501.44Z" transform="translate(-587.67 -429.41)"/><path class="r" d="M772.5,494.74c-.18,0-.19-.53-.43-.9C772.12,493.72,772.36,494.46,772.5,494.74Z" transform="translate(-587.67 -429.41)"/><path class="r" d="M759.06,498.8a7.83,7.83,0,0,1-.49-.92A5.68,5.68,0,0,1,759.06,498.8Z" transform="translate(-587.67 -429.41)"/><path class="r" d="M758.37,497a2,2,0,0,0-.22-.44C758.19,496.43,758.5,497,758.37,497Z" transform="translate(-587.67 -429.41)"/><path class="r" d="M758.27,495.91a4.6,4.6,0,0,1-.3-.51C758,495.27,758.25,495.84,758.27,495.91Z" transform="translate(-587.67 -429.41)"/><path class="r" d="M768.88,486.57a4.37,4.37,0,0,0-.47-.78C768.48,485.78,769,486.46,768.88,486.57Z" transform="translate(-587.67 -429.41)"/><path class="r" d="M759.35,492.59l-.06,0a6.15,6.15,0,0,1-.46-.82A8.77,8.77,0,0,1,759.35,492.59Z" transform="translate(-587.67 -429.41)"/><path class="r" d="M756.57,489.53c-.05,0-.14-.13-.26-.34,0,0,0,0,0-.12S756.55,489.46,756.57,489.53Z" transform="translate(-587.67 -429.41)"/><path class="r" d="M756.31,489.32c-.13-.13-.2-.33-.41-.62,0-.1.22.23.39.51C756.26,489.21,756.27,489.25,756.31,489.32Z" transform="translate(-587.67 -429.41)"/><path class="r" d="M755.08,488.64c-.22-.26-.3-.4-.58-.76a.41.41,0,0,0-.07-.21c0-.07.24.42.23.23C754.8,488.19,754.84,488.22,755.08,488.64Z" transform="translate(-587.67 -429.41)"/><path class="r" d="M755.24,484c-.09.11-.38-.61-.63-.87-.12,0,.21.47.36.67-.22,0-.52-1-.67-.84a5.9,5.9,0,0,0-.44-.74c0-.14.26.34.39.52-.14-.4.26.25.09-.21A13.92,13.92,0,0,0,755.24,484Z" transform="translate(-587.67 -429.41)"/><path class="r" d="M762.73,476.39c-.08.14-.29-.49-.43-.49-.08-.21.29.21.1-.21C762.67,476,762.55,476.11,762.73,476.39Z" transform="translate(-587.67 -429.41)"/><path class="r" d="M760.75,474c-.33-.44.08.33-.46-.47l.09-.07C760.6,473.73,760.58,473.6,760.75,474Z" transform="translate(-587.67 -429.41)"/><path class="r" d="M760.62,473.37c-.37-.49-.57-.53-1-1.14,0,0,0,.11,0,.14l.52.68c0,.09-.34-.12,0,.5-.39-.37-.3-.79-.75-1.44.09-.06,0-.26-.05-.49a6.57,6.57,0,0,1,.54.53,1.23,1.23,0,0,1,.26.6A2.83,2.83,0,0,1,760.62,473.37Z" transform="translate(-587.67 -429.41)"/><path class="r" d="M759.32,472.73c-.42-.64.1-.13-.28-.72.12.15.2.21.34.41C759.24,472.4,759.43,472.71,759.32,472.73Z" transform="translate(-587.67 -429.41)"/><path class="r" d="M749,476.16c-.22-.22-.1,0-.12.09-.1-.17-.14-.18-.25-.36C748.74,476,748.71,475.69,749,476.16Z" transform="translate(-587.67 -429.41)"/><path class="r" d="M747.34,476.14c-.15-.14-.4-.51-.25-.49C747.28,475.92,747.15,475.87,747.34,476.14Z" transform="translate(-587.67 -429.41)"/><path class="r" d="M745.19,473.66c0,.09-.56-.81-.59-.92s-.2-.16-.29-.2a1.92,1.92,0,0,1-.11-.6c.14.15.67,1.08.47.88A9.57,9.57,0,0,1,745.19,473.66Z" transform="translate(-587.67 -429.41)"/><path class="r" d="M746.45,470.75A2.45,2.45,0,0,1,746,470,5.86,5.86,0,0,1,746.45,470.75Z" transform="translate(-587.67 -429.41)"/><path class="r" d="M745.33,467.69c-.2-.29-.36-.47-.57-.8C744.87,466.84,745.14,467.33,745.33,467.69Z" transform="translate(-587.67 -429.41)"/><path class="r" d="M747.77,465.24l-.06,0c-.07-.14-.3-.46-.25-.47S747.66,465.07,747.77,465.24Z" transform="translate(-587.67 -429.41)"/><path class="r" d="M747.6,464.58c-.07,0-.2-.2-.34-.41.07,0-.13-.39.06-.17S747.38,464.25,747.6,464.58Z" transform="translate(-587.67 -429.41)"/><path class="r" d="M752.33,459.45a4.28,4.28,0,0,1-.5-.89.61.61,0,0,1,.15.27c.09.11.19.26.23.21C752.33,459.27,752.37,459.41,752.33,459.45Z" transform="translate(-587.67 -429.41)"/><path class="r" d="M752.33,459.21a15.57,15.57,0,0,1-.85-2A12.63,12.63,0,0,1,752.33,459.21Z" transform="translate(-587.67 -429.41)"/><path class="r" d="M744.07,462.53c-.13-.19-.41-.65-.33-.69C743.89,462.11,743.92,462.26,744.07,462.53Z" transform="translate(-587.67 -429.41)"/><path class="r" d="M750.49,456.76c-.09,0-.19-.07-.36-.38.06,0,.1-.1.19,0A2.16,2.16,0,0,0,750.49,456.76Z" transform="translate(-587.67 -429.41)"/><path class="r" d="M744,460.51a8.79,8.79,0,0,1-1.23-2.9C743.16,458.38,743.39,459.31,744,460.51Z" transform="translate(-587.67 -429.41)"/><path class="r" d="M742.88,456.3c-.14-.05-.2-.39-.42-.75-.05,0,0,.12.09.32a1.58,1.58,0,0,1-.27-.72c0-.11.18.24.21.13C742.71,455.73,742.74,456,742.88,456.3Z" transform="translate(-587.67 -429.41)"/><path class="r" d="M746.18,451.26a9,9,0,0,1-.68-1.46C745.78,450.21,745.87,450.69,746.18,451.26Z" transform="translate(-587.67 -429.41)"/><path class="r" d="M739.89,438.94s-.1-.11-.15-.14c0-.23-.12-.57,0-.43A3.4,3.4,0,0,1,739.89,438.94Z" transform="translate(-587.67 -429.41)"/><path class="r" d="M735.24,433l.08-.54s.06,0,.09-.1a1.57,1.57,0,0,1,0,.44c-.09-.12-.33.83-.25.08C735.17,432.92,735.19,433,735.24,433Z" transform="translate(-587.67 -429.41)"/><path class="r" d="M729.46,450.46a6.9,6.9,0,0,1-.48,1.64Z" transform="translate(-587.67 -429.41)"/><path class="r" d="M728.39,455.88a3.3,3.3,0,0,0,.23-.61c0,.13.1.24.23-.27-.05.3-.14.68-.17.94-.07-.13-.29.31-.13-.25-.1.06-.11.27-.18.51S728.49,455.78,728.39,455.88Z" transform="translate(-587.67 -429.41)"/><path class="r" d="M725.77,460.8c.16,0-.1.88-.23.92C725.87,460.88,725.67,461.31,725.77,460.8Z" transform="translate(-587.67 -429.41)"/><path class="r" d="M726.18,462.43c-.07,0,.17-.67.26-.8,0,0,0,.18,0,.21S726.31,462,726.18,462.43Z" transform="translate(-587.67 -429.41)"/><path class="r" d="M720.38,474.35c-.4.84-1,2-1.21,2.58-.32.27-.85,2-1.17,2-.19.39.06.2-.16.62s-.34.49-.53.81a2.14,2.14,0,0,1-.51.93c.06-.13,0-.11.05-.21a8.45,8.45,0,0,0,.83-1.71c-.34.69-.82,1.54-1.06,2.18,0-.11.12-.27.16-.27-.14.27-.09.31-.24.58-.07,0,.07-.29-.11.07a1.93,1.93,0,0,1-.12.41,15.81,15.81,0,0,0-1.15,2.14c-.62.77-1.34,2.67-1.73,2.68a13.21,13.21,0,0,1-1.26,2.2c-.1.17,0,.1-.09.31-.55.67-1,1.91-1.59,2.79,0-.1.55-.93.29-.7-.68,1.38-1.48,2.39-2.08,3.45,0-.06.22-.43.13-.42-.16.3-.56.92-.75,1.33-.05,0-.12.12-.14.06a21.79,21.79,0,0,1-1.26,2.08c0,.16.22-.21.09,0l-.31.59c0-.14,0-.16-.14.06-.42.85-1,1.87-1.33,2.71.07-.34-.15.25-.17.29s0,0-.05,0c-.88,1.47-2.12,4.78-2.53,5.53.13-.17,0,.52-.27.9-.1.06,0-.24,0-.26a36.93,36.93,0,0,0-2.27,9.39,1.31,1.31,0,0,1,0-.25,21,21,0,0,0-.23,3.76,27.17,27.17,0,0,0,.38,4.33c0-.12-.06-.74,0-.4a14.67,14.67,0,0,0,1,4.49,2.36,2.36,0,0,0,.22.84c.15.36.33.68.38.66a2.54,2.54,0,0,0-.37-.72c0-.18-.24-.67-.09-.55.2.65,1.15,2.59.6,1.65a23.81,23.81,0,0,0,2.37,4c0,.46,1.8,2.19,1.62,2.13a7.94,7.94,0,0,1,1.17,1.22c-.85-.71-1.36-1.32-1.88-1.81a4.76,4.76,0,0,1,.6.72,9,9,0,0,1,1.21,1.18c0-.09.39.34.47.43s-.3-.29-.13-.25c.64.53,1.38,1.18,2,1.73a1.91,1.91,0,0,0-.41-.26c.56.4,1.1,1,1.28.92-.19-.16-.65-.45-.66-.53a17.71,17.71,0,0,1,1.62,1.24c-.13-.09-.7-.5-.4-.25a5.94,5.94,0,0,0,.89.56,20.58,20.58,0,0,0,2.68,1.93,6.89,6.89,0,0,1,1.24.65s0,.07.07.12-.4-.21-.35-.09c.41.25,1.35.74,1.92,1.15a7.22,7.22,0,0,1,1.66.9,12.35,12.35,0,0,1-1.78-.91c-.16,0-2.1-1.22-2-1a1.28,1.28,0,0,0-.38-.3c-.16,0-.49-.2-.77-.29.13-.13-.64-.31-.67-.51-.31-.22-.23-.07-.43-.18s-.35-.32-.65-.54a32.64,32.64,0,0,1-6.87-5.54c.45.51,1.06,1.09,1.26,1.38-.18-.15-.44-.5-.57-.55.15.19.47.47.54.59-.55-.45-.8-.9-1-1.06.53.56-.09,0-.07.07.16.23.49.46.72.81.05,0-.08-.14,0-.17.19.2.15.23.34.42,1.49,1.07,3.49,2.88,5.16,3.82,0,.17.4.34.39.27a4.18,4.18,0,0,1,.62.58c.49.12,1.62,1,2.26,1.28a20.08,20.08,0,0,0,2.79,1.54c-.08-.05-.11-.08-.08-.1a4.69,4.69,0,0,1,.83.45c-.27-.07-.18-.13-.52-.29a22.41,22.41,0,0,0,3.05,1.57c.18,0,.44.14.67.22a9.65,9.65,0,0,0,1.3.59c.1,0,.3,0,.79.21a11.15,11.15,0,0,0-2.25-1c.41.07-.19-.2.27-.07a16.93,16.93,0,0,0,2.48,1.08c-.21-.09-.47-.19-.42-.23a8.5,8.5,0,0,1,1.21.45c-.55-.22-.45-.08-.77-.29a4.14,4.14,0,0,0,.83.5c.1,0-.37-.18-.19-.2s.14,0,.23.06,1.21.44.85.42a12.29,12.29,0,0,1,2.33.88l3.88,1s-.06.08.1.12a4.71,4.71,0,0,1,.59,0c0,.1.31.07.34.12-.17,0-.14,0-.25,0a2.72,2.72,0,0,1,.58.14c.1-.06-.4-.11-.22-.17a5.42,5.42,0,0,0,.59.07c.43.18,1.15.17,2,.39,0,0-.17,0-.12.08.43.06.42,0,.82,0,0,0-.19,0-.24,0a12.27,12.27,0,0,1,2.34.36c-.13,0-.28-.08-.12-.06.47.08.93.11,1.38.16l.66.07c.21,0,.43,0,.72,0a21.29,21.29,0,0,0,3.19-.06s-.2.06,0,0a20.84,20.84,0,0,0,3.2-.7c1.22-.36,2.18-.76,1.8-.45.11,0,.27-.11.29-.09a2.24,2.24,0,0,0-.41.18,10.52,10.52,0,0,0,1.75-.8,4.56,4.56,0,0,0,.46-.12c.88-.66,1.68-.84,2.56-1.58.08,0-.46.36-.3.34l2.06-1.8a18,18,0,0,0,2.11-2.18s-.07.13-.17.24-.21.24-.1.19c.79-1,2.31-2.68,3.17-4-.15.32.29-.33.37-.33-.49.92-1.29,1.71-2.06,2.86.07,0,0,.18.17,0a18,18,0,0,1,1.61-2.32c.06,0,.24-.28.22-.13.45-.8,1.52-2.25,2.36-3.38.1-.34.63-1,.9-1.51-.1.24,0,.23-.18.57-.13.08.1-.36-.15.05.08.22-.86,1.44-1,1.73.18-.25,0,.16.09,0,.22-.45.55-.79.72-1.21.2-.19.79-1,.38-.6.34-.27.74-1.13,1-1.44-.67,1.1-.84,1.54-1.35,2.35a9.8,9.8,0,0,0,.81-1.17s0,.07,0,.13c.92-1.45,1.46-2.45,2.22-3.52,0,0-.07,0,0-.13a20.46,20.46,0,0,0,1.39-2.62c-.06.13-.13.25-.15.19.24-.46.48-1,.58-1,.11-.25,0-.14.11-.46s.36-.43.58-.8c-.24.31.49-1.53.44-1a10.08,10.08,0,0,1,.7-1.52,5.36,5.36,0,0,1,.14-.7c-.25,0-.18-.23-.37-.23a2.48,2.48,0,0,1-.54,1.19,4.22,4.22,0,0,1-.5,1.19,19.1,19.1,0,0,1-1.34,2.89c-.08-.1-.2.34-.37.49.17-.39.32-.72.47-1.08,0,.18.1,0,.23-.16a2.58,2.58,0,0,1,.4-.86c0-.16-.25.44-.34.5.16-.42.38-.92.49-1.31a4.37,4.37,0,0,0,.71-1.5c.14-.2.15-.19.12,0a21.89,21.89,0,0,1,1.14-3c-.05-.34.46-1.18.53-1.56a.9.9,0,0,1-.18.32c.13-.34.07-.34.2-.68.08.05.22-.4.33-.65s-.18.32-.1,0a12.72,12.72,0,0,0,.57-2c.11-.09.15,0,.33-.67,0,0-.07,0-.07-.13-.1.28,0,.49-.15.58a8.26,8.26,0,0,0,.39-1.76c.06-.16.12-.45.18-.33s-.12.07-.18.46c.14-.13,0,.47-.08.83.2-.75.55-1.17.45-1.51.32-1.17.57-2,.84-3.27,0,0,0,.21,0,.25.15-.65,0-1.06.18-1.13-.07.62-.2,1.35-.18,1.64a1.56,1.56,0,0,1,.12-.5c-.14.55.08.13-.13,1.12.1-.09,0,.38.07.39a9.9,9.9,0,0,1,.27-1,6.88,6.88,0,0,1-.44,2.09c0-.18.16-.63.1-.62-.11.68,0-.44-.12.24a6.76,6.76,0,0,1-.11,1.23c0-.26-.06.56-.24.71s0,.25,0,.49c-.37.9-.86,2.63-1.18,3.54.08-.16.17-.5.23-.43s0,.14,0,.23c-.21.33-.35,1.12-.52,1.22a4.81,4.81,0,0,1-.33.9c0,.12.13,0-.11.59,0-.05.06-.32,0-.37a20.19,20.19,0,0,1-1.18,3c-.24,1.56-1.73,3.6-2.05,4.81,0,0-.12.18-.15.2.15-.28.18-.39.09-.35a10.48,10.48,0,0,1-.7,1.25c.21-.1.62-.93.85-1.19a8.7,8.7,0,0,1-.57,1.18,8.22,8.22,0,0,0,.77-1.36.35.35,0,0,1,0-.24c.08-.14.2-.25.28-.4a16.2,16.2,0,0,1,1-2.15,1.66,1.66,0,0,0-.23.68c.76-1.85,1.31-3,2-5.11,0,0,0,.1,0,.12.22-.74.56-1.54.73-2.4,0,0,0,.2,0,.25.14-.48.21-.88.29-1.28,0,.25.19-.37.28-.43s0-.11,0-.36,0,.16.11-.1c.14-.61.31-1.29.37-1.78,0,0-.07.62.06.26.08-.75.7-2.77.84-3.52-.09.37,0-.39.06-.5s-.16.49-.11.12a10.55,10.55,0,0,0,.25-1.13c.11-.2,0,.43,0,.38a15.23,15.23,0,0,0,.36-1.79c0,1.24-.58,3.56-.78,5.17a2.74,2.74,0,0,0,.13-.74c.18-.06.11-.42.23-.73.13.34-.29,1.32-.35,1.85,0-.15.07-.29.1-.24s0,.15,0,.25a12.48,12.48,0,0,0-.53,2.15c-.16.57-.46,1-.56,1.49a6.3,6.3,0,0,1,.62-1.35s-.22.84-.08.47c.16-.86.26-1.18.47-2-.06.08-.15.58-.19.46a4.16,4.16,0,0,1,.28-.95c-.05.36.17-.16.13-.23-.1.33-.06-.11,0-.26a2.07,2.07,0,0,0,.14-.48s.08,0,.12-.11a7.83,7.83,0,0,0,.13-.88,34.47,34.47,0,0,0,.69-5.57c0,.08,0,.16,0,.13-.08-.29,0-1.12,0-1.08a4,4,0,0,0,0-1c0,.08,0,.65-.06.68a.94.94,0,0,1,0-.27,2.25,2.25,0,0,0,0-.82l.07-.42c-.06-.85-.06-1.23-.16-2.07,0,0,.06.06.09.13a4.38,4.38,0,0,1-.07-1c.07.4.14.69.21,1a8,8,0,0,0-.31-1.77c0,.24.15.55.09.68-.07-.42-.16-.77-.24-1.07,0,0,0-.15,0-.42.1.29.11-.19.09-.45-.1-.06,0,.32-.11.32-.09-.63-.06-.14-.12-.4-.14-.67-.05-.78-.16-1.36.11.14.21.67.32.9a13.5,13.5,0,0,0-.4-1.43c.06,0,.13.22.06-.16-.31-.8-.74-2.44-1.08-3.4,0,.19.16.36.13.51a2.64,2.64,0,0,1-.16-.36c0-.09-.11-.5,0-.43-.32-.65-.51-1.42-.89-2.26a.83.83,0,0,0-.15-.62c.06.14.11.27.06.25-.23-.47-.37-.82-.71-1.6.11-.15-.31-1.08-.46-1.56-.15-.23,0,.16-.12-.08a32.16,32.16,0,0,0-1.49-3.29c.4.66-.32-.66,0-.25a14.44,14.44,0,0,1-.89-1.5c.11.15,0,.22-.08,0s.06-.08-.18-.43c.1,0,.09-.11-.06-.38s-.08,0-.19-.14-.2-.4-.3-.62a.89.89,0,0,0,.23.26c-.2-.32,0-.19,0-.14a6.88,6.88,0,0,1-.38-.84c-.09.07,0,.35-.21.15.17.31.06.33.08.48-.84-1.42-1.89-3.34-2.48-4.63.18.13.24.09.12-.22-.71-.31-1.4-2.41-2.3-3.48-.19-.05-.08.16-.18.26a3.74,3.74,0,0,0-.91-1.09c-.38-.52-.51-.76-.91-1.34,0,0,0-.06-.08-.21s.12.27,0,.16c-.41-.61-.69-.63-1-1.26,0,.26-.18.12-.27.07a.59.59,0,0,0-.18-.27c.09.15,0,0-.13-.17.15.17-.14-.56-.29-.59.17.35.5.95.23.76a1.51,1.51,0,0,1,.29.59,4.24,4.24,0,0,1-.31-.3c0,.11.1.29.13.43a7.09,7.09,0,0,1-1.19-1.92c-.25-.34-.68-.62-.74-1a2,2,0,0,0,.44.47c-.23-.36-.65-.74-.71-1.07a17.85,17.85,0,0,1,2.05,2.87,16.11,16.11,0,0,0-1.84-2.76,10.4,10.4,0,0,0-1.11-1.69c-.12-.22-.09-.28-.21-.5-.42-.68-1.57-2.09-1.29-2.19-.17-.34-.1,0-.23-.23s-.15-.33-.06-.34c.7.76,1.57,1.93,2.32,2.75-.11-.28-.31-.67-.22-.75-1.23-2-2.15-2.39-3.35-4.44,0,.43-.59-.36-.49.21a2.14,2.14,0,0,0-.23-.34c-.1.2-.12.43-.49.07,0,0,.14.26.12.3-.18-.3-.22-.19-.33-.28,0,.08.2.35.18.39a8.27,8.27,0,0,0-.11,2.5c.34.77.35,1.22.68,2-.22-.17.1.55-.14.36.13.21.2.35.18.39-.12-.21-.21-.33-.26-.33.29.43,0,.23,0,.25a13.56,13.56,0,0,1,.29,1.5c-.68-.92-1-2-1.61-2.78-.14-.36-.45-.9-.37-1,.17.29.34.54.41.49-.31-.67-.63-1.38-1.15-2.29.09-.25-.65-1.41-1-2.14.05,0,.17.24.19.13a29,29,0,0,1-1.71-3.27c0-.51-1.1-2.56-.89-2.76a5.87,5.87,0,0,1-.47-1.23c.17.08.41.4.51.21a13,13,0,0,0-.57-1.58,2,2,0,0,1-.58-.92c.07.05.2.27.28.34-.07-.45.08-.42.05-.79s-.45-.78-.39-.9c.1.16.15.43.25.48-.16-.31-.07-.33-.22-.63-.14.09-.2-.37-.29-.57s-.08.11-.27-.08c-.63-1.18-.66-2.25-1.27-2.94a4.21,4.21,0,0,0,.32.67,21.24,21.24,0,0,0,.73,2.52s-.11-.11-.13,0c.19.32.32.47.51.82a1.9,1.9,0,0,0,.29.7c-.3-.33.06.35,0,.39-.2-.29-.19-.25-.23-.12-.1-.19-.12-.08-.24-.35-.4-.89-.84-1.91-1.41-3a16.88,16.88,0,0,0,.79,2.14c-.26,0-.13.35,0,1,.13.32.1,0,.24.35-.06.41.25,1.42-.12,1.34-.6-1.2-.84-1-1.45-2.27-.1,0-.31-.31-.43-.36s0,.22.06.34c-.09,0-.22-.25-.35-.42-.43-.14.28,1.07.09,1.2-.49-.8-1.1-2-1.51-2.59.17.38.11.61-.11.32.21.56.08.72.31,1.31.59.89.8.7,1.47,1.75,0,.8,1.51,3.63,1.89,4.53,0-.13-.08-.21,0-.23a6.27,6.27,0,0,1,.45,1c.05-.12.28.45.38.52-.06-.15-.13-.32-.07-.34.77,1.48,1.34,2.21,2.19,3.65,0,0,.05-.06.12.05,1.1,2,2,3.22,3.1,5,0,0,0-.06.11.05.19.4.49.88.63,1.12,0-.07,0-.12,0-.12.84,1.43,2.11,3.22,2,3.71-.06-.15-.12-.24-.19-.26.14.28.37.79.11.58.32.45.4.84.19.66,0,.05,0,.16,0,.15.17.3.1.2.25.35,0,0,0,.07,0,.13-.09-.14-.2-.32-.21-.24.4.6,0,.18.09.46s.26.13.56.65c-.18-.17-.06.09-.14.1s-.17-.38-.23-.36c.15.24,0,.2.08.34a2.16,2.16,0,0,0,.25.35c-.28-.28.3.47.08.35a13.69,13.69,0,0,0-1.12-1.72c0-.33-.74-1.37-.76-1.7a1.87,1.87,0,0,0,.21.24,1.56,1.56,0,0,1-.13-.43c-.65-1-.41-1.33-1-2.41-.12.05-.41-.41-.64-.86-.1.07-.26-.24-.45-.6-.07.33-.69-.65-.64-.21-.05-.14-.18-.36-.24-.35s.28.44.16.4-.15-.2-.24-.35c-.18.2.48,1.25.56,1.71-1-1.37-1.12-2.25-1.88-3.4l.08-.06c-.59-1.16-.9-.92-1.41-1.89a10.87,10.87,0,0,1-1.37-1.8c0,.1-.39-.55-.49-.58-.85-1.58-.39.22-.66,0a4.65,4.65,0,0,1,.23,1c-.2-.35-.2-.25-.12-.06l-.21-.38c-.11.11-.3-.23-.15.23a6.3,6.3,0,0,1,1,2.31c-.08-.15-.09,0-.2-.26-.14,0,.23.51.15.55-.34-.66-.23-.84-.53-1.47,0,.12-.12-.1-.15,0s.14.2.23.37c-.14-.16,0,.23,0,.27.23.41.16.37.37.8a1.72,1.72,0,0,1,.4.64c-.33-.59,0,.19-.24-.23.44.83.51,1.1.79,1.56-.21-.29-.38-.49-.48-.45.16.24.06.21.1.32.67,1.22.75,1.84,1.57,3.28a17.47,17.47,0,0,1-1.37-2.1c-.15-.11-.34-.34-.42-.24a32.28,32.28,0,0,0,2,3.38c.26.71,1.34,2,2,3.12a6.26,6.26,0,0,0,1.15,1.57c.81,1.3,1.74,2.61,2.78,4.24,0,.14-.26-.22,0,.15.4.39,1,1.5,1.36,1.92-1-1.55-1.78-2.95-2.77-4.5,0,0-.06-.17-.05-.22.58,1,1.7,2.11,1.42,2,.09.08.26.52.48.85.32.1.6.95,1,1.53,0-.06.24.34.25.22s-.17-.39-.11-.45a11.38,11.38,0,0,1,1.31,2s0,.13-.06,0c.15.21.6.83.48.85-.32-.43-.1-.17-.27-.47-.18-.14-.1.09,0,.37-.22-.25-.31-.16-.56-.53a1.63,1.63,0,0,1,.19.4c-.09,0-.26-.32-.33-.3a7.15,7.15,0,0,1,.7,1.21c.1-.08.42.52.51.69a1.59,1.59,0,0,1-.43-.61c0,.23-.25-.34-.27-.2.19.38,1.06,1.2,1.16,1.79a7.91,7.91,0,0,0-1-1.37c-.44-.11.31.93.56,1.55.5.77,1.1,2,1.52,2.57-.15-.3-.55-.9-.5-1.07.21.12.27.57.42.61-.21-.42-.36-.56-.38-.77.07.12.09.06.15.15.2.39.39.85.3.83s.1.3.18.26a.31.31,0,0,1,0-.25,2.1,2.1,0,0,1-.39-.89c.5.6.71,1.22,1.15,1.66a2.88,2.88,0,0,0,.44.85c-.1-.17-.1-.23-.05-.23.69,1.39,1.13,2.15,1.74,3.37-.23-.3-.3-.5-.55-.88a2.38,2.38,0,0,1,.19.61c-.2-.28-.38-.51-.44-.46a12.16,12.16,0,0,1-.8-1.34,2.9,2.9,0,0,0,.49.93s0,.08,0,.11c-.35-.37-.33-.11-.41.14-1.14-1.79-1.83-3.5-3.07-5.28a25.5,25.5,0,0,0-1.35-2.43c.07,0-.06-.2,0-.16a13.23,13.23,0,0,1-1.23-2.15c-.18,0-.44-.79-.71-1.07,0-.06,0-.13.06,0-.56-.61-.6-1.25-1.2-2,.23.4-.32-.26.13.43.12.09-.08-.29.08-.06-.14.07.37.8.44,1.15a10,10,0,0,1,1.08,1.72.68.68,0,0,0,.19.52c-.24-.36.11,0,.15,0,.33.52.57,1,.83,1.51-.19-.1-.15-.11-.38-.52-.06.06,0,.15-.11.09a2.16,2.16,0,0,0,.45.59c-.21,0,.59,1.08.72,1.44,0,0,.11,0,.23.24,0,0-.1-.09-.06,0,1.06,1.73,2.08,3.28,2.93,4.89.38.49,1.29,2,1,2.05.9,1.95,1.94,3.83,2.67,5.93a8.3,8.3,0,0,1,.8,2.17c0-.09.12.18.13.36.08.68-.29-.4-.46-.94.15.47-.15.06-.23,0-.4-1-.7-1.81-1.14-2.66-.09-.23,0-.3-.16-.57a9.06,9.06,0,0,1-.56-1.27c-.14-.26-.32-.4-.45-.66s-.2-.6-.33-.86-.24-.38-.32-.51.08,0,.09.07c-.14-.27-.27-.37-.39-.6,0,0,0-.1,0-.12a10,10,0,0,0-.67-1c-.08-.3.26.24,0-.16-.08,0-.29-.36-.41-.47,0-.33-.58-1-.41-1-.39-.59-1.08-1.64-1.41-2.21.06.1,0,.12,0,.13a10.53,10.53,0,0,0-.8-1.24s.07.05.09.06c-.62-1-1.18-1.88-1.55-2.53-.08-.08-.15-.11-.25-.22a.7.7,0,0,0-.3-.44c-.07-.2,0-.18-.14-.42.13.35-.29-.31-.42-.48,0,0-.13-.27,0-.24s.19.25.23.23c-.38-.59-.43-.55-.55-.52.1.24.33.6.45.86a4.29,4.29,0,0,1,.84,1.35c-.07-.12-.08-.06-.15-.15s.07,0,0-.13a8.85,8.85,0,0,1-1.17-1.78c0,.26-.17-.13-.25-.08.44.71.89,1.43,1.3,2.07-.14-.31.22.23.3.31a5.6,5.6,0,0,0,.44.85c-.06-.1,0-.12,0-.13a12,12,0,0,0,.81,1.5c-.34-.57-.23-.28-.5-.68a2.73,2.73,0,0,0,.57.89l-.06,0c.58.8,1.24,2.22,1.93,3.26,0,0-.07,0,0,.13.62.89,1.24,2.34,1.56,2.75-.06.09-.32-.34-.4-.58-.1.15.28.59.41.81,0,0,0,0,0,0,.21.34.39.44.59.81s.21.67.55,1.28c0-.24.32.65.47.85-.42-1,.59,1,.43,1.08a3.34,3.34,0,0,0-.29-.5c.21.49.08.27,0,.41a4,4,0,0,1,.25.73c.06-.08-.1-.43-.11-.58a1.84,1.84,0,0,0,.13.25c.07.22,0,.4.17.55,0,0-.06.05-.05.13-.62-1.39-.89-1.89-1.44-3.26-.46-.76-.76-1.68-1.33-2.45,0,0-.15-.3-.08-.31a32.68,32.68,0,0,0-1.85-3.22c.15.26.38.61.33.66-.16-.29-1-1.51-.67-1.32-.14-.21-.27-.39-.45-.71-.16-.08.28.47.21.49a9.23,9.23,0,0,1-.92-1.66c-1-1.65-1.81-2.87-2.38-4-.13,0-.06-.21-.18-.39s0,.15-.16,0a1.26,1.26,0,0,0-.13-.17c-.24-.33-.16-.35-.29-.58a5.31,5.31,0,0,1-.61-.88c.11-.17-.4-.76-.63-1.13-.92-1.5-2.11-3.53-2.87-4.71.53,1,.78,1.25,1.18,2.09.77,1,1.52,2.48,2.29,3.65-.06,0,0,.18,0,.25-.09-.09-.24-.32-.34-.41a18.75,18.75,0,0,1,1.16,1.93c.1,0,.24.32.36.52a10.21,10.21,0,0,1,1.45,2.1c-.05,0-.51-.82-.38-.51s.34.54.28.58c-.11-.15-.3-.55-.36-.53.15.31.55.87.33.81.22.39,0-.18.25.21,0,0,0,.09.09.2s-.2-.1-.3-.18c.19.44.29.41.33.41.12.32-.22-.18-.12.09s.45.82.57,1a.47.47,0,0,1-.07-.2c.09.16.28.33.27.45-.06-.11-.15-.26-.18-.26a17.74,17.74,0,0,1,.88,1.69c.15.2,0-.2.13,0,.33.5.21.52.4.87.06,0,0-.18.15,0s.55.85.42.85-.42-.67-.3-.42a6,6,0,0,0,.7,1c.18.38-.14,0,0,.35.09.11.09,0,.18.12s.48,1.13.32.65c.18.38.23.45.51,1,0,0,.06-.08.13,0,.72,1.52,1.44,2.73,1.95,4,.05,0,0-.16.06,0a4.63,4.63,0,0,0,.53,1.21s-.06,0-.1-.06a4.77,4.77,0,0,1,.38,1.14c-.16-.2-.27-.67-.44-.7a10.07,10.07,0,0,1,.72,1.47c.09.1,0-.25.09,0a1.12,1.12,0,0,0,.18.5c-.08,0,0,.28,0,.47.29.65.29,1.34.57,1.92.23,1.37.43,3.24.49,4.33-.06.08,0,.48-.13.43.08.49-.09.76,0,1.12,0-.11,0-.21.06-.18a5,5,0,0,1,0,.62s-.09,0-.09.17A3.49,3.49,0,0,1,762,513s.07-.12.1-.18c0,.35-.14,1-.27,1.07,0-.23.15-.3.1-.44,0,.12-.07.09-.1.17a14.27,14.27,0,0,1-.59,3,2.83,2.83,0,0,0,0,.48,7.39,7.39,0,0,0-.37,1,2.5,2.5,0,0,0-.11.37,5.25,5.25,0,0,1-.45,1.29c-.07,0,.2-.73.08-.48a4.29,4.29,0,0,1-.24.74c.14,0-.06.51-.17.66a3.62,3.62,0,0,0,.16-.86c-.14.58-.43,1.68-.61,1.54,0,0,0,.17-.07.18.08-.39,0-.25,0-.59-.22,1.24-.91,2.07-1.07,3.21-.06,0,0-.12-.06-.12-.12.28,0,.28-.22.64,0,0-.09.08-.13.06a4.24,4.24,0,0,0-.23.63c.17-.39.29-.54.39-.57a9,9,0,0,1-.69,1.39c.18-.34,0-.29.24-.63-.09.06-.16,0-.3.3,0,0,.1,0,.05.12a7.07,7.07,0,0,0-.9,1.51c0,.13.17-.18.22-.11a4.24,4.24,0,0,0-.29.5c0-.2,0-.14-.09-.14-.16.27,0,.15-.11.37-.08,0-.28.43-.38.47-.13.4-.25.48-.28.4a7,7,0,0,0-.27.73c-.12.11,0,0-.08,0a1.87,1.87,0,0,1-.36.58c0,.14-.06.23-.11.37s-.22.33-.12.05c-.58.9-.55,1.32-.87,1.73.12.14-.18.48-.44.75,0,.14.22-.16.08.05a3.74,3.74,0,0,0-.51.71c-.11,0,0-.16,0-.22-.09.2-.3.43-.31.49a.74.74,0,0,1,.23-.2,4.94,4.94,0,0,1-.32.49l-.06,0c-.36.74-1.16,1.59-1.29,1.94s-.17.12-.3.26c0,0,.07,0,.12,0-.1.21-1,1-.49.6-.29.35-.45.41-.59.65.16-.17.2-.14.06,0,.06-.13,0-.1-.18.11a2.86,2.86,0,0,1-.26.41c.12-.24-.33.31-.4.43.06-.06.13-.15.15-.14-.15.19-.34.48-.48.54s.19-.21.16-.25c-.2.16-.19.26-.37.47-.18,0-.47.6-.66.53.53-.36.57-.84.95-1-.09-.1.1-.19.37-.57-.13,0,.05-.15.05-.21-.3.33-.16.23-.21.33s-.23.24-.23.15.17-.19.15-.21c-.24.31-.32.35-.42.37a9.12,9.12,0,0,1-1,1c-.08.13.13,0-.05.17l-.3.22-.21.16-.4.32a3.36,3.36,0,0,1-.81.5c-.08.11.16.08-.1.2s-.13,0-.12-.11a4.58,4.58,0,0,1-1.44.44c-.2.27-1.09.19-1.47.36a2.45,2.45,0,0,1,.84,0c-.22.14-1,.2-.9,0-.36.1-.66-.1-.78,0,0-.14-1.1-.25-1.71-.26.09,0-.14,0-.38-.07-1.26-.14-2.81-.41-4-.55,0,0,0-.08-.17-.11,0,.06,0,.12-.31.06,0-.06.28,0-.08-.09a.71.71,0,0,1-.47-.08c-.22,0,.11.09-.11.05a1.3,1.3,0,0,1-.37-.14s.25,0,.2,0c-.35,0-.43-.07-.85-.13,0,.08.31.07.35.18a27.44,27.44,0,0,1-6.53-1.77c-.08-.1.57.17.29,0a5.47,5.47,0,0,1-1.72-.66c-.33-.14-.37-.06-.58-.12s-1.28-.46-1.57-.77c-.09.05-.43-.22-.64-.24,0-.09-.13-.14-.25-.15s-.47-.26-.56-.42a1.62,1.62,0,0,1-.7-.34c-.2-.07.08.11-.11,0-.41-.27-1.07-.52-1.23-.8a4.87,4.87,0,0,1-1.57-1c-.13.09-1-.53-1-.59-.33-.14-.68-.31-1.06-.51l.21,0a21.3,21.3,0,0,1-3.89-3.16s-.09,0-.16-.06c-.28-.52-1.28-1.25-1.06-1.45-.21-.3-.08,0-.26-.16a7.18,7.18,0,0,1-.93-1.67,8.8,8.8,0,0,1-.57-1.15s.1.19.14.18a4.58,4.58,0,0,1-.46-1.64c-.1.06-.17-.39-.27-.42a4.29,4.29,0,0,1,.16,1.2c-.14-.32-.06-.49-.15-.62a6,6,0,0,0,.67,2s-.06,0-.09,0a3,3,0,0,0,.42.81,7.24,7.24,0,0,0,1.2,1.94c.51.62,1.1,1.21,1.6,1.81.43.26,1.14.89,1.84,1.4-.19,0-.84-.63-1-.63.31.29,1.84,1.36,1.55,1.33,0,0,0-.14.23,0s.13.15.29.26a14.1,14.1,0,0,1,2,1.27c-.06,0-.08-.08-.06-.09a8.7,8.7,0,0,1,1,.62c-.19-.12-.32-.19-.36-.17.3.29.33.1.7.36,0,.06-.25-.13-.28-.1.72.41,2,1.19,2.65,1.48.14,0-.27-.16-.13-.18s.45.22.42.26-.16,0-.21,0c1.33.72,2.67,1.31,4.35,2a10.25,10.25,0,0,0,1.82.72,26.48,26.48,0,0,0,2.7.86,29.94,29.94,0,0,0,4.36,1.07s0,.08.18.11c0,0,0-.09.11-.07a3.07,3.07,0,0,1,.94.33,2.15,2.15,0,0,1,.4,0c-.17,0-.49,0-.58-.11a1.55,1.55,0,0,1,.49,0c.37.22.16.08.76.23-.17,0-.25,0-.3,0,.45,0,1.11.25,1.55.21a9.59,9.59,0,0,1-1.06-.23,6.07,6.07,0,0,0,1.07.11c.09.06-.3,0,0,.1.46,0,1.19.34,1.84.27-.2,0-.54-.09-.29-.07a3.78,3.78,0,0,1,.48.09,2,2,0,0,1,.74,0,2,2,0,0,0,.63,0,.32.32,0,0,1,.21.1,3.75,3.75,0,0,1,.89-.13c.05.07-.31,0-.33.09a4.1,4.1,0,0,0,1.2-.28c.15,0,.09.06.21,0-.13-.08.36-.2.67-.31,0,.08,0,.12,0,.15a1.07,1.07,0,0,0-.38.13c.2,0-.17.12-.16.18s-.15,0-.09-.06a8.88,8.88,0,0,1-1.64.24s.12-.06,0-.07c.11.08-.24,0-.21.08.21,0-.16.1-.28.11.08,0,.08-.06-.07-.07s-.5,0-.79,0,.19-.06-.2-.1v.1c-.35,0-1.37-.11-1.65-.15s.26.15-.2.07c.07-.11-1.09-.09-1.16-.28-.91-.08-1.26-.23-2-.29a1.78,1.78,0,0,0-.67-.16c.16,0,.41.14.18.09-1.4-.39-3.29-.79-4.74-1.31a.4.4,0,0,1,.18.11l-.38-.12s.06,0,.12,0a9.54,9.54,0,0,1-1-.37c.26.11-.16,0-.19-.07s0,.05-.3,0a1.31,1.31,0,0,1,.36.15,18.19,18.19,0,0,1-2.76-1c-.3-.08.28.2,0,.11s-.74-.18-.82-.34c.1,0,1,.35.59.09a3.68,3.68,0,0,1-1.31-.42c0,.26-1.18-.39-1.61-.47a4.45,4.45,0,0,0-1.14-.61,6.16,6.16,0,0,1,1.35.89c-.11,0-.26-.12-.28-.1.49.27.36.05.84.3,0-.08-.52-.27-.5-.35.72.31,1.38.61,1.89.86-.29-.14-.15,0-.39-.08-.08,0-.49-.29-.54-.26a4,4,0,0,1-1.74-.71c-.32,0-.78-.39-.89-.44.23.14-.11,0-.22,0,.06-.1-.86-.55-.44-.21-.37-.2-.41-.29-.4-.33-.3-.1-.62-.21-.86-.27,0-.05.2,0,0-.14s-.08,0-.21,0-.09-.07-.06-.09c-.39,0-1-.67-1.2-.7.1.06.19.13.14.14a4.43,4.43,0,0,1-.88-.66c-.18,0-.27-.21-.57-.39-.2,0-1.61-.87-1.43-.91a2,2,0,0,1-.82-.53c-.17,0,.52.42.59.54-.27-.11-.87-.63-1.13-.76s-.26-.35-.19-.4c-.21-.14-.27-.1-.44-.19.08.07.21.16.21.2-.33-.14-.86-.64-.74-.73.16.16.3.11.2,0s-.6-.41-.79-.47c.28.3.25.13.51.39,0,.13-.13,0,.05.23-.42-.37-.61-.54-.9-.77,0,0,.2.14.19,0-.22-.25-.18-.06-.32-.17s-.27-.31-.25-.39a7.16,7.16,0,0,1-1.5-1.61c-.16,0,.3.39.25.44a12.37,12.37,0,0,1-1.69-2.25s.1.1.14.11c-.34-.39-.35-.8-.51-.87a23.2,23.2,0,0,1-.74-2.54,11.7,11.7,0,0,1-.31-2.6,6.15,6.15,0,0,1,0-2.09c-.09-.36.05-1.25,0-1.57,0,.15,0,0,0-.09a26.85,26.85,0,0,1,.61-3.9c-.13,0-.24,1.19-.38,1-.19.93-.31,1.19-.43,2a1.05,1.05,0,0,0,0-.28c0,.07,0,.19-.06.19a2.07,2.07,0,0,0,.05-.86c-.09.68-.16,1.57-.3,2.17a11.77,11.77,0,0,1,.11-1.51,14.13,14.13,0,0,0-.29,1.8c-.07-.31,0,.28-.11.19a5.51,5.51,0,0,1,0-1c0,.12-.1.33-.08.09a3.36,3.36,0,0,0,.07-.67s0,.4.09.1a3.05,3.05,0,0,1,.13-1.34s-.07.1-.11.09a4.8,4.8,0,0,0,.08-.58h.07a10.39,10.39,0,0,0,.07-1.17,11.09,11.09,0,0,0,.39-1.63,8.21,8.21,0,0,1-.47,1.51,22.54,22.54,0,0,0-.58,3.68c0,.53-.13,1.28-.12,1.74a6.19,6.19,0,0,1,0,1.45,7.85,7.85,0,0,1,0-1c0-.21-.06.13-.07-.09a34.45,34.45,0,0,1,1-7.48,38.79,38.79,0,0,1,3-7.73c-.22,0,.58-1.47.89-1.91,0-.29.45-.84.4-1-.17.21-.46.9-.58.9s-.19.06-.08-.15c.55-1.16,1.09-1.73,1.29-2.32-.32.59-.73,1-1.2,1.9.06-.14-.11-.22-.11-.05.2,0-.21.45-.24.71s-.28.38-.37.41c0-.32.47-1.1.58-1.48-.1,0-.3.27-.43.62a42.39,42.39,0,0,0-2.67,5.54c-.08.19-.12.1-.21.37-.33.87-.76,2.32-1.18,3.13-.19.64-.33,1.13-.52,1.78.06,0,0,.26-.07.62,0-.18,0,0-.09,0,.05-.26.11-.55.12-.71-.07.12-.13.53-.19.39.15-.68.13-.93.28-1.54a2.29,2.29,0,0,0-.19.5,9,9,0,0,0-.12,1.77c-.07.22-.19.35-.21.17a21.47,21.47,0,0,0-.52,2.77c-.09,0-.06-.39-.09-.53-.1.75-.06-.11-.11-.11,0,.56-.11,1.53-.1,2.29a18.48,18.48,0,0,0,1,8.09,18,18,0,0,0,4.26,6.63,33.33,33.33,0,0,0,3.19,2.55,14.07,14.07,0,0,1,2,1.31c.31.15,1.65,1,2.09,1.24-.56-.35,0,.05.06.12a5.47,5.47,0,0,0-1.49-.81,1.33,1.33,0,0,1-.24-.22c.07,0,.17.11.19.1-.57-.41,0,.22-.44-.09,0-.15-.63-.39-.46-.48.29.18.33.29.45.28-.78-.54-1.53-1-1.94-1.28a10.44,10.44,0,0,0,1.3.9c.08.09.05.14.12.23a10.76,10.76,0,0,1,1.11.84,13.92,13.92,0,0,1-1.74-1.24s.09.08,0,0c-.57-.37-.8-.58-1.31-.9-.17-.17-.66-.74-.76-.58a3,3,0,0,1,.81.7c.71.58,1.24.72,1.68,1.12a3.1,3.1,0,0,0-.86-.44c.37.28.34.11.74.42,0,0-.16-.06-.21-.05a5.8,5.8,0,0,1,1.32.9c-.77-.45-1.43-.88-2-1.23,0,0,0-.09-.06-.1l0,0c.73.64,1.2.7,1.65,1.21a12.34,12.34,0,0,1-1.07-.72,5,5,0,0,1-1.54-.95,17.68,17.68,0,0,0,3.34,2.11c0,.12-.68-.33-.35,0,1.3.68,2.94,1.88,4.14,2.49a20.3,20.3,0,0,1-3-1.62c-.28-.18.2.21-.12,0-.7-.53-2.23-1.42-3.36-2.15.06,0,.13,0,0-.06a12.85,12.85,0,0,1-2.11-1.49c.06.06.16.14.15.16a45.85,45.85,0,0,1-3.8-3.69l.08-.06a13.86,13.86,0,0,1-2.88-5.32s-.1,0-.16-.28a25.37,25.37,0,0,1-1-7.34,26.33,26.33,0,0,1,1.06-7.08c0,.16-.09.36-.13.3.66-1.93,1.24-3.6,2-5.31.13-.2.23-.27.35-.45-.1,0-.11.13-.24.14a23.87,23.87,0,0,0,1.26-2.64l.07,0a8.64,8.64,0,0,1,.92-2c-.06.12-.09.09-.11.07.23-.5.44-.93.54-.94a2,2,0,0,1,.47-.73c.17-.38-.12,0,0-.25,2-3.59,4.88-8.42,7-12.42-1.77,3.22-3.71,6.38-5.49,9.77-.06-.05-.32.63-.33.44-.94,1.86-2.4,4.2-3.15,6.05,0,0-.06-.05-.12.07.13-.05,0,.24-.07.43s-.43.92-.75,1.34a8.68,8.68,0,0,1-.72,1.59c0,.11.05.12,0,.33-.11,0-.19.5-.35.69a9.33,9.33,0,0,1-.42,1.35c-.18,0-.31.69-.48,1.23,0,.24.09-.12,0,.12a30.9,30.9,0,0,0-1.41,8.41c0-.09,0-.22,0-.22,0,.34.07.2,0,.54-.07,0,0,.19-.1,0,0,.52,0,1.21,0,1.77.09.11,0-.18.09-.23,0,.26.05.23.07.54-.05,0-.07-.29-.12-.2,0,.51.11.35.14.87-.13-.05,0,.56,0,.89s.13.24.18.19a1.31,1.31,0,0,0,.14.64l-.07,0a4,4,0,0,1,.27,1.19,7.52,7.52,0,0,1-.33-1.51c-.22.1.51,2.12.47,2.52a21.14,21.14,0,0,1-1-6.79s-.06.17-.07,0,0-.65,0-.67-.06.47,0,.45c0-.56.06-1.6,0-1.88,0,.22-.1.71-.14.33a40.52,40.52,0,0,1,1-6,43.54,43.54,0,0,1,2.88-7.23l.05,0c.33-1,.87-1.7,1.12-2.47.16-.26.31-.52.41-.54.07-.17.32-.55.28-.58-.22.42-.37.64-.46.62.26-.54,1-1.95,1.4-2.57.4-.93,1.23-2.26,1.59-3.07-.37.51-.92,1.84-1.18,1.83.38-.57.49-1.1.92-1.71-.08,0,0-.23.28-.59.07-.52,1.06-1.87,1.39-2.68a9.53,9.53,0,0,0,.59-.79c0-.09-.23.32-.14.05-.11.16-.29.56-.35.55,1.13-2,1.88-3.52,2.83-5.3-.21-.08.53-1,.63-1.35-.32.38.39-.8.57-1.15.44-.86.87-1.84,1.07-2.32-.33.38-.45,1-.81,1.5,0-.05,0-.14,0-.33s.33-.63.23-.6a9.14,9.14,0,0,1-.69,1.22,7.24,7.24,0,0,1,.92-1.93,19,19,0,0,1,.85-1.95c-.2.12.27-.76.57-1.37.12-.52-.14-.08.18-.84-.16.23-.18.45-.29.57a1.93,1.93,0,0,1,.29-1.14s0,.17,0,.22a6.65,6.65,0,0,0,.42-1.21A2.29,2.29,0,0,0,720,477a7.36,7.36,0,0,0,.63-1.57c-.21.34-.34.85-.53.93.11-.39.36-.61.29-.68-.18.26-.53,1.23-.66,1.22l.26-.58c-.06,0-.29.48-.22.14-.06.15-.26.49-.2.49.09-.21.16-.3.2-.26l-.55,1.15a26.38,26.38,0,0,1,1.27-3.13.66.66,0,0,1,0-.34c-.19.45-.39.9-.12.41a1.43,1.43,0,0,1-.34.55,6.74,6.74,0,0,1,.5-1.17C720.41,474.54,720.31,474.66,720.38,474.35Zm-10.73,50.79c.09,0,.1.25.11.38S709.65,525.19,709.65,525.14Zm8.47,9.51.78.4s-.11,0-.12,0a1.7,1.7,0,0,0-.52-.27C718.18,534.73,718.23,534.72,718.12,534.65Zm30.61,4.24s.09,0,.16-.06-.09.17-.21.3c.05-.13-.08,0,0-.12-.1.1-.28.34-.29.23A1.88,1.88,0,0,0,748.73,538.89Zm7.35-52.52c-.06,0-.07-.17-.22-.36l.06,0a3.75,3.75,0,0,1,.2.37S756,486.26,756.08,486.37Zm2.22-13.83c-.24-.45-.7-.92-.67-1.1C757.81,471.66,758.36,472.41,758.3,472.54ZM725,549.65c.56.17,1.09.34,1.78.61A12.9,12.9,0,0,1,725,549.65Zm-4.91-74.19c.05,0-.08.28,0,.23-.13.31-.2.32-.33.66,0,0,.06-.18.11-.29s-.05,0-.09.08A2.88,2.88,0,0,1,720.05,475.46Zm-1.14,4.44a2.58,2.58,0,0,1-.28.68c0-.07.11-.39.19-.61C718.84,480,718.87,480,718.91,479.9Zm-1.81,5.23c0,.12-.36,1-.44.85C716.88,485.6,716.86,485.6,717.1,485.13ZM709,494.79c.24-.35-.35.81-.38.66S709,494.93,709,494.79Zm-1.5,2.43c.09-.06-.23.51,0,.23,0,.08-.47,1-.5.86A9.76,9.76,0,0,0,707.52,497.22Zm.2,21.93c.07,0,0,.6,0,.74A2,2,0,0,1,707.72,519.15Zm-4.2,4.53c.09-.06.09.47.12.65C703.58,524.34,703.5,523.82,703.52,523.68ZM709.15,535c0,.15-.42-.39-.51-.41s.21.2.37.41c.94.62,2.44,2.09,3.76,3,1.07.74,2.05,1.27,2.84,1.79,0,.06.2.15.15.18.35.14.67.45,1.11.68.09.14-.14,0,.35.26-.2-.06,0,.05-.05.11-.26-.13-.16-.15-.25-.23a1.59,1.59,0,0,0-.43-.11c-.18-.13-.18-.2-.33-.32s-.21,0-.4-.16c.14.18.86.55,1.06.78-.47-.25-.54-.39-1-.66a9.85,9.85,0,0,0,.8.58c.85.39.84.13,1.75.61,0-.08-.33-.24-.53-.38.74.3,1.39.79,1.94,1,.11.09.35.2.36.26.28.12.91.33,1,.46s.1,0,.32.08c.6.44,2,.85,2.65,1.23a14.75,14.75,0,0,1,2.13.78,17,17,0,0,1,3.18,1.07c.79.23.72.15,1.46.35a5.73,5.73,0,0,0-.71-.25,3.92,3.92,0,0,1,1.26.27.8.8,0,0,1-.22,0c1.05.35,3.23.55,4.4,1.08a7.48,7.48,0,0,0-1.06-.17c.25,0,1.43.37,1.6.23a1.27,1.27,0,0,1,.52.16s-.08.1-.43,0c-.05.05.48.07.31.12-.69-.1-1.09-.24-1.8-.38a6.06,6.06,0,0,0,1.37.34,22,22,0,0,1-4.25-.81c0,.12.62.23.71.34-1.12-.31-1.9-.39-2.64-.64v0c0-.07.15,0,.32,0-.17-.12-.56-.15-.44,0-.34-.1-.52-.11-.94-.26,0-.05.27,0,.53.11a7.29,7.29,0,0,0-1.57-.42c-.38-.09-.05-.1-.29-.17a19.12,19.12,0,0,1-3.06-1.16c-.27-.08-.33-.09-.24,0-.37-.14-.56-.25-.58-.32a4.76,4.76,0,0,1-1.49-.68c-.35-.16.19.17-.12,0s-.12-.07-.08-.09c-.37-.17-.34,0-.82-.3.1,0,.17-.06.18-.15-.22-.11-.08.07-.15.08-.43-.18-.36-.25-.66-.4.1.16-.61,0-.82-.3a3,3,0,0,1,.57.33c0-.06-.15-.16,0-.11a3,3,0,0,1-1-.52c-.07,0-.33,0-.09.2l-.92-.6s.34.13.59.26-.1-.15-.14-.21c-.22-.1.1.1-.13,0s-.34-.23-.66-.39c-.13-.13,0,0,0-.09-.63-.28-.43,0-1-.35a.69.69,0,0,0,.26.21,38,38,0,0,1-3.37-2c-.26-.24-.08-.15-.44-.33-.11-.22.3,0,.65.18,0,.07-.09,0-.14,0a8.18,8.18,0,0,0,1.74,1.13c-.83-.5-1.3-.94-2-1.39.14,0,.08,0,0-.17-.32-.18.17.29-.17.09-.11-.15-.78-.48-1.14-.86-.13-.09,0,0,.06.1-.17-.05-.28-.29-.58-.49a2.47,2.47,0,0,0,.23.23c-.09,0-.17-.15-.35-.26,0,0,.1.1.16.15s-.45-.32-.56-.34a1.52,1.52,0,0,0-.59-.5,40.68,40.68,0,0,1-3.17-3.25l0-.05a12.64,12.64,0,0,1-1.82-2.52c.55.58,1.16,1.8,2,2.67C708.26,534.2,708.69,534.51,709.15,535Zm-4.69-7c.39.64.85,2.06,1.44,3A11,11,0,0,1,704.46,528Zm0,8c.35.27.64.7,1.19,1.24A5.94,5.94,0,0,1,704.48,536Zm12.22,4.56c0-.07.17,0,.41.15l0,.07Zm-1.52,4.83a11.25,11.25,0,0,1,1,.58A5.13,5.13,0,0,1,715.18,545.35Zm2.42-4c.27.16.16.25,0,.2C717.27,541.38,717.59,541.48,717.6,541.4Zm.27.18a1.71,1.71,0,0,1,.29.14c-.1,0,.11.13.05.16C718,541.75,718,541.69,717.87,541.58Zm-1.68,3.85c.1,0,.72.3.61.35A6,6,0,0,1,716.19,545.43Zm3.12,1.91a3.5,3.5,0,0,0,.75.34C720.31,547.83,719.18,547.45,719.31,547.34Zm2.14-4.78c.08,0,.48.19.69.29C722,542.9,721.74,542.7,721.45,542.56Zm-1.79,5.18c0-.1.84.38,1,.37.38.18-.23,0,.08.14C720.46,548.14,720,547.91,719.66,547.74Zm5.3-8.54s.26.07.3,0,0,.11.35.2C725.57,539.49,725.21,539.32,725,539.2Zm.89.44c.4.15.75.26,1.2.46A4.87,4.87,0,0,1,725.85,539.64Zm.47-.46c.21.15.52.19.62.29S726.15,539.2,726.32,539.18Zm-.08.54a1,1,0,0,1,.56.18A1.47,1.47,0,0,1,726.24,539.72Zm1.47.6a2.31,2.31,0,0,1,.75.23c0,.06-.33-.11-.47-.15s.32.14.46.2A2.06,2.06,0,0,1,727.71,540.32Zm3.12.9c.12-.09.76.25.95.24C731.54,541.5,731.24,541.31,730.83,541.22Zm.35.21a4,4,0,0,1,.86.25c0,.06-.43-.13-.3,0Zm-.71,4.62c.87.12,1.27.26,2.21.43,0,0-.48-.11-.33,0Zm1.4-4.52a3.11,3.11,0,0,1,1.23.34A9.49,9.49,0,0,0,731.87,541.53Zm.43.32a.72.72,0,0,1,.5.06A.91.91,0,0,1,732.3,541.85Zm.5,0c.33.06.94.22,1.44.33-.21.08-1-.25-1-.11a1.71,1.71,0,0,1-.38-.12C733.05,542,733.23,542,732.8,541.88Zm.73,10.27c-.11-.1.36,0,.58.07C734.18,552.32,733.7,552.22,733.53,552.15Zm1.67-9.68c.75.12,1.74.34,2.92.46-.07-.12-.48-.06-.68-.16,0-.08.56.06.88.09s-.15.1,0,.22A22.38,22.38,0,0,1,735.2,542.47Zm1.43,5.3c0-.12.65,0,1.18.08C737.72,548,737,547.84,736.63,547.77Zm1.4,0c0-.12,1.68.22.43,0A2.62,2.62,0,0,1,738,547.79Zm1.55-4.71c-.07-.1.46,0,.69,0C740.12,543.16,740,543.12,739.58,543.08Zm.78.15c0-.06.26-.05.49,0-.07,0-.1,0-.1.08Zm2-.11s.26-.09.28,0,.05,0,.07-.05c.2,0,.08,0,.08.1C742.61,543.15,742.61,543.09,742.4,543.12Zm.71,0s.08-.05,0-.05.25,0,.35-.06A.46.46,0,0,1,743.11,543.11Zm1.59-.49c0-.1.27-.06.44-.18C745.22,542.52,744.85,542.57,744.7,542.62Zm-.06-.83c.24,0,.47-.09.48.06C745,541.81,744.72,541.89,744.64,541.79Zm.35.63c.08-.07.39-.21,0-.11.05-.12.39-.14.6-.24A2.3,2.3,0,0,1,745,542.42Zm4.65,9.55c.22-.15-.12,0,.09-.15a10.62,10.62,0,0,0,1.9-.85A10.3,10.3,0,0,1,749.64,552Zm-4.41-10.19c-.11-.07.42-.27.4-.16C745.42,541.7,745.37,541.78,745.23,541.78Zm.34.49c0-.06.37-.21.47-.22A4.49,4.49,0,0,1,745.57,542.27Zm6.33,8.57c-.16,0,.65-.43.75-.48A2.37,2.37,0,0,1,751.9,550.84Zm-5.5-9.21c0-.06.15-.18.25-.19A.71.71,0,0,1,746.4,541.63Zm.92-.82a3.64,3.64,0,0,0,.48-.43,4.26,4.26,0,0,1,.44-.42c.1,0,0,.14,0,.16-.12,0-.4.36-.42.24C747.85,540.5,747.46,540.71,747.32,540.81Zm.11-.06c.11,0,.13.08-.07.21.06-.22-.21.17-.32.08A1.46,1.46,0,0,0,747.43,540.75Zm.31-.85c.11-.19.21-.21.39-.36C748,539.73,747.93,539.75,747.74,539.9Zm13.38,2.26c-.06,0,0-.11,0-.13.21-.31.32-.38.56-.75A2.67,2.67,0,0,1,761.12,542.16Zm-8.81-6.9c.06-.23.37-.5.37-.69a3.34,3.34,0,0,0,.61-.88l.11.07C753.08,534.19,752.71,534.78,752.31,535.26Zm10,5.27c.27-.33.31-.47.55-.76C762.85,539.84,762.3,540.63,762.26,540.53Zm-8.87-6.89a3.77,3.77,0,0,1,.78-1.23,3.27,3.27,0,0,1,.69-1.29c-.06.25-.5.79-.41,1C754,532.78,753.65,533.35,753.39,533.64Zm.38,0c-.06,0,.26-.48.36-.58,0,.09-.07.28-.25.54C753.86,533.57,753.84,533.54,753.77,533.63Zm.53-.7c0-.1.21-.33.4-.68,0,0,.11-.08.14,0C754.65,532.47,754.46,532.75,754.3,532.93Zm10.56,4.61a4.4,4.4,0,0,1,.41-.72C765.29,537,765.06,537.17,764.86,537.54Zm-10.63-5.77s.22-.35.29-.5c-.06.2.06,0,.19-.23C754.74,531.19,754.4,531.55,754.23,531.77Zm.58-.24-.06,0,.25-.42C755.08,531.09,754.88,531.38,754.81,531.53Zm10.64,5.12a3,3,0,0,1,.32-.63A1.27,1.27,0,0,1,765.45,536.65Zm-.14-.46s.24-.37.31-.5C765.65,535.84,765.41,536.1,765.31,536.19Zm.38-.86c-.05,0,.15-.37.3-.64C766.08,534.7,765.82,535.18,765.69,535.33Zm.64-1c-.07.12-.06,0,0,0s-.23.39-.25.27c.15-.24.08-.24.25-.53a.49.49,0,0,0,.16-.18S766.28,534.3,766.33,534.33Zm-10.42-5.5s.1-.15.15-.25-.06.29.09,0c0,.1-.25.31-.34.38.16-.31.06-.24.26-.53A1.81,1.81,0,0,1,755.91,528.83Zm11.34,4.88c-.08,0,.21-.62.28-.52A2.18,2.18,0,0,1,767.25,533.71Zm-.41-.31c-.09,0,.09-.3.06-.35s.14-.18.19-.18A2.34,2.34,0,0,1,766.84,533.4Zm-10-5.95c0-.06,0-.11,0-.12s.15-.2.09-.07c.05,0,.12-.19.15-.15s-.1.15-.08.18S756.9,527.33,756.85,527.45Zm.21-.65c.11,0,.12,0,.11.15S756.88,527.16,757.06,526.8Zm11.38,4s-.05,0-.09.09c.06-.25.14-.18.29-.64,0,0,.08-.07.14-.2C768.74,530.24,768.54,530.38,768.44,530.75Zm-9.92-5.15c.22-.71.94-2.36,1.14-3A14.89,14.89,0,0,1,758.52,525.6Zm.28-1.05-.06,0A3.16,3.16,0,0,1,759,524S758.91,524.31,758.8,524.55Zm.2-.65-.06,0c.08-.17.17-.38.22-.34Zm-.17-.58s0-.09,0-.09c0-.35.09-.05.19-.35a1.25,1.25,0,0,1-.12.37S758.87,523.22,758.83,523.32Zm1.14-1.58c-.07,0,.14-.52.2-.76C760.23,521.14,760,521.43,760,521.74Zm13.07-1a3.14,3.14,0,0,1,.2-.82A4.23,4.23,0,0,1,773,520.73Zm-10-11.51c.15-.72.28-.25.23.78a2.92,2.92,0,0,0,.06-.44c.08-.05,0,.4.06.44s-.07.08-.1.09a18.5,18.5,0,0,1-.1,1.9c-.1.12-.06.47-.17.64s.09-.28.09,0c-.11.65-.16.58-.25,1.29.07,0,.08-.61.15-.45a6.17,6.17,0,0,0-.18,1.12c-.06,0-.09,0-.1-.11-.05.24,0,.31,0,.29a1.62,1.62,0,0,1-.25.74c-.06-.53.44-2.18.39-2.8a21,21,0,0,0,.32-3.15s0,.3-.06.36,0-.54,0-.53C763.15,509.14,763.13,509.13,763,509.22Zm11.6,7.27a2.38,2.38,0,0,1,.09-.76A2.63,2.63,0,0,1,774.63,516.49Zm.24-.36c-.11.09,0-.62.09-.51ZM773.1,516c0-.23.17-1.34.25-1.1A9.3,9.3,0,0,0,773.1,516Zm1.64-.35c0-.72.3-1.87.33-2.58,0,.22,0,.36.1.4-.08.66-.24,1.13-.28,1.68A.86.86,0,0,0,774.74,515.6Zm-11.57-1.83a5.66,5.66,0,0,1,.09-.75C763.35,513.2,763.25,513.38,763.17,513.77Zm10.79.75c0-.1,0-.14-.07-.13,0-.39.09-.24.13-.63C774.08,513.77,774,514.19,774,514.52Zm-.16-.39h-.07a12.26,12.26,0,0,1,.24-1.64C774,513,773.83,513.52,773.8,514.13Zm.14-1.65a31.73,31.73,0,0,0,.15-3.25c.06.13.06,0,.15.12a11.08,11.08,0,0,0-.1,2.1c0,.23-.06.3-.11.26,0,.37,0,.14.09.13C774.07,512.21,774,512.14,773.94,512.48Zm-10.28-.65c-.11,0,0-.28,0-.56A1.23,1.23,0,0,1,763.66,511.83Zm.75-.91c0-1.07.05-2.69-.07-3.71,0-.22-.09.09-.06.29-.08-.08,0-.39-.06-.55s.06.11.11.08a2.1,2.1,0,0,0-.06-.65,12.48,12.48,0,0,1,.22,4.44S764.42,510.81,764.41,510.92Zm-1.38-.2a4.28,4.28,0,0,1,0-.54s0-.1.1-.09C763.12,510.45,763,510.36,763,510.72ZM774.22,509c-.1,0-.1-.56-.13-1.05,0,0,.06.16.1.12A7.86,7.86,0,0,0,774.22,509Zm-10.88-.19c-.06,0-.1-.13-.17-.07,0-.48.05-.69,0-1.22A4.77,4.77,0,0,1,763.34,508.76Zm-.67-2.6.06.43c-.26-1.38-.72-3.25-1.25-5,0-.09-.06,0-.11-.15s-.09-.37-.14-.55c.08,0,.19.42.3.69,0,0,.06,0,0-.12.36.84.77,2.39,1.15,3.63a3,3,0,0,1,0,.72c.07.25.07-.07.12,0,.06.22,0,.42,0,.53s0,.1-.08.1a4.76,4.76,0,0,1,.17,1c.09.08,0-.27,0-.43a2.79,2.79,0,0,1,.09,1.11c-.09.07-.18-.38-.16.1a10.94,10.94,0,0,0-.17-1.52,8.21,8.21,0,0,1,0,2.13c-.14-.9,0-1.65-.24-2.62Zm1.14,2.3c-.06,0-.13-.19-.09-.35S763.79,508.29,763.81,508.46Zm-.2-.87s0,.08.06.08a13.25,13.25,0,0,0-.37-2.2c.2-.41.47,1.67.51,2.18S763.68,508.11,763.61,507.59Zm-.41-.47c-.06-.05-.08-.28-.15-.33s-.11-.74,0-.8C763,506.39,763.22,506.66,763.2,507.12Zm.38-3.64s0-.12,0-.19.08.27.12.26a5.31,5.31,0,0,0-.2-.83,13.48,13.48,0,0,1,.56,1.61c0,.16-.11.1-.14,0-.06.1.05.21,0,.38s0-.3.08-.22a5.15,5.15,0,0,0,.28,1.19c0,.3,0,0,.05.56-.16.08-.11-.58-.22-.81,0,.33.26,1.18.11,1.2-.11-1.14-.57-2.53-.77-3.84C763.55,503,763.47,503.15,763.58,503.48ZM763.2,506c0,.31-.12-.2-.09.1-.08-.07,0-.29,0-.35S763.15,506,763.2,506Zm-.16-.33c-.16-.63-.49-2.12-.28-1.79C762.76,504.31,763,504.89,763,505.63Zm1.53-2.06c0,.15-.06-.07,0,.11a4.93,4.93,0,0,1-.3-1.13C764.39,502.62,764.46,503.4,764.57,503.57Zm-.26-.95c0-.15-.08-.31-.14-.47,0,.05.08.1.05,0s.09.28.13.26C764.39,502.57,764.37,502.63,764.31,502.62Zm-1.72,1c-.2-.56-.55-1.89-1-2.9a10.28,10.28,0,0,1,.94,2.53C762.45,503.17,762.55,503.45,762.59,503.61Zm.93-3.87c0-.24-.35-.79-.31-1a3.59,3.59,0,0,1-.32-.63c0-.08,0-.31.06-.15s0,.13.06.31.15.19.06,0a12.27,12.27,0,0,1,.89,2.26,2.71,2.71,0,0,1-.28-.65c-.14.06.1.47.22.67,0,0,0,.4,0,.23-.06,0-.16-.47-.31-.73,0,.28.4,1.07.41,1.23,0-.08.06-.24.17.14-.17,0,0,.49.1,1q-.06-.09-.12-.06a33.16,33.16,0,0,0-1.7-4.46s.1.09.13.05c-.14-.29-.23-.29-.38-.61l.09,0c-.08-.17-.12-.18-.19-.36s0,.13-.11-.06l-.22-.46s0,0,0-.11a1.79,1.79,0,0,1,.41.58c0-.08,0-.12,0-.13.06.23.28.5.32.75s.12.15.17.14C763,498.45,763.17,498.89,763.52,499.74Zm-2.27.61c0-.11.13.1.18.12l.4,1.16c-.05-.54.45,1.08.4,1.23A22.42,22.42,0,0,0,761.25,500.35Zm0,.39c-.06,0-.16-.38-.17-.44S761.28,500.59,761.3,500.74Zm0-.62c-.06.1-.14-.1-.26-.4,0-.1.12.15.16.13a9.08,9.08,0,0,1-.59-1.76,9.13,9.13,0,0,0,.66,1.3,1.35,1.35,0,0,0,.08.39c-.11-.11-.12-.2-.21-.43C761.08,499.46,761.15,499.72,761.29,500.12ZM760,497.29c-.09,0-.29-.53-.18-.46a2.18,2.18,0,0,1,.2.34S760,497.19,760,497.29Zm9.67-8.62c-.22-.2-.27-.54-.48-.94,0-.08.29.57.32.49C769.68,488.49,769.5,488.35,769.69,488.67Zm-2.05-3.05a15.49,15.49,0,0,0-1-1.61c-.21-.33,0-.25-.27-.63,0-.11.24.24.08-.05a14,14,0,0,1,.86,1.3c.05.14,0,.17-.1.07A7.86,7.86,0,0,1,767.64,485.62ZM757,490.53c-.05,0-.24-.38-.35-.53C756.68,490,756.92,490.4,757,490.53Zm-.6-.1a4.61,4.61,0,0,1-.39-.63C756.11,489.77,756.16,490.09,756.37,490.43Zm-1.84-3.61c.13.29-.2-.15-.34-.41C754.23,486.26,754.49,486.84,754.53,486.82Zm6.82-9c-.22-.28-.48-.7-.45-.48-.46-.67-.38-1.1.06-.58C761.14,477.14,761.48,477.71,761.35,477.8Zm-8.65,1.37c0,.09-.19-.14-.35-.41,0,0,0-.14,0-.15A4.52,4.52,0,0,1,752.7,479.17Zm2.55-10.6c0,.14-.29-.29-.45-.46-.18.07,0,.45-.35.12a4,4,0,0,1-.33-.67c.12-.21.14-.16.43-.05s.42.72.47.58C755.07,468.22,755.2,468.43,755.25,468.57ZM751,470.71a1.89,1.89,0,0,1-.34-.55,1.32,1.32,0,0,1,.26.33S750.92,470.59,751,470.71Zm3-3.69c-.1-.16-.09-.21-.2-.37s.13.09.15,0C754,466.81,754.05,467,754,467Zm-6.64,4.19c0,.11-.48-.67-.32-.58A2,2,0,0,1,747.32,471.21Zm-2-4-.11-.19c.07,0,0-.28.21.12C745.33,467.08,745.47,467.31,745.33,467.16Z" transform="translate(-587.67 -429.41)"/><path class="r" d="M727.22,550.74a17.18,17.18,0,0,0-1.79-.57c.12-.08-.3-.07-.32-.17.28,0,1.7.63,2.14.62a2.73,2.73,0,0,0-.44-.16c-.13-.1,1,.29.88.35C727.25,550.67,727,550.59,727.22,550.74Z" transform="translate(-587.67 -429.41)"/><path class="r" d="M732.31,540.43c.18.05.13,0,.38.06a3.23,3.23,0,0,0,1.22.26c.19.06.19.09.08.09a23.78,23.78,0,0,0,2.93.48c-.25,0,.93.21.66.09a20.6,20.6,0,0,0,2.27.35c.41,0,.81.06,1.19.07h.53a2.51,2.51,0,0,0,.34,0h-.27l-.48-.06a4.09,4.09,0,0,0-.83,0c.23-.08-.41-.05-.47,0v-.08a46.94,46.94,0,0,1-11.86-2.9c-.4,0-1.57-.66-2-.65a6.11,6.11,0,0,0-1.13-.53c.24,0-.53-.26-.4-.31-.42-.14-.83-.48-1-.49.52.29.89.4,1,.58a7.75,7.75,0,0,1-1.35-.75,6.16,6.16,0,0,1-1.45-.74c-.1.08-.45-.26-.69-.33-.05,0,.09.13,0,.06-.35-.14-.7-.46-1-.57.1.06.19.12.14.14-.26-.13-.22-.19-.48-.32-.06.05.33.25.46.36a5.26,5.26,0,0,1,1.26.7,1.86,1.86,0,0,1-.68-.36c-.09,0,.15.14.13.18.28.16.32.1.61.27-.08,0-.28-.05-.39-.06.29.18.26,0,.54.19.07.09-.29-.06,0,.09s.43.27.58.36c0-.16.42.24.62.26-.27-.11-.45-.32-.21-.23s.34.22.66.42c0,0,.06.06.06.09-.4-.2-.39-.05-.09,0,.53.28,1.1.61,1.45.78l-.25-.17c.54.24.41.29.54.22.37.16.27.24.48.38-.06-.12.4.16.39.06-.17-.08-.55-.21-.43-.24a6.35,6.35,0,0,0,1.17.47s.08.1,0,.13c-.25-.14-.63-.3-.73-.25a3.29,3.29,0,0,0,1.11.35c.19.18.55.25.54.2.25.13.08.12,0,.13a4.75,4.75,0,0,1,1.07.46c-.13,0-.12,0-.2,0a2,2,0,0,1,.72.29,10.35,10.35,0,0,1,2.14.65,11.92,11.92,0,0,1,1.61.35c.15-.06-.56-.15-.55-.22a2.08,2.08,0,0,1,1,.23c0,.07-.42-.13-.3,0C734,541.09,732.77,540.59,732.31,540.43Zm-9.43-3.62,0-.07c.29.11.2.14.33.22A1.6,1.6,0,0,1,722.88,536.81Zm.65.43a3.15,3.15,0,0,1,1.17.45l0,.09c-.16-.06-.34-.23-.44-.2-.28-.16.12,0,.12,0C724.14,537.4,724,537.49,723.53,537.24Zm4.26,1.83a2.85,2.85,0,0,1,1.08.43A11,11,0,0,1,727.79,539.07Zm.49.36a4.69,4.69,0,0,1,.84.25A1.75,1.75,0,0,1,728.28,539.43Zm.77.13a2.13,2.13,0,0,1,.56.14C729.67,539.81,729.18,539.64,729.05,539.56Zm.32.31c0-.07.14,0,.38,0C729.76,540,729.6,540,729.37,539.87Zm.32-.09c.22-.09,1.18.41,1,.42A5.45,5.45,0,0,0,729.69,539.78Zm.85.18a5.07,5.07,0,0,1,.74.2C731.15,540.22,730.74,540.06,730.54,540Zm.3.37c-.08-.09.31,0,0-.14l1.19.4A3.4,3.4,0,0,1,730.84,540.33Z" transform="translate(-587.67 -429.41)"/><path class="r" d="M721.11,475c0,.14-.27.89-.38.88C720.93,475.43,720.92,475.4,721.11,475Z" transform="translate(-587.67 -429.41)"/><path class="r" d="M727.16,479c0,.11-.58,1.14-.63,1.42S727,479.19,727.16,479Z" transform="translate(-587.67 -429.41)"/><path class="r" d="M718.46,483.39a2.26,2.26,0,0,1-.22.6c-.06,0-.21.28-.26.24A2.91,2.91,0,0,0,718.46,483.39Z" transform="translate(-587.67 -429.41)"/><path class="r" d="M717.3,488.62c.17-.34.21-.2.38-.54,0,.1-.3.6-.31.46,0,.12-.07.2,0,.21C717.1,489.12,717.23,488.8,717.3,488.62Z" transform="translate(-587.67 -429.41)"/><path class="r" d="M712.9,499.39c.06,0,0,.25-.1.42C712,501.17,712.87,499.71,712.9,499.39Z" transform="translate(-587.67 -429.41)"/><path class="r" d="M713.27,500.15c.09-.13,0,.05.07,0l-.58.91C712.8,500.84,713.22,500.43,713.27,500.15Z" transform="translate(-587.67 -429.41)"/><path class="r" d="M716.09,503.77c0-.11,0-.09,0-.12a14.19,14.19,0,0,0,.91-1.52c-.07,0-.27.48-.34.53.08-.26.22-.36.38-.74.12-.05.06,0,.18,0-.4.77-.38.66-.9,1.64.07-.31-.31.49-.31.42s-.11.38-.29.55.13-.11,0,.13-.51,1.05-.54.87c-.05.11-.09.16-.12.17-.09.23.19-.13-.05.31.08-.33-.17.19-.27.33a20.44,20.44,0,0,1,1.09-2.31A2.49,2.49,0,0,1,716.09,503.77Z" transform="translate(-587.67 -429.41)"/><path class="r" d="M714.57,500.88c.1-.07-.4.66-.58,1A6,6,0,0,1,714.57,500.88Z" transform="translate(-587.67 -429.41)"/><path class="r" d="M712.33,501.47c0,.14-.31.49-.47.84-.08,0,.29-.51.21-.49A2.44,2.44,0,0,0,712.33,501.47Z" transform="translate(-587.67 -429.41)"/><path class="r" d="M707.5,509.08c-.09.27-.25.67-.43,1.08A7.52,7.52,0,0,1,707.5,509.08Z" transform="translate(-587.67 -429.41)"/><path class="r" d="M709.18,514.28a3.51,3.51,0,0,1-.15.82A6,6,0,0,1,709.18,514.28Z" transform="translate(-587.67 -429.41)"/><path class="r" d="M709.25,517.05c0,.16-.07.61,0,.63C709.17,517.92,709.18,517.22,709.25,517.05Z" transform="translate(-587.67 -429.41)"/><path class="r" d="M710.37,519c.09.12.2-.36.16-.66.08.14,0,.95.05,1.32,0-.3-.13-.33-.08-.49s-.1-.05-.09.08S710.41,519,710.37,519Z" transform="translate(-587.67 -429.41)"/><path class="r" d="M698.93,522.91a19.72,19.72,0,0,0,.72,3.89c0,.12.1.66,0,.69a20.47,20.47,0,0,1-.52-2.76A8.62,8.62,0,0,1,698.93,522.91Z" transform="translate(-587.67 -429.41)"/><path class="r" d="M708.49,522c-.07.08,0,.13,0,.35s0-.35-.09-.16c0-.25,0-.48,0-.45s0,.08,0,.09a.45.45,0,0,0,.08.17C708.51,522.09,708.49,522,708.49,522Z" transform="translate(-587.67 -429.41)"/><path class="r" d="M708.9,524.6c0,.16.06.36,0,.35a4.47,4.47,0,0,0-.19-.65s0,.11,0,.18a2.07,2.07,0,0,1-.21-.85,6.07,6.07,0,0,1,0-1c.06,0,.09.17.13.25C708.44,523,708.76,524.31,708.9,524.6Z" transform="translate(-587.67 -429.41)"/><path class="r" d="M710.56,525a4.11,4.11,0,0,1,.14.42,1.27,1.27,0,0,1-.13-.11c.21.52.44,1.16.71,1.79a5.7,5.7,0,0,0,1,1.56c.09.39.59.59.63.87,0-.09,0-.07.09-.09-.41-.32-.78-1-.69-1.06-.09.1.18,0,.21.25.1,0,0-.19.08-.06a3.66,3.66,0,0,1,.12.35,2.16,2.16,0,0,0,.31.3s-.06,0,0,.1c.06-.14.27.26.36.37,0-.16-.31-.46-.31-.61-.1,0-.09-.09-.24-.25,0,0,0,0,0-.1s-.15-.28-.3-.36c.07.12.05.14,0,.1a4.65,4.65,0,0,1-.52-.93c-.13.05-.18-.21-.29-.44,0,0-.06.06-.11,0s0-.14,0-.22c0,.11.23.32.15.14-.07,0-.18-.42-.24-.4s.07.21,0,.22c0-.18-.1-.11-.19-.37a.2.2,0,0,1-.21-.05c0-.2-.18-.35-.27-.58a.7.7,0,0,1,.06-.48c-.08-.22-.08-.29-.13-.34,0,.14,0,.16,0,.24a3.58,3.58,0,0,1-.27-1.07.58.58,0,0,1-.17-.43C710.31,524,710.61,524.8,710.56,525Zm1.08,2.54c0-.07,0-.07,0-.1a1.44,1.44,0,0,1,.19.29C711.82,527.88,711.68,527.39,711.64,527.54Z" transform="translate(-587.67 -429.41)"/><path class="r" d="M699.92,528c0-.23.13.62.29,1a5.08,5.08,0,0,1-.41-1.14C699.87,528,700,528.49,699.92,528Z" transform="translate(-587.67 -429.41)"/><path class="r" d="M709.48,526.92c-.06-.15-.1-.07-.15-.29a.7.7,0,0,0,0-.35s.07.15.1.13c-.06.18.16.56.06.69C709.45,527,709.44,526.94,709.48,526.92Z" transform="translate(-587.67 -429.41)"/><path class="r" d="M709.58,527.14c0-.09.1.13.07.15s.08.21.11.21c.06.19-.12,0-.18-.18S709.64,527.27,709.58,527.14Z" transform="translate(-587.67 -429.41)"/><path class="r" d="M701.09,532.13c.08.14.06.06,0,0,.2.26.62,1.18.85,1.46a2.4,2.4,0,0,1-.18-.24l-.36-.56c-.25-.42-.49-.85-.43-.91A.8.8,0,0,1,701.09,532.13Z" transform="translate(-587.67 -429.41)"/><path class="r" d="M702,533.89c-.15-.12.34.72.5,1.06,0-.08.89,1.2,1.58,2a11,11,0,0,1-1.18-1.37,5.71,5.71,0,0,1-.88-1.49,12.7,12.7,0,0,1-.75-1.38,38.18,38.18,0,0,0,2.28,3.41A14.35,14.35,0,0,1,702,533.89Z" transform="translate(-587.67 -429.41)"/><path class="r" d="M711.17,529.87c-.17-.27,0,0,.07-.06l.25.32c-.14-.1,0,.06,0,.12.16.21.12-.06.34.25,0,.07-.13-.09-.16-.07a2.91,2.91,0,0,1,.62.68c-.15-.05-.24-.21-.35-.37s-.19-.12-.25-.11a2.31,2.31,0,0,0-.2-.26s.11.1.18.17C711.55,530.42,711.28,529.89,711.17,529.87Z" transform="translate(-587.67 -429.41)"/><path class="r" d="M704.54,537.25c.07.12.21.3.32.45a2.51,2.51,0,0,1-.39-.38c.16.11.12,0-.13-.26.24.23.29.15.63.52C705,537.77,704.68,537.35,704.54,537.25Z" transform="translate(-587.67 -429.41)"/><path class="r" d="M705.78,538.27c.26.16.51.53.77.7C706.41,539,706,538.47,705.78,538.27Z" transform="translate(-587.67 -429.41)"/><path class="r" d="M712.52,531.33c.15.14.23.23.22.28.19.16.09,0,.12,0l.26.24c-.37-.25.09.14,0,.21C712.92,531.77,712.58,531.55,712.52,531.33Z" transform="translate(-587.67 -429.41)"/><path class="r" d="M714.18,532.82a6.82,6.82,0,0,1-.56-.47s.15.07.18.06c.15.17.61.57.34.47C714,532.78,714.19,532.88,714.18,532.82Z" transform="translate(-587.67 -429.41)"/><path class="r" d="M712.66,536.6c0,.09-1.07-.73-.61-.42C712.3,536.39,712.33,536.3,712.66,536.6Z" transform="translate(-587.67 -429.41)"/><path class="r" d="M712.61,536.68a6,6,0,0,1,.85.63C713.27,537.24,713,536.91,712.61,536.68Z" transform="translate(-587.67 -429.41)"/><path class="r" d="M716.27,534.7c0-.07-.24-.21-.2-.25.59.39.79.54,1.25.81-.21-.07-.11,0-.23,0l-.24-.16s.16.08.25.14A2,2,0,0,0,716.27,534.7Z" transform="translate(-587.67 -429.41)"/><path class="r" d="M717.93,535c.29.15.54.38,1,.62A4.78,4.78,0,0,1,717.93,535Z" transform="translate(-587.67 -429.41)"/><path class="r" d="M719.32,534.68c-.26-.14-.06-.13-.39-.29.11,0,.42.19.48.13C719.6,534.73,719,534.36,719.32,534.68Z" transform="translate(-587.67 -429.41)"/><path class="r" d="M718.75,535.72a8.2,8.2,0,0,0,.73.53l0,0C719.83,536.51,718.63,535.79,718.75,535.72Z" transform="translate(-587.67 -429.41)"/><path class="r" d="M720.48,535.78c0-.07.09,0,.13,0s.08.23.46.38-.2-.07-.2,0A1.42,1.42,0,0,0,720.48,535.78Z" transform="translate(-587.67 -429.41)"/><path class="r" d="M720.25,536.69c.15,0,.55.33.76.46-.06,0-.11,0-.12,0,.37.13.21.17.49.34.1,0,.08,0,.2,0,.28.14.38.23.31.28a4.32,4.32,0,0,0-.88-.47l0-.07a2.33,2.33,0,0,1-.43-.25c0,.08.08.14-.14.06-.06,0,.4.2.23.2s-.32-.23-.48-.35c.39.19.19,0,.15-.1a1.73,1.73,0,0,0,.43.24C720.91,537.05,720.51,536.86,720.25,536.69Z" transform="translate(-587.67 -429.41)"/><path class="r" d="M721,536a1.45,1.45,0,0,0,.5.3s0,.09.14.16S721,536.06,721,536Z" transform="translate(-587.67 -429.41)"/><path class="r" d="M721.85,537.68a.77.77,0,0,1,.49.36.65.65,0,0,1,.28.09C722.36,538.18,722.14,537.86,721.85,537.68Z" transform="translate(-587.67 -429.41)"/><path class="r" d="M724,550.49c.22,0,1,.39,1.46.54A10.11,10.11,0,0,1,724,550.49Z" transform="translate(-587.67 -429.41)"/><path class="r" d="M727.16,545.53c-.2-.08-.38-.11-.21,0-.55-.16-.62-.26-.07-.15.1,0,.18.17.3.13S727.13,545.48,727.16,545.53Z" transform="translate(-587.67 -429.41)"/><path class="r" d="M730.68,546.63s.11,0,.11,0a1.36,1.36,0,0,1,.53.09A1.14,1.14,0,0,1,730.68,546.63Z" transform="translate(-587.67 -429.41)"/><path class="r" d="M730.14,552.4a6.53,6.53,0,0,1,1.16.29C731.15,552.69,730.59,552.5,730.14,552.4Z" transform="translate(-587.67 -429.41)"/><path class="r" d="M744,554.38l-.31,0s-.06,0-.16,0l1.2-.2C744.78,554.27,744.08,554.28,744,554.38Z" transform="translate(-587.67 -429.41)"/><path class="r" d="M749.66,553c-.24.17-1.45.45-.71.31-1.28.34-2.37.57-3.61.82,1-.17,1.11-.14,1.69-.23-1,.3-1.64.21-2.28.4.24,0,.12,0,0,.07a3.47,3.47,0,0,1,.94-.08c-.16.08-1.28.11-1.38.22a21.56,21.56,0,0,0,5.32-1.23,19.85,19.85,0,0,0,4.87-2.63c-.22.13-.63.4-.83.5.1-.08.26-.18.25-.2a2,2,0,0,1-.28.16c.5-.3,1.19-.9.86-.7a5.13,5.13,0,0,1-1.17.82c-.31.24.36-.08-.18.28a14.76,14.76,0,0,1-2.85,1.39,10.16,10.16,0,0,0,2.34-1.28,10.67,10.67,0,0,1-2.41,1.15c-.13.08-.26.17-.4.24C749.29,553.18,749.94,552.94,749.66,553Zm-2.48.87c-.07-.06.63-.25.88-.28A4.09,4.09,0,0,1,747.18,553.88Z" transform="translate(-587.67 -429.41)"/><path class="r" d="M744.69,553.3a7.33,7.33,0,0,1,.86-.15c-.08,0-.16.07,0,.05A5.06,5.06,0,0,1,744.69,553.3Z" transform="translate(-587.67 -429.41)"/><path class="r" d="M753.9,550.21l.7-.61a6.8,6.8,0,0,1,.75-.6c-.15.16-.39.36-.63.57Z" transform="translate(-587.67 -429.41)"/><path class="r" d="M754.86,549.66c-.16.12-.15,0-.19,0,.31-.23.87-.85.88-.68C755.21,549.29,754.75,549.56,754.86,549.66Z" transform="translate(-587.67 -429.41)"/><path class="r" d="M758.94,546.39s-.05,0-.12.06a5.09,5.09,0,0,1,.87-1C759.55,545.72,759.2,546,758.94,546.39Z" transform="translate(-587.67 -429.41)"/><path class="r" d="M749.73,538c-.15.2-.42.37-.28.15C749.42,538.08,749.57,538.07,749.73,538Z" transform="translate(-587.67 -429.41)"/><path class="r" d="M759.62,544.55c-.13.17-.18.18-.31.36a3.67,3.67,0,0,1,.53-.78C760.05,543.92,759.46,544.62,759.62,544.55Z" transform="translate(-587.67 -429.41)"/><path class="r" d="M761.67,542.1c.21-.43.85-1.17,1.08-1.69A8.63,8.63,0,0,1,761.67,542.1Z" transform="translate(-587.67 -429.41)"/><path class="r" d="M762.55,541.11c0,.06.1-.05.18-.16,0,0-.14.28-.25.39s.14-.49.21-.42Z" transform="translate(-587.67 -429.41)"/><path class="r" d="M752.73,533.8c-.13.09.41-.5.48-.72-.08.25.19-.11.32-.26a2.76,2.76,0,0,1-.46.74C753.27,533.16,752.88,533.63,752.73,533.8Z" transform="translate(-587.67 -429.41)"/><path class="r" d="M751.41,531.59c.06,0-.17.28-.24.4-.08-.1.12-.43.32-.78Z" transform="translate(-587.67 -429.41)"/><path class="r" d="M765.82,536.83c0-.16.31-.5.48-.82A9.37,9.37,0,0,1,765.82,536.83Z" transform="translate(-587.67 -429.41)"/><path class="r" d="M758.67,522.35s-.06.11-.11.27c0-.14.06-.3-.08.08-.07,0,.15-.54.26-.73C758.77,522,758.5,522.65,758.67,522.35Z" transform="translate(-587.67 -429.41)"/><path class="r" d="M761.58,512.24c0,.25,0-.6,0-.69a1.24,1.24,0,0,0,.13-.6c.14-.14,0,.45-.09.86.06,0,.08-.23.11-.34C761.73,511.62,761.59,511.84,761.58,512.24Z" transform="translate(-587.67 -429.41)"/><path class="r" d="M762,509.52c0,.16,0,.51-.06.42,0-.49-.1-.57-.16-.33,0-.05,0-.19-.07-.16C761.81,509.14,761.91,509.48,762,509.52Z" transform="translate(-587.67 -429.41)"/><path class="r" d="M761.73,508.15c.07.07.13-.26.16-.1s-.1,0-.16.26c0-.13,0-.15-.05-.15,0-.5-.09-.67-.12-1.28a.63.63,0,0,1,.07.4c.07-.19.09.28.19.54h-.12C761.72,507.94,761.72,508.05,761.73,508.15Z" transform="translate(-587.67 -429.41)"/><path class="r" d="M760.2,505.13c.15.1,0-.27,0-.42C760.34,504.88,760.35,505.7,760.2,505.13Z" transform="translate(-587.67 -429.41)"/><path class="r" d="M760.38,501c.1.19.43,1.2.06.27A2,2,0,0,0,760.38,501Z" transform="translate(-587.67 -429.41)"/><path class="r" d="M759.88,500a5.82,5.82,0,0,1,.46,1c-.13-.18,0,.14-.07.23a1.88,1.88,0,0,1-.2-.71c-.07-.12,0,0-.12-.05a1.53,1.53,0,0,0-.21-.51C759.7,499.75,759.92,500.25,759.88,500Z" transform="translate(-587.67 -429.41)"/><path class="r" d="M760.09,500a24.53,24.53,0,0,1-1.44-2.57c0-.09-.07-.05-.1-.05-.09-.24-.1-.29,0-.23a2.58,2.58,0,0,1-.29-.62c-.06-.1-.11-.16-.15-.14a48.29,48.29,0,0,0-2.69-4.65c.23.24-.15-.32,0-.26l-.18-.25c0,.06.19.36.08.32-.22-.46-.36-.64-.36-.89.15.1.2.55.31.42a81.65,81.65,0,0,1,3.91,7.26c.09.24.12.15.18.23s.19.41.15.45.16.26.21.22A5.16,5.16,0,0,0,760.09,500Z" transform="translate(-587.67 -429.41)"/><path class="r" d="M758.21,491.84c-.06,0-.27-.41-.37-.5a2.34,2.34,0,0,0,.11.3,20.13,20.13,0,0,1-1.45-2.32c.27.19-.94-1.92-1.17-2-.2-.28-.07-.23-.17-.41s-.29-.28-.49-.56c.06.06.11.06.14,0a3.69,3.69,0,0,1-.42-1,1.87,1.87,0,0,1-.42-.62c.29.36,0-.13-.23-.5a10.61,10.61,0,0,1,.91,1.19s-.13-.14-.17-.14a8,8,0,0,0,.67,1.22c.05.13,0,.17-.1.07.24.23.66,1.11.88,1.2a6.35,6.35,0,0,0,.35.66c-.14,0-.17-.28-.33-.54a.47.47,0,0,0-.17-.14Z" transform="translate(-587.67 -429.41)"/><path class="r" d="M758.42,490.44c.05.21.37.71.38.89-.21-.39-.46-.93-.6-1.13S758.37,490.4,758.42,490.44Z" transform="translate(-587.67 -429.41)"/><path class="r" d="M767.75,483c-.06-.06-.11-.07-.14,0a1.67,1.67,0,0,0-.4-.81c0-.09,0-.09-.06-.23.12,0,.15.23.37.56C767.43,482.45,767.58,482.69,767.75,483Z" transform="translate(-587.67 -429.41)"/><path class="r" d="M755.11,488.74c.35.51.51.8.86,1.33-.05,0-.11-.09-.2-.25,0,.06,0,.12,0,.14a6,6,0,0,0-.84-1.35C755,488.73,755.47,489.33,755.11,488.74Z" transform="translate(-587.67 -429.41)"/><path class="r" d="M754.3,487.5c.05.21-.21-.38-.09-.32a3.75,3.75,0,0,0,.2.37C754.42,487.62,754.15,487.23,754.3,487.5Z" transform="translate(-587.67 -429.41)"/><path class="r" d="M753.57,487.37s0,0-.08-.07l0,0c0-.19-.67-1.07-.48-1.08.13.18.08.19,0,.22Z" transform="translate(-587.67 -429.41)"/><path class="r" d="M750,485c-.17-.26-.13-.31-.3-.57a3.86,3.86,0,0,1,.51.68s0-.14,0-.14a5.76,5.76,0,0,0,.4.63.6.6,0,0,0-.13-.3c.13.09.19.28.36.39s-.1.05-.16,0a2.49,2.49,0,0,0,.23.49c-.06,0-.15-.19-.18-.13A5.69,5.69,0,0,0,750,485Z" transform="translate(-587.67 -429.41)"/><path class="r" d="M754.73,482.88c.06.1,0,.06,0,0s.11.22,0,.22c-.16-.29-.19-.43-.32-.69S754.71,482.94,754.73,482.88Z" transform="translate(-587.67 -429.41)"/><path class="r" d="M753.75,482.4a1.46,1.46,0,0,1-.43-.49c.32.28-.36-.51-.49-.83-.06-.08-.24-.18-.14,0-.22-.41-1.11-1.81-1.38-2.45-.25-.1-.38-.68-.6-.76s0-.1,0-.24a11.84,11.84,0,0,1-.79-1.29c-.08-.14.23,0-.1-.33,0-.21.36.46.31.57a8.64,8.64,0,0,1,.6,1c.11.15.16.18.19.12a5.51,5.51,0,0,0,.64,1c-.32,0,.79,1.26.94,1.84C752.83,481,753.23,481.68,753.75,482.4Z" transform="translate(-587.67 -429.41)"/><path class="r" d="M751.14,481.51a2,2,0,0,1-.38-.51c-.11,0,0,.16,0,.16a11.3,11.3,0,0,0-.77-1c.26.15-1.12-1.92-1-2.17a2.27,2.27,0,0,1-.26-.36,3.26,3.26,0,0,0-.42-.89c-.14-.54-.75-1.6-.81-2,.13.28.53.8.43.63,1.06,1.56,2.53,4.5,3.56,5.54-.16-.32-.44-.48-.8-1.14.35.43.48.44.94,1,.07,0-.4-.57-.23-.49a5.67,5.67,0,0,1,.4.63c-.38-.3.45,1,.65,1.25,0,0-.18-.23-.19-.12a5.6,5.6,0,0,0-.52-.82,9.42,9.42,0,0,0,1,1.78c-.45-.66-1-1.16-1.6-1.89-.21-.38-.52-.87-.65-.85-.13-.22,0-.22-.23-.5s-.09.11-.48-.58c-.09-.11-.15-.14-.2-.12.07.3.79,1.17.56,1.06.12.21.12.1.21.24s-.27-.4-.11-.31.29.43.17.4C750.66,481,750.8,481,751.14,481.51Z" transform="translate(-587.67 -429.41)"/><path class="r" d="M753.21,481.19c-.05,0-.12-.24-.29-.45,0-.15,0-.08.16,0S753,480.78,753.21,481.19Z" transform="translate(-587.67 -429.41)"/><path class="r" d="M750.75,477.4c-.22-.35-.48-.77-.72-1.21A7.15,7.15,0,0,1,750.75,477.4Z" transform="translate(-587.67 -429.41)"/><path class="r" d="M749,476.44c.21-.05.67,1.08.94,1.59C749.53,477.45,749.13,476.83,749,476.44Z" transform="translate(-587.67 -429.41)"/><path class="r" d="M752.55,471.57c-.24-.37-.1-.34-.25-.62S752.69,471.62,752.55,471.57Z" transform="translate(-587.67 -429.41)"/><path class="r" d="M752.74,460.52c-.2-.35-.07-.35-.18-.61C752.62,460,752.8,460.46,752.74,460.52Z" transform="translate(-587.67 -429.41)"/><path class="r" d="M749.31,460.79c-.09,0-.1-.27-.24-.47a1.25,1.25,0,0,1,.32.42C749.31,460.68,749.16,460.48,749.31,460.79Z" transform="translate(-587.67 -429.41)"/><path class="r" d="M751.4,457.63a3.45,3.45,0,0,1-.35-.86A6.24,6.24,0,0,1,751.4,457.63Z" transform="translate(-587.67 -429.41)"/><path class="r" d="M751.46,457.23c-.17-.14-.17-.4-.25-.56C750.91,456,751.46,457.12,751.46,457.23Z" transform="translate(-587.67 -429.41)"/><path class="r" d="M745.82,451.35c-.08-.17-.13-.18-.22-.37.08,0,.46.68.51.83-.28-.42-.06.12-.11.19-.18-.19-.4-.51-.32-.19a6,6,0,0,1-.37-1C745.51,451.21,745.76,451.72,745.82,451.35Z" transform="translate(-587.67 -429.41)"/><path class="r" d="M740.61,441.39c.11.4.12.23.1.06-.09.07-.28-.6-.51-1.06,0-.08,0-.26.06-.25.11.28.34,1,.45.87.35.64.83,1.81,1.18,2.3.08-.41-.3-1-.68-1.67.11,0,0-.27,0-.41a7.94,7.94,0,0,1,1,2.36c-.13-.21,0,.24-.15,0a18.58,18.58,0,0,1,.42,1.85c.1.23.14.18.25.46-.07,0-.08.06-.06.15.2.3.43.72.21.59.09.16.21.48.22.35.06.17,0,.23.09.43s.1,0,.23.35c-.06.14.28.76.19.86a2.81,2.81,0,0,1,.44,1.33c-.81-1.12-.91-2.08-1.72-3.72.14-.07-.07-.59-.36-1.09-.06-.18,0-.25,0-.26a7.25,7.25,0,0,1-.36-.84,14.93,14.93,0,0,1-1.67-2.87c0-.16,0-.2-.13-.49a8.25,8.25,0,0,0,.66.89C740.47,441.42,740.55,441.42,740.61,441.39Z" transform="translate(-587.67 -429.41)"/><path class="r" d="M731.51,448.56c0,.09,0,.13.07.12-.13.46-.1.6-.23,1.05,0-.09-.18.09-.14.19s0-.47-.17.3c-.09,0,.12-.68,0-.65A3.33,3.33,0,0,0,731.51,448.56Z" transform="translate(-587.67 -429.41)"/><path class="r" d="M710.42,521.21c.08.17.1.53.18.69s-.05.17-.11.17,0,.15,0,.16c.09.21,0,.41.14.67a1.17,1.17,0,0,0,0,.62c-.15-.51-.12-1.07-.2-1.36s.07-.26.08-.48a2.26,2.26,0,0,1-.13-.63s.07,0,.07-.16c0,0,0,.08.08.07A2.3,2.3,0,0,1,710.42,521.21Z" transform="translate(-587.67 -429.41)"/><path class="r" d="M719.07,535.75c.14.06.16,0,.37.14-.1.07.32.29.64.48,0,.11-.55-.28-.79-.4C719.21,535.9,719.3,535.88,719.07,535.75Z" transform="translate(-587.67 -429.41)"/><path class="r" d="M753,488.44c0-.09.2.29.27.19,0,.17.36.69.24.73.32.45.59.74.69.54a9.18,9.18,0,0,1,1.49,2.77c-.09.46-.47.2-.94-.49-.68-1-1.11-2.39-1.71-3.13-.15-.32-.7-1.22-.89-1.68.12.05,0,0,.11-.09.23.33.56.94.64.84A.75.75,0,0,1,753,488.44Z" transform="translate(-587.67 -429.41)"/></g><path class="s" d="M719.93,524.46a2.71,2.71,0,0,1,1.79-3.93l2.26-.66c1.72-.48,2.68.19,3.59,2a12.91,12.91,0,0,0,11.81,6.31c7.08-.19,11.3-4.09,11.16-9.25-.12-4.56-3.65-7.3-8.18-9l-8.25-2.79c-10.48-3.51-13.17-10.23-13.32-15.82-.27-10.41,7.89-17,17.41-17.25,8.64-.24,14.89,4.16,17.59,10.89a2.74,2.74,0,0,1-1.79,3.92l-1.94.74c-1.72.56-2.84-.1-3.67-1.88-1.91-3.91-5.34-5.71-9.9-5.59-5.19.14-9.43,3.35-9.29,8.68.06,2.5.86,5.75,7.21,8.16l8.26,3.13c9.36,2.94,13.79,9.53,14,16,.29,10.84-7.39,17.76-18.87,18.07C730,536.41,723,531.43,719.93,524.46Z" transform="translate(-587.67 -429.41)"/><path class="s" d="M720.42,524.44c-.91-2.65,1.46-4.11,3.81-4.37,2.6-.29,3.95,3.75,5.83,5.26a15.08,15.08,0,0,0,11.81,2.82c3.6-.56,7.26-2.39,8.63-6,1.49-3.86-.18-7.8-3.41-10.13-5.75-4.14-13.51-4.14-19.29-8.34a16.29,16.29,0,0,1-3-23.19c7.46-9.1,23.39-8.18,29.33,2.1,1.42,2.46,2.15,4.87-.89,6.22a7.07,7.07,0,0,1-1.56.6c-2.51.38-2.87-2.14-4.06-3.67-2.23-2.85-5.76-3.94-9.29-3.83s-7.38,1.67-9,5.12a8,8,0,0,0,1.59,9.09c2.22,2.13,5.32,3.05,8.13,4.11,3.37,1.28,7.08,2.34,10.2,4.13,4.89,2.81,8.48,7.64,8.77,13.38a16.78,16.78,0,0,1-5.41,13.59c-9.87,8.64-26.94,4.92-32.28-6.91-.12-.26-1.09-.24-1,0,4.19,9.28,14.3,13.07,24,11.56,9.37-1.46,16.3-8.68,15.66-18.46A16.31,16.31,0,0,0,753,506.2c-3-2.5-6.63-3.69-10.23-5.06s-8.13-2.44-10.91-5.12c-3.59-3.48-2.59-9.66,1.57-12.23a10.84,10.84,0,0,1,11.29.16,9.14,9.14,0,0,1,2.5,2.61c.68,1.06,1,2.38,2.2,3,1.84,1,5.94-.28,6.85-2.12s-.59-4-1.49-5.44a16.81,16.81,0,0,0-5.42-5.39,20.71,20.71,0,0,0-12.63-2.73c-9.56.83-17.18,8.33-16.42,18.22.67,8.74,7.64,13.15,15.25,15.72,3.88,1.31,8.51,2.3,11.62,5.1,5.37,4.83,2.44,12.44-3.89,14.37a13.48,13.48,0,0,1-12.89-2.55c-1.59-1.44-2.48-4.52-4.65-5.15-1.29-.37-2.83.22-4,.63-2.06.69-3,2-2.28,4.21C719.54,524.73,720.52,524.74,720.42,524.44Z" transform="translate(-587.67 -429.41)"/></svg>