<svg xmlns="http://www.w3.org/2000/svg" viewBox="0 0 604.67 670.11"><defs><style>.a{fill:#565554;}.b{fill:#f25726;}.c{fill:none;stroke:#000;stroke-miterlimit:10;}</style></defs><title>redislogo</title><path class="a" d="M903.42,236.13Q876,219.38,836.66,220.76q-45.92,1.61-66.19,20.5t-19.11,49.68q.6,15.63,6.3,26a44.76,44.76,0,0,0,17.22,17.1q11.54,6.74,29.17,11.4t41.67,8.89a458.07,458.07,0,0,1,46.37,10.56q7.49,2.16,14.19,4.81m12.14,26.57Q905,388,885.2,382t-46.59-11.5q-27.24-5.52-48-11.72t-35.12-15.64q-14.34-9.42-21.51-22.76t-7.16-33.57q0-22.06,8.84-39.08A83.27,83.27,0,0,1,760.24,219Q776,207.29,798,201.32t48.75-6q33,0,58.77,9.43a133.4,133.4,0,0,1,12.61,5.33m1.77,316.46c-4.24,1.51-8.69,2.83-13.34,4q-22.21,5.52-49.46,5.52-79.33,0-134.29-48.75l12.91-18.85q21.49,21.61,52.56,34.26T858,515.37q38,0,61.85-11.42" transform="translate(-655.99 -43.04)"/><path class="b" d="M903.51,528.81V210h23.9V403.37L1124.72,210h28.2l-141,139.35,148.15,179.45h-27.72l-136.2-165.5-68.76,67.06v98.44Z" transform="translate(-655.99 -43.04)"/><path class="b" d="M905,528.71v-314c0-1.41.12-2.87,0-4.27,0-.18,0-.36,0-.54l-1.59,1.18h23.89l-1.34-1V395.54c0,2.52-.16,5.09,0,7.6v.33c0,1.46,2,1,2.68.34l5.28-5.18,14.38-14.08,21.25-20.83,25.93-25.42,28.29-27.72,28.67-28.09,26.72-26.19,22.51-22.05,16.25-15.93c2.56-2.5,5.28-4.91,7.71-7.55.1-.11.22-.22.33-.32l-1.34.63h28.19l-1.09-1.52-14.07,13.91L1104,256.75l-40.81,40.35L1028,331.84l-11.57,11.44c-1.82,1.79-3.76,3.52-5.47,5.41-.08.08-.16.15-.23.23a.84.84,0,0,0-.11,1.08l4,4.81,10.8,13.07,15.88,19.24,19.47,23.58,21.32,25.83,21.53,26.08,20,24.2,17,20.56,12.21,14.79,3.79,4.6a22.82,22.82,0,0,0,2,2.4,2.43,2.43,0,0,1,.24.3l1.45-1.73h-27.72l1.2.44-13.54-16.46-32.54-39.54-39.36-47.83-34-41.33c-5.5-6.68-10.84-13.54-16.52-20.07l-.22-.27c-.66-.81-1.92-.41-2.54.2L971,386.2l-37.3,36.38-5.29,5.16a17.67,17.67,0,0,0-2.23,2.18c-.49.67-.27,1.74-.27,2.53v96.47l1.59-1.19H903.64c-1.67,0-2.22,2.16-.25,2.16h23.89c.58,0,1.6-.5,1.6-1.18V435.07a32.6,32.6,0,0,0,0-4.42c-.12-.8.17.24-.22.13.08,0,.66-.65.72-.71l4-3.94,35.38-34.5,28.11-27.42.48-.46-2.54.2,4.66,5.67,12.42,15.1,18,21.85,21.33,25.93,22.59,27.44,21.41,26L1113.39,508l12.71,15.44,3.56,4.32a13.85,13.85,0,0,0,1.38,1.68c.73.64,2,.44,3,.44h26c.7,0,2.15-.88,1.45-1.72l-4-4.81-10.79-13.07-15.88-19.24-19.47-23.58L1090,441.64l-21.53-26.08-20-24.2-17-20.56L1019.29,356l-3.79-4.6a19.21,19.21,0,0,0-2-2.4,2.43,2.43,0,0,1-.24-.3l-.11,1.09,14.07-13.91,33.67-33.28,40.81-40.34,35.15-34.75,11.57-11.44c1.82-1.79,3.76-3.51,5.47-5.41l.23-.22c.86-.85-.33-1.52-1.09-1.52H1128c-1.42,0-3.31-.36-4.46.64-2.35,2-4.5,4.4-6.72,6.59l-17.41,17.06-25.14,24.63-30,29.43-31.84,31.21-30.58,30-26.45,25.92-19.43,19c-3.08,3-6.44,5.91-9.31,9.13-.12.13-.27.26-.4.39l2.69.33V217.83c0-2.52.12-5.08,0-7.6,0-.11,0-.22,0-.33,0-.76-.7-1-1.35-1H903.64c-.58,0-1.6.49-1.6,1.18V516c0,4.13,0,8.26,0,12.4v.54C902,530.45,905,530,905,528.71Z" transform="translate(-655.99 -43.04)"/><polyline class="c" points="603.79 406.38 604.17 501.19 303.79 669.54 2.07 503.41 1.62 390.87"/><polyline class="c" points="0.91 270.69 0.5 168.93 300.89 0.57 602.61 166.7 603.02 270.69"/><polygon class="c" points="584.95 491.93 584.95 175.71 301.76 17.6 18.57 175.71 18.57 491.93 301.76 650.03 584.95 491.93"/><polyline class="c" points="256.63 80.91 47.56 194.94 47.56 270.69"/><polyline class="c" points="555.49 270.69 555.49 194.94 346.43 80.91"/><polyline class="c" points="346.43 585.98 555.49 471.96 555.49 406.38"/><polyline class="c" points="47.56 390.87 47.56 471.96 256.63 585.98"/></svg>