<svg xmlns="http://www.w3.org/2000/svg" viewBox="0 0 101.48 81.27"><defs><style>.a{fill:#565554;}.b{fill:#f25726;}</style></defs><title>tab icon</title><path class="a" d="M43.94,19.5q-6.42-4.18-15.79-4.13-10.95.06-15.91,4.42T7.34,31.48a14,14,0,0,0,1.31,6.24,10.71,10.71,0,0,0,4,4.2,28.51,28.51,0,0,0,6.87,2.92q4.17,1.23,9.86,2.41a109,109,0,0,1,11,2.84c1.18.38,2.29.8,3.34,1.25m2.71,6.41a33.28,33.28,0,0,0-7.81-3.63q-4.68-1.56-11-3.07T16.2,47.92a31.44,31.44,0,0,1-8.26-4,15,15,0,0,1-5-5.57,16.89,16.89,0,0,1-1.47-8.05,20,20,0,0,1,2.38-9.24A19.85,19.85,0,0,1,10,14.42a26.5,26.5,0,0,1,9.11-3.95A43.94,43.94,0,0,1,30.73,9.39a40.53,40.53,0,0,1,13.93,2.66,31.67,31.67,0,0,1,3,1.36M45.8,88.79a32.45,32.45,0,0,1-3.2.85,48.38,48.38,0,0,1-11.82,1Q11.9,90-.85,78.05l3.2-4.4a37,37,0,0,0,12.28,8.53,43.76,43.76,0,0,0,16.53,3.51q9,.27,14.8-2.29" transform="translate(0.85 -9.36)"/><path class="b" d="M43.07,89.59V12.41h5.36V59.22L92.69,12.41H99L67.39,46.15l33.23,43.44H94.4L63.85,49.52,48.43,65.76V89.59Z" transform="translate(0.85 -9.36)"/></svg>