<svg xmlns="http://www.w3.org/2000/svg" viewBox="0 0 737 771.39"><defs><style>.a,.b,.i,.j,.k,.l,.m{fill:none;stroke-miterlimit:10;}.a,.j{stroke:#000;}.a,.b,.k{stroke-width:2px;}.b,.i,.m{stroke:#f25726;}.c{opacity:0.34;}.d{fill:#0d0d0f;}.e{fill:#f25726;}.f{fill:#3d3d3f;}.g{fill:#464343;}.h{fill:#222327;}.i,.j{stroke-width:4px;}.k,.l{stroke:#35363a;}.l,.m{stroke-width:3px;}</style></defs><title>webdevelepent</title><polyline class="a" points="303.31 0.87 1 174.62 1 291.77"/><polyline class="b" points="736 291.77 736 174.62 433.69 0.87"/><polyline class="a" points="433.69 770.52 736 596.76 736 496.7"/><polyline class="b" points="1 472.39 1 596.76 303.31 770.52"/><g class="c"><polygon class="d" points="406.57 518.27 330.43 518.27 334.78 485.68 402.84 485.68 406.57 518.27"/><path class="e" d="M472.48,1324v20.12a7.48,7.48,0,0,0,7.47,7.43H765.34a7.48,7.48,0,0,0,7.47-7.43V1324Z" transform="translate(-254.15 -865.56)"/><path class="f" d="M772.81,1153.06a7.47,7.47,0,0,0-7.47-7.43H480a7.47,7.47,0,0,0-7.47,7.43V1324H772.81Z" transform="translate(-254.15 -865.56)"/><rect class="g" x="228.92" y="289.97" width="279.16" height="158.51"/><polygon class="e" points="330.43 518.27 406.57 518.27 419.97 521.42 317.03 521.49 330.43 518.27"/><polygon class="h" points="419.26 523.17 317.73 523.17 317.06 521.49 419.97 521.42 419.26 523.17"/><polyline class="a" points="357.67 302.43 307.39 329.77 307.39 348.21"/><polyline class="b" points="429.64 348.21 429.64 329.77 379.36 302.43"/><polyline class="a" points="379.36 423.54 429.64 396.2 429.64 380.45"/><polyline class="b" points="307.39 376.63 307.39 396.2 357.67 423.54"/><line class="i" x1="347.17" y1="400.09" x2="392.78" y2="325.32"/><path class="e" d="M667.57,1221.67v11.46l-26.33-9.63v-11.6Zm-26.33,10.07,9.24-2.48,14.45,5.25-23.69,8.76Z" transform="translate(-254.15 -865.56)"/><path class="e" d="M575.47,1233.06l.09-11.46,26.25,9.83-.09,11.6Zm26.4-9.87-9.26,2.41-14.4-5.36,23.75-8.58Z" transform="translate(-254.15 -865.56)"/><polyline class="a" points="366 460.8 356.91 465.54 356.91 468.74"/><polyline class="b" points="379 468.74 379 465.54 369.92 460.8"/><polyline class="a" points="369.92 481.8 379 477.06 379 474.33"/><polyline class="b" points="356.91 473.67 356.91 477.06 366 481.8"/><line class="i" x1="364.1" y1="477.73" x2="372.34" y2="464.77"/><path class="e" d="M630.22,1335.67v2l-4.76-1.67v-2Zm-4.76,1.75,1.67-.43,2.61.91-4.28,1.52Z" transform="translate(-254.15 -865.56)"/><path class="e" d="M613.58,1337.65v-2l4.75,1.7,0,2Zm4.77-1.72-1.67.42-2.61-.93,4.29-1.49Z" transform="translate(-254.15 -865.56)"/></g><polyline class="j" points="328.72 150.09 148.82 252.47 148.82 321.5"/><polyline class="i" points="586.2 321.5 586.2 252.47 406.3 150.09"/><polyline class="j" points="406.3 603.58 586.2 501.2 586.2 442.25"/><polyline class="i" points="149.88 423.37 148.82 497.38 330.96 592.13"/><path class="k" d="M667.56,1170.52" transform="translate(-254.15 -865.56)"/><line class="l" x1="180.82" y1="271.47" x2="351.72" y2="348.87"/><line class="m" x1="373.8" y1="363.92" x2="373.8" y2="602.58"/></svg>