<svg xmlns="http://www.w3.org/2000/svg" viewBox="0 0 737 1055"><defs><style>.a{opacity:0.15;}.b{opacity:0.76;}.c{fill:#c15737;}.d{font-size:100.05px;font-family:KorolevMilitaryStencil, Korolev Military Stencil;}.e{letter-spacing:-0.06em;}.f,.g{fill:none;stroke-miterlimit:10;stroke-width:2px;}.f{stroke:#000;}.g{stroke:#f25726;}.h{opacity:0.81;}.i{fill:#f25726;}.j{fill:#0d0d0f;}.k{fill:#464343;}.l{fill:#868789;}.m{fill:#b0b2b3;}.n{fill:#58585a;}</style></defs><title>website logo</title><g class="a"><g class="b"><path class="c" d="M1702.48,1226.17a340.81,340.81,0,1,1-25.87-130.63A341.75,341.75,0,0,1,1702.48,1226.17Zm0,0a340.75,340.75,0,1,0-26,130.57A341.47,341.47,0,0,0,1702.48,1226.17Z" transform="translate(-993.75 -832.65)"/></g><g class="b"><polygon class="c" points="367.49 52.28 367.98 137.59 368.25 222.9 368.49 393.52 368.26 564.14 367.98 649.45 367.49 734.76 367 649.45 366.72 564.14 366.49 393.52 366.72 222.9 367 137.59 367.49 52.28"/></g><g class="b"><path class="c" d="M1266.43,898.28c-3.59,13.33-6.87,26.74-10,40.2-1.58,6.72-3,13.47-4.53,20.2L1247.68,979q-8.31,40.56-14.5,81.51c-4.22,27.28-7.42,54.7-9.92,82.18l-1.64,20.63c-.32,3.43-.41,6.88-.6,10.32l-.52,10.33-.52,10.34c-.17,3.44-.15,6.89-.23,10.34l-.35,20.68.33,20.68.09,5.17,0,2.59.12,2.58.5,10.33.5,10.34.26,5.16.39,5.16,1.56,20.64q3.71,41.22,9.49,82.23t13.4,81.72q3.75,20.36,7.89,40.65t8.82,40.47q-5-20.12-9.3-40.37t-8.37-40.57q-7.85-40.68-14-81.68l-2.91-20.51c-.94-6.85-1.7-13.71-2.55-20.57l-1.25-10.28-1-10.31c-.67-6.88-1.45-13.74-2-20.63l-1.61-20.66-.4-5.17-.27-5.17-.53-10.36-.52-10.35-.13-2.59-.06-2.59-.1-5.18-.37-20.73.4-20.73c.09-3.46.07-6.91.25-10.37l.54-10.35.54-10.35c.21-3.45.3-6.9.63-10.34l1.69-20.66.42-5.17c.15-1.72.36-3.43.53-5.15l1.11-10.3c.76-6.87,1.39-13.75,2.35-20.59l2.69-20.55,3.11-20.49q6.48-40.93,15.07-81.48l4.49-20.23c1.6-6.71,3.11-13.45,4.77-20.15C1259.24,925,1262.69,911.57,1266.43,898.28Z" transform="translate(-993.75 -832.65)"/></g><g class="b"><path class="c" d="M1475.72,1549c3.5-13.17,6.7-26.42,9.71-39.7,1.54-6.64,2.93-13.31,4.4-20l4.12-20q8.07-40.07,14-80.52c4-26.94,7.08-54,9.41-81.15l1.51-20.37c.3-3.39.36-6.79.54-10.19l.45-10.2.46-10.2c.14-3.4.1-6.81.16-10.21l.23-20.42-.47-20.41-.12-5.1-.06-2.55-.14-2.55-.57-10.2-.57-10.19-.28-5.1-.43-5.09-1.69-20.35q-4-40.67-10-81.09t-13.91-80.55q-3.87-20.05-8.14-40.05t-9.07-39.86q5.07,19.8,9.55,39.75t8.62,40q8.11,40.1,14.47,80.5l3,20.23c1,6.74,1.78,13.52,2.69,20.28l1.31,10.14L1516,1124c.71,6.78,1.53,13.55,2.16,20.34l1.73,20.38.44,5.1.3,5.11.59,10.21.59,10.21.15,2.56.07,2.55.13,5.12.5,20.46-.26,20.47c-.07,3.41,0,6.82-.2,10.23l-.47,10.22-.48,10.22c-.18,3.4-.26,6.81-.56,10.21l-1.56,20.4-.39,5.1c-.14,1.7-.33,3.39-.5,5.09l-1,10.18c-.72,6.78-1.31,13.57-2.23,20.33l-2.56,20.3-3,20.23q-6.24,40.42-14.56,80.49l-4.37,20c-1.55,6.64-3,13.3-4.63,19.92C1482.74,1522.62,1479.38,1535.84,1475.72,1549Z" transform="translate(-993.75 -832.65)"/></g><g class="b"><polygon class="c" points="684.63 516.57 605.35 517.06 526.06 517.34 367.49 517.57 208.92 517.34 129.63 517.06 50.34 516.57 129.63 516.08 208.92 515.8 367.49 515.57 526.06 515.8 605.35 516.08 684.63 516.57"/></g><g class="b"><polygon class="c" points="708.73 389.21 623.42 389.7 538.11 389.98 367.49 390.21 196.87 389.98 111.56 389.7 26.25 389.21 111.56 388.73 196.87 388.45 367.49 388.22 538.11 388.45 623.42 388.73 708.73 389.21"/></g><g class="b"><polygon class="c" points="684.63 267.33 605.35 267.81 526.06 268.09 367.49 268.32 208.92 268.1 129.63 267.82 50.34 267.33 129.63 266.84 208.92 266.56 367.49 266.33 526.06 266.56 605.35 266.84 684.63 267.33"/></g></g><text class="d" transform="translate(98.01 913.22)">http//:WW<tspan class="e" x="439.63" y="0">W</tspan><tspan x="514.37" y="0">.</tspan></text><polyline class="f" points="303.31 0.87 1 174.62 1 291.77"/><polyline class="g" points="736 291.77 736 174.62 433.69 0.87"/><polyline class="f" points="433.69 770.52 736 596.76 736 496.7"/><polyline class="g" points="1 472.39 1 596.76 303.31 770.52"/><g class="h"><path class="i" d="M1473.32,923H1251.56a5.61,5.61,0,0,0-5.59,5.59v147.79h232.94V928.59A5.61,5.61,0,0,0,1473.32,923Z" transform="translate(-993.75 -832.65)"/><rect class="j" x="262.59" y="99.98" width="212.44" height="136.5"/><polygon class="k" points="510.12 257.52 226.87 257.52 212.9 252.4 524.1 252.4 510.12 257.52"/><path class="l" d="M1363.21,928.77a1,1,0,1,1-1-1A1,1,0,0,1,1363.21,928.77Z" transform="translate(-993.75 -832.65)"/><rect class="m" x="343.19" y="243.7" width="50.43" height="5.12"/><path class="k" d="M1383.36,1076.35v1.87a2.33,2.33,0,0,1-2.32,2.33H1343.3a2.34,2.34,0,0,1-2.33-2.33v-1.87H1206.64v8.7h311.21v-8.7Z" transform="translate(-993.75 -832.65)"/></g><g class="h"><path class="i" d="M1403.16,1134.27c0-5.54-.55-9-4-12.41s-8-3.44-9.64-3.44l-54.57,0c-1.6,0-6.35.11-9.64,3.43s-4,6.87-4,12.41l-.07,138.39c0,5.53.55,9,4,12.41s8,3.43,9.64,3.43l54.57,0c1.6,0,6.35-.11,9.64-3.42s4-6.88,4-12.41Z" transform="translate(-993.75 -832.65)"/><path class="i" d="M1334.92,1287.77c-4.93,0-7.71-1.76-9.17-3.23-3.19-3.22-3.75-6.41-3.75-11.92l.07-138.39c0-5.51.57-8.7,3.76-11.92,1.46-1.47,4.24-3.23,9.17-3.23l54.57,0c4.93,0,7.71,1.76,9.17,3.24,3.19,3.22,3.75,6.41,3.75,11.92l-.07,138.39c0,5.51-.57,8.7-3.76,11.92-1.46,1.47-4.24,3.22-9.16,3.22Z" transform="translate(-993.75 -832.65)"/><path class="j" d="M1395.75,1125.49c-.9-.9-2.69-2-6.18-2h-6.23c-.31,0-.77.24-.82,1a5.34,5.34,0,0,1-1.22,3.57,3.94,3.94,0,0,1-2.91,1.24h-32.06a3.94,3.94,0,0,1-2.9-1.24,5.38,5.38,0,0,1-1.22-3.58c0-.79-.51-1-.82-1H1335c-3.49,0-5.28,1.07-6.18,2-2.1,2.12-2.47,4.14-2.48,8.78l-.06,138.39c0,4.64.37,6.66,2.46,8.78.9.9,2.69,2,6.18,2l54.57,0c3.49,0,5.28-1.07,6.18-2,2.1-2.11,2.47-4.14,2.47-8.77l.07-138.4c0-4.63-.37-6.65-2.46-8.77" transform="translate(-993.75 -832.65)"/></g><g class="h"><path class="i" d="M1443.7,1523.84a9.47,9.47,0,0,1-9.47,9.41l-144.68-.48a9.47,9.47,0,0,1-9.4-9.47l.64-193.68a9.47,9.47,0,0,1,9.46-9.41l144.68.48a9.46,9.46,0,0,1,9.41,9.47Z" transform="translate(-993.75 -832.65)"/><rect class="j" x="1274.05" y="1360.81" width="176.39" height="131.83" transform="translate(-1062.71 1951.62) rotate(-89.81)"/><path class="n" d="M1364.66,1330.16a2.1,2.1,0,1,1-2.09-2.11A2.09,2.09,0,0,1,1364.66,1330.16Z" transform="translate(-993.75 -832.65)"/><path class="l" d="M1365.59,1523.33a3.67,3.67,0,1,1-3.65-3.69A3.66,3.66,0,0,1,1365.59,1523.33Z" transform="translate(-993.75 -832.65)"/></g></svg>