<svg xmlns="http://www.w3.org/2000/svg" xmlns:xlink="http://www.w3.org/1999/xlink" viewBox="0 0 1555.11 2731.09"><defs><style>.a,.l,.m{fill:none;}.b{fill:#1b1b1d;}.c,.d{fill:#010000;}.d{fill-rule:evenodd;}.e{opacity:0.4;}.f{clip-path:url(#a);}.g{opacity:0.15;}.h{opacity:0.76;}.i{fill:#c15737;}.j{font-size:100.05px;font-family:KorolevMilitaryStencil, Korolev Military Stencil;}.k{letter-spacing:-0.06em;}.l{stroke:#000;}.l,.m{stroke-miterlimit:10;stroke-width:2px;}.m{stroke:#f25726;}.n{opacity:0.81;}.o{fill:#f25726;}.p{fill:#0d0d0f;}.q{fill:#464343;}.r{fill:#868789;}.s{fill:#b0b2b3;}.t{fill:#58585a;}</style><clipPath id="a" transform="translate(-952.17 843.44)"><rect class="a" x="2408.35" y="-770.47" width="72.37" height="39.28"/></clipPath></defs><title>website icon</title><path class="b" d="M1921.55-821.14c0,12.32-9.71,22.31-21.68,22.31s-21.68-10-21.68-22.31,9.71-22.3,21.68-22.3,21.68,10,21.68,22.3" transform="translate(-952.17 843.44)"/><path class="b" d="M1764.38-821.14a11.75,11.75,0,0,1-11.57,11.91H1601.16a11.75,11.75,0,0,1-11.58-11.91,11.75,11.75,0,0,1,11.58-11.9h151.65a11.75,11.75,0,0,1,11.57,11.9" transform="translate(-952.17 843.44)"/><path class="c" d="M958.51-739.83c.48,1.67,2.51,3.42,5.9,3.42,6.44,0,8.84-6.41,8.63-14.28h-.33c-1.08,2.93-4,5.54-8.89,5.54-6.4,0-11.65-4.52-11.65-12.47s5.57-12.75,12.88-12.75c6.59,0,13.23,4,13.23,18.75,0,13.29-4.5,20.14-14,20.14-7,0-10.73-4.11-11.19-8.35Zm6.24-25.6c-3.94,0-7.19,2.9-7.19,7.81,0,5.13,3.38,7.64,7.29,7.64s7.3-2.49,7.3-7.53-3.19-7.92-7.4-7.92" transform="translate(-952.17 843.44)"/><path class="c" d="M1001.56-755.84a4.07,4.07,0,0,1,4.13,4.27,4,4,0,0,1-4.13,4.19,4,4,0,0,1-4-4.19,4,4,0,0,1,4-4.27m0,18.36a4.06,4.06,0,0,1,4.13,4.27,4,4,0,0,1-4.13,4.17,4,4,0,0,1-4-4.17,4,4,0,0,1,4-4.27" transform="translate(-952.17 843.44)"/><path class="c" d="M1046.86-769.55v25h4.66v5.06h-4.66v7.35h-5.19v-7.35H1024v-5.15c4.47-8.32,9.77-16.6,14.84-24.91Zm-5.19,25v-20.11h-.3c-4.07,6.27-8.42,13.23-12.09,19.86v.25Z" transform="translate(-952.17 843.44)"/><polygon class="c" points="126.5 111.31 126.5 80.03 126.23 80.03 117.84 86.2 117.84 80.39 126.5 73.9 131.9 73.9 131.9 111.31 126.5 111.31"/><path class="c" d="M2264.5-733.82a1.67,1.67,0,0,1-1.63,1.7h-4.93a1.67,1.67,0,0,1-1.64-1.7v-34a1.66,1.66,0,0,1,1.64-1.68h4.93a1.65,1.65,0,0,1,1.63,1.68Z" transform="translate(-952.17 843.44)"/><path class="c" d="M2242.76-731.77a1.67,1.67,0,0,1-1.64,1.69h-4.93a1.66,1.66,0,0,1-1.64-1.69v-24.89a1.66,1.66,0,0,1,1.64-1.69h4.93a1.67,1.67,0,0,1,1.64,1.69Z" transform="translate(-952.17 843.44)"/><path class="c" d="M2221-730.06a1.67,1.67,0,0,1-1.64,1.69h-4.93a1.66,1.66,0,0,1-1.64-1.69v-17.29a1.66,1.66,0,0,1,1.64-1.69h4.93a1.67,1.67,0,0,1,1.64,1.69Z" transform="translate(-952.17 843.44)"/><path class="c" d="M2199.26-728.7a1.67,1.67,0,0,1-1.64,1.7h-4.93a1.67,1.67,0,0,1-1.64-1.7v-11.21a1.66,1.66,0,0,1,1.64-1.68h4.93a1.66,1.66,0,0,1,1.64,1.68Z" transform="translate(-952.17 843.44)"/><path class="d" d="M2310.8-757.06l-6.54-6.57a35.61,35.61,0,0,1,51,0l-6.44,6.67a26.74,26.74,0,0,0-19-7.94,26.44,26.44,0,0,0-19,7.82" transform="translate(-952.17 843.44)"/><path class="d" d="M2320.11-742l-6.48-6.53c8.37-8.87,23.44-9.12,32.07-.09l-6.34,6.67q-9.66-7.74-19.25,0" transform="translate(-952.17 843.44)"/><path class="d" d="M2336-733.28l-6.3,6.58-6.35-6.51c2.75-3.12,9-3.67,12.65-.07" transform="translate(-952.17 843.44)"/><g class="e"><g class="f"><path class="c" d="M2472.55-770.47h-56a8.29,8.29,0,0,0-8.16,8.4v22.48a8.29,8.29,0,0,0,8.16,8.4h56a8.29,8.29,0,0,0,8.17-8.4v-22.48a8.3,8.3,0,0,0-8.17-8.4m4.91,30.88a5,5,0,0,1-4.91,5.05h-56a5,5,0,0,1-4.9-5.05v-22.48a5,5,0,0,1,4.9-5h56a5,5,0,0,1,4.91,5Z" transform="translate(-952.17 843.44)"/></g></g><path class="c" d="M2474.2-739.58a1.67,1.67,0,0,1-1.64,1.69h-56a1.66,1.66,0,0,1-1.64-1.69v-22.49a1.66,1.66,0,0,1,1.64-1.69h56a1.67,1.67,0,0,1,1.64,1.69Z" transform="translate(-952.17 843.44)"/><path class="c" d="M2507.29-750.83a4.47,4.47,0,0,1-4.39,4.53v-9.05a4.46,4.46,0,0,1,4.39,4.52" transform="translate(-952.17 843.44)"/><g class="g"><g class="h"><path class="i" d="M1702.48,1226.17a340.81,340.81,0,1,1-25.87-130.63A341.75,341.75,0,0,1,1702.48,1226.17Zm0,0a340.75,340.75,0,1,0-26,130.57A341.47,341.47,0,0,0,1702.48,1226.17Z" transform="translate(-952.17 843.44)"/></g><g class="h"><polygon class="i" points="409.06 1728.37 409.55 1813.68 409.83 1898.99 410.06 2069.61 409.83 2240.24 409.55 2325.55 409.06 2410.86 408.57 2325.55 408.29 2240.24 408.06 2069.61 408.3 1898.99 408.57 1813.68 409.06 1728.37"/></g><g class="h"><path class="i" d="M1266.43,898.28c-3.59,13.33-6.87,26.74-10,40.2-1.58,6.72-3,13.47-4.53,20.2L1247.68,979q-8.31,40.56-14.5,81.51c-4.22,27.28-7.42,54.7-9.92,82.18l-1.64,20.63c-.32,3.43-.41,6.88-.6,10.32l-.52,10.33-.52,10.34c-.17,3.44-.15,6.89-.23,10.34l-.35,20.68.33,20.68.09,5.17,0,2.59.12,2.58.5,10.33.5,10.34.26,5.16.39,5.16,1.56,20.64q3.71,41.22,9.49,82.23t13.4,81.72q3.75,20.36,7.89,40.65t8.82,40.47q-5-20.12-9.3-40.37t-8.37-40.57q-7.85-40.68-14-81.68l-2.91-20.51c-.94-6.85-1.7-13.71-2.55-20.57l-1.25-10.28-1-10.31c-.67-6.88-1.45-13.74-2-20.63l-1.61-20.66-.4-5.17-.27-5.17-.53-10.36-.52-10.35-.13-2.59-.06-2.59-.1-5.18-.37-20.73.4-20.73c.09-3.46.07-6.91.25-10.37l.54-10.35.54-10.35c.21-3.45.3-6.9.63-10.34l1.69-20.66.42-5.17c.15-1.72.36-3.43.53-5.15l1.11-10.3c.76-6.87,1.39-13.75,2.35-20.59l2.69-20.55,3.11-20.49q6.48-40.93,15.07-81.48l4.49-20.23c1.6-6.71,3.11-13.45,4.77-20.15C1259.24,925,1262.69,911.57,1266.43,898.28Z" transform="translate(-952.17 843.44)"/></g><g class="h"><path class="i" d="M1475.72,1549c3.5-13.17,6.7-26.42,9.71-39.7,1.54-6.64,2.93-13.31,4.4-20l4.12-20q8.07-40.07,14-80.52c4-26.94,7.08-54,9.41-81.15l1.51-20.37c.3-3.39.36-6.79.54-10.19l.45-10.2.46-10.2c.14-3.4.1-6.81.16-10.21l.23-20.42-.47-20.41-.12-5.1-.06-2.55-.14-2.55-.57-10.2-.57-10.19-.28-5.1-.43-5.09-1.69-20.35q-4-40.67-10-81.09t-13.91-80.55q-3.87-20.05-8.14-40.05t-9.07-39.86q5.07,19.8,9.55,39.75t8.62,40q8.11,40.1,14.47,80.5l3,20.23c1,6.74,1.78,13.52,2.69,20.28l1.31,10.14L1516,1124c.71,6.78,1.53,13.55,2.16,20.34l1.73,20.38.44,5.1.3,5.11.59,10.21.59,10.21.15,2.56.07,2.55.13,5.12.5,20.46-.26,20.47c-.07,3.41,0,6.82-.2,10.23l-.47,10.22-.48,10.22c-.18,3.4-.26,6.81-.56,10.21l-1.56,20.4-.39,5.1c-.14,1.7-.33,3.39-.5,5.09l-1,10.18c-.72,6.78-1.31,13.57-2.23,20.33l-2.56,20.3-3,20.23q-6.24,40.42-14.56,80.49l-4.37,20c-1.55,6.64-3,13.3-4.63,19.92C1482.74,1522.62,1479.38,1535.84,1475.72,1549Z" transform="translate(-952.17 843.44)"/></g><g class="h"><polygon class="i" points="726.21 2192.66 646.92 2193.15 567.63 2193.43 409.06 2193.66 250.49 2193.43 171.2 2193.15 91.92 2192.66 171.2 2192.18 250.49 2191.9 409.06 2191.67 567.63 2191.9 646.92 2192.18 726.21 2192.66"/></g><g class="h"><polygon class="i" points="750.3 2065.31 664.99 2065.8 579.68 2066.08 409.06 2066.31 238.44 2066.08 153.13 2065.8 67.82 2065.31 153.13 2064.82 238.44 2064.54 409.06 2064.31 579.68 2064.55 664.99 2064.82 750.3 2065.31"/></g><g class="h"><polygon class="i" points="726.21 1943.42 646.92 1943.91 567.63 1944.19 409.06 1944.42 250.49 1944.19 171.2 1943.91 91.92 1943.42 171.2 1942.93 250.49 1942.65 409.06 1942.42 567.63 1942.66 646.92 1942.93 726.21 1943.42"/></g></g><text class="j" transform="translate(139.58 2589.32)">http//:WW<tspan class="k" x="439.63" y="0">W</tspan><tspan x="514.37" y="0">.</tspan></text><polyline class="l" points="344.88 1676.96 42.57 1850.72 42.57 1967.87"/><polyline class="m" points="777.57 1967.87 777.57 1850.72 475.26 1676.96"/><polyline class="l" points="475.26 2446.61 777.57 2272.86 777.57 2172.8"/><polyline class="m" points="42.57 2148.48 42.57 2272.86 344.88 2446.61"/><g class="n"><path class="o" d="M1473.32,923H1251.56a5.61,5.61,0,0,0-5.59,5.59v147.79h232.94V928.59A5.61,5.61,0,0,0,1473.32,923Z" transform="translate(-952.17 843.44)"/><rect class="p" x="304.16" y="1776.07" width="212.44" height="136.5"/><polygon class="q" points="551.7 1933.62 268.45 1933.62 254.47 1928.49 565.67 1928.49 551.7 1933.62"/><path class="r" d="M1363.21,928.77a1,1,0,1,1-1-1A1,1,0,0,1,1363.21,928.77Z" transform="translate(-952.17 843.44)"/><rect class="s" x="384.76" y="1919.8" width="50.43" height="5.12"/><path class="q" d="M1383.36,1076.35v1.87a2.33,2.33,0,0,1-2.32,2.33H1343.3a2.34,2.34,0,0,1-2.33-2.33v-1.87H1206.64v8.7h311.21v-8.7Z" transform="translate(-952.17 843.44)"/></g><g class="n"><path class="o" d="M1403.16,1134.27c0-5.54-.55-9-4-12.41s-8-3.44-9.64-3.44l-54.57,0c-1.6,0-6.35.11-9.64,3.43s-4,6.87-4,12.41l-.07,138.39c0,5.53.55,9,4,12.41s8,3.43,9.64,3.43l54.57,0c1.6,0,6.35-.11,9.64-3.42s4-6.88,4-12.41Z" transform="translate(-952.17 843.44)"/><path class="o" d="M1334.92,1287.77c-4.93,0-7.71-1.76-9.17-3.23-3.19-3.22-3.75-6.41-3.75-11.92l.07-138.39c0-5.51.57-8.7,3.76-11.92,1.46-1.47,4.24-3.23,9.17-3.23l54.57,0c4.93,0,7.71,1.76,9.17,3.24,3.19,3.22,3.75,6.41,3.75,11.92l-.07,138.39c0,5.51-.57,8.7-3.76,11.92-1.46,1.47-4.24,3.22-9.16,3.22Z" transform="translate(-952.17 843.44)"/><path class="p" d="M1395.75,1125.49c-.9-.9-2.69-2-6.18-2h-6.23c-.31,0-.77.24-.82,1a5.34,5.34,0,0,1-1.22,3.57,3.94,3.94,0,0,1-2.91,1.24h-32.06a3.94,3.94,0,0,1-2.9-1.24,5.38,5.38,0,0,1-1.22-3.58c0-.79-.51-1-.82-1H1335c-3.49,0-5.28,1.07-6.18,2-2.1,2.12-2.47,4.14-2.48,8.78l-.06,138.39c0,4.64.37,6.66,2.46,8.78.9.9,2.69,2,6.18,2l54.57,0c3.49,0,5.28-1.07,6.18-2,2.1-2.11,2.47-4.14,2.47-8.77l.07-138.4c0-4.63-.37-6.65-2.46-8.77" transform="translate(-952.17 843.44)"/></g><g class="n"><path class="o" d="M1443.7,1523.84a9.47,9.47,0,0,1-9.47,9.41l-144.68-.48a9.47,9.47,0,0,1-9.4-9.47l.64-193.68a9.47,9.47,0,0,1,9.46-9.41l144.68.48a9.46,9.46,0,0,1,9.41,9.47Z" transform="translate(-952.17 843.44)"/><rect class="p" x="1274.05" y="1360.81" width="176.39" height="131.83" transform="translate(-1021.14 3627.71) rotate(-89.81)"/><path class="t" d="M1364.66,1330.16a2.1,2.1,0,1,1-2.09-2.11A2.09,2.09,0,0,1,1364.66,1330.16Z" transform="translate(-952.17 843.44)"/><path class="r" d="M1365.59,1523.33a3.67,3.67,0,1,1-3.65-3.69A3.66,3.66,0,0,1,1365.59,1523.33Z" transform="translate(-952.17 843.44)"/></g></svg>