<svg xmlns="http://www.w3.org/2000/svg" viewBox="0 0 681.17 325.78"><defs><style>.a{fill:#a79074;}.b{fill:#a48f6b;}</style></defs><title>wood</title><path class="a" d="M1040.58,483.35H359.42V157.57h681.16Zm-674.16-7h667.16V164.57H366.42Z" transform="translate(-359.42 -157.57)"/><path class="b" d="M405.82,233.94H385.93v-7.18h48.4v7.18h-20v58.2h-8.53Z" transform="translate(-359.42 -157.57)"/><path class="b" d="M449.66,232c.1,2.91-2,5.24-5.43,5.24a5.07,5.07,0,0,1-5.14-5.24,5.19,5.19,0,0,1,5.33-5.33A5.06,5.06,0,0,1,449.66,232Zm-9.51,60.14V245.19h8.54v46.95Z" transform="translate(-359.42 -157.57)"/><path class="b" d="M471.29,266.73h.19c1.17-1.65,2.82-3.69,4.17-5.34l13.78-16.2h10.28L481.57,264.5l20.66,27.64H491.85l-16.2-22.5-4.36,4.85v17.65h-8.44V223.27h8.44Z" transform="translate(-359.42 -157.57)"/><path class="b" d="M519.21,233.94H499.32v-7.18h48.41v7.18h-20v58.2h-8.53Z" transform="translate(-359.42 -157.57)"/><path class="b" d="M574.5,292.14l-.68-5.92h-.29a17.49,17.49,0,0,1-14.36,7c-9.51,0-14.36-6.7-14.36-13.49,0-11.34,10.09-17.55,28.23-17.46v-1c0-3.88-1.07-10.86-10.67-10.86a23.44,23.44,0,0,0-12.22,3.49l-1.94-5.62a29.07,29.07,0,0,1,15.42-4.17c14.36,0,17.85,9.79,17.85,19.2v17.56a65.26,65.26,0,0,0,.78,11.25Zm-1.26-24c-9.32-.19-19.89,1.46-19.89,10.57,0,5.53,3.69,8.15,8,8.15a11.69,11.69,0,0,0,11.35-7.85,9,9,0,0,0,.49-2.72Z" transform="translate(-359.42 -157.57)"/><path class="b" d="M603.69,266.73h.2c1.16-1.65,2.81-3.69,4.17-5.34l13.77-16.2h10.28L614,264.5l20.66,27.64H624.26l-16.2-22.5-4.37,4.85v17.65h-8.44V223.27h8.44Z" transform="translate(-359.42 -157.57)"/><path class="b" d="M668.78,292.14l-16.59-65.38h8.93l7.76,33.08c1.94,8.15,3.68,16.3,4.85,22.6h.19c1.07-6.5,3.1-14.26,5.34-22.7l8.73-33h8.82l8,33.18c1.84,7.76,3.58,15.52,4.56,22.4h.19c1.36-7.17,3.2-14.45,5.24-22.6l8.63-33H732L713.5,292.14h-8.83l-8.25-34.05a197.34,197.34,0,0,1-4.26-21.34H692a203.8,203.8,0,0,1-5,21.34l-9.31,34.05Z" transform="translate(-359.42 -157.57)"/><path class="b" d="M779.17,268.28c0,17.36-12,24.93-23.38,24.93-12.71,0-22.51-9.31-22.51-24.16,0-15.71,10.29-24.92,23.28-24.92C770.05,244.13,779.17,253.92,779.17,268.28Zm-37.25.48c0,10.29,5.91,18.05,14.26,18.05,8.14,0,14.25-7.67,14.25-18.24,0-7.95-4-18-14.06-18S741.92,259.84,741.92,268.76Z" transform="translate(-359.42 -157.57)"/><path class="b" d="M832.42,268.28c0,17.36-12,24.93-23.38,24.93-12.71,0-22.5-9.31-22.5-24.16,0-15.71,10.28-24.92,23.28-24.92C823.3,244.13,832.42,253.92,832.42,268.28Zm-37.25.48c0,10.29,5.92,18.05,14.26,18.05,8.15,0,14.26-7.67,14.26-18.24,0-7.95-4-18-14.07-18S795.17,259.84,795.17,268.76Z" transform="translate(-359.42 -157.57)"/><path class="b" d="M883.73,223.27V280c0,4.17.1,8.92.39,12.12h-7.66l-.39-8.15h-.2c-2.61,5.24-8.34,9.22-16,9.22-11.35,0-20.08-9.61-20.08-23.86-.1-15.62,9.6-25.22,21.05-25.22,7.18,0,12,3.39,14.16,7.17h.19v-28Zm-8.54,41a15.12,15.12,0,0,0-.38-3.59,12.55,12.55,0,0,0-12.32-9.89c-8.83,0-14.07,7.76-14.07,18.14,0,9.5,4.66,17.36,13.87,17.36a12.83,12.83,0,0,0,12.52-10.18,14.94,14.94,0,0,0,.38-3.69Z" transform="translate(-359.42 -157.57)"/><path class="b" d="M902.65,270.22c.19,11.54,7.56,16.29,16.1,16.29a30.86,30.86,0,0,0,13-2.42l1.45,6.11a38,38,0,0,1-15.62,2.91c-14.45,0-23.08-9.51-23.08-23.67s8.34-25.31,22-25.31c15.32,0,19.4,13.48,19.4,22.11a33.64,33.64,0,0,1-.29,4Zm25-6.11c.1-5.43-2.23-13.87-11.83-13.87-8.64,0-12.42,7.95-13.1,13.87Z" transform="translate(-359.42 -157.57)"/><path class="b" d="M946.49,257.9c0-4.85-.1-8.83-.39-12.71h7.57l.48,7.76h.2a17.25,17.25,0,0,1,15.52-8.82c6.5,0,16.58,3.88,16.58,20v28h-8.53V265.08c0-7.57-2.82-13.87-10.87-13.87a12.51,12.51,0,0,0-12,12.7v28.23h-8.54Z" transform="translate(-359.42 -157.57)"/><path class="b" d="M614.08,347.44H594.2v-7.18h48.4v7.18h-20v58.2h-8.54Z" transform="translate(-359.42 -157.57)"/><path class="b" d="M685.18,381.77c0,17.37-12,24.93-23.38,24.93-12.7,0-22.5-9.31-22.5-24.15,0-15.71,10.28-24.93,23.28-24.93C676.06,357.62,685.18,367.42,685.18,381.77Zm-37.25.49c0,10.28,5.92,18,14.26,18,8.15,0,14.26-7.66,14.26-18.23,0-8-4-18.05-14.06-18.05S647.93,373.34,647.93,382.26Z" transform="translate(-359.42 -157.57)"/><path class="b" d="M698.37,358.69l10.29,27.74c1.06,3.11,2.23,6.79,3,9.6h.2c.87-2.81,1.84-6.4,3-9.79l9.32-27.55h9l-12.81,33.46c-6.11,16.11-10.28,24.35-16.1,29.39a23,23,0,0,1-10.47,5.53l-2.14-7.17a22.46,22.46,0,0,0,7.47-4.18,25.85,25.85,0,0,0,7.18-9.5,6,6,0,0,0,.68-2,7.52,7.52,0,0,0-.59-2.23l-17.36-43.26Z" transform="translate(-359.42 -157.57)"/><path class="b" d="M739.21,396.91a22.34,22.34,0,0,0,11.25,3.39c6.21,0,9.12-3.1,9.12-7,0-4.08-2.42-6.31-8.73-8.64-8.44-3-12.41-7.66-12.41-13.28,0-7.57,6.11-13.78,16.19-13.78a23.47,23.47,0,0,1,11.55,2.91L764,366.74a18.27,18.27,0,0,0-9.6-2.72c-5,0-7.86,2.91-7.86,6.41,0,3.88,2.82,5.62,8.93,7.95,8.14,3.1,12.32,7.18,12.32,14.16,0,8.25-6.41,14.07-17.56,14.07a26.77,26.77,0,0,1-13.19-3.2Z" transform="translate(-359.42 -157.57)"/></svg>